{
.appVersion = "3108";
copyright = "Helsinki Type Studio";
customParameters = (
{
name = "Axis Mappings";
value = {
wght = {
400 = 400;
500 = 550;
600 = 640;
700 = 700;
};
};
},
{
name = license;

glyphs = (
{
color = 6;
glyphname = A;
lastChange = "2022-04-28 14:27:10 +0000";
layers = (
{
anchors = (
{
name = bottom;
position = "{431, 0}";
},
{
name = ogonek;
position = "{590, 0}";
},
{
name = top;
position = "{310, 700}";
}
);
layerId = "BE73C5E5-17BA-4B8B-9704-EF1C804AF4CB";
rightMetricsKey = "=V";
paths = (
{
closed = 1;
nodes = (
"189 0 LINE",
"294 497 LINE",
"301 560 LINE SMOOTH",
"302 572 OFFCURVE",
"318 572 OFFCURVE",
"319 560 CURVE SMOOTH",
"326 497 LINE",
"431 0 LINE",
"590 0 LINE",
"420 700 LINE",
"200 700 LINE",
"30 0 LINE"
);
},
{
closed = 1;
nodes = (
"413 162 LINE",
"383 292 LINE",
"236 292 LINE",
"207 162 LINE"
);
},
{
closed = 1;
nodes = (
"195 570 LINE",
"215 700 LINE",
"95 700 LINE",
"95 570 LINE"
);
}
);
width = 610;
},
{
anchors = (
{
name = bottom;
position = "{294, 0}";
},
{
name = ogonek;
position = "{546, 0}";
},
{
name = top;
position = "{283, 670}";
}
);
layerId = "6DBC133B-A4A9-4EFF-965F-6B79E3B68C3E";
rightMetricsKey = "=V";
paths = (
{
closed = 1;
nodes = (
"115 0 LINE",
"273 574 LINE",
"282 627 LINE SMOOTH",
"283 635 OFFCURVE",
"294 635 OFFCURVE",
"295 627 CURVE SMOOTH",
"303 574 LINE",
"461 0 LINE",
"546 0 LINE",
"347 700 LINE",
"227 700 LINE",
"30 0 LINE"
);
},
{
closed = 1;
nodes = (
"438 187 LINE",
"416 261 LINE",
"160 261 LINE",
"138 187 LINE"
);
},
{
closed = 1;
nodes = (
"254 627 LINE",
"254 700 LINE",
"113 700 LINE",
"113 627 LINE"
);
}
);
width = 566;
}
);
leftKerningGroup = A;
rightKerningGroup = A;
rightMetricsKey = V;
unicode = 0041;
userData = {
com.schriftgestaltung.Glyphs.ColorIndex = 3;
com.schriftgestaltung.Glyphs.layer.rightMetricsKey = "==V";
com.schriftgestaltung.Glyphs.rightMetricsKey = V;
};
},
{
color = 6;
glyphname = AE;
lastChange = "2022-04-28 14:27:10 +0000";
layers = (
{
anchors = (
{
name = bottom;
position = "{435, 0}";
},
{
name = top;
position = "{435, 700}";
}
);
layerId = "BE73C5E5-17BA-4B8B-9704-EF1C804AF4CB";
paths = (
{
closed = 1;
nodes = (
"189 0 LINE",
"223 162 LINE",
"390 162 LINE",
"390 0 LINE",
"820 0 LINE",
"820 140 LINE",
"535 140 LINE",
"535 285 LINE",
"803 285 LINE",
"803 415 LINE",
"535 415 LINE",
"535 565 LINE",
"820 565 LINE",
"820 700 LINE",
"95 700 LINE",
"95 565 LINE",
"167 565 LINE",
"30 0 LINE"
);
},
{
closed = 1;
nodes = (
"309 565 LINE",
"390 565 LINE",
"390 292 LINE",
"251 292 LINE"
);
}
);
width = 870;
},
{
anchors = (
{
name = bottom;
position = "{425, 0}";
},
{
name = top;
position = "{425, 700}";
}
);
layerId = "6DBC133B-A4A9-4EFF-965F-6B79E3B68C3E";
paths = (
{
closed = 1;
nodes = (
"115 0 LINE",
"166 187 LINE",
"386 187 LINE",
"386 0 LINE",
"789 0 LINE",
"789 78 LINE",
"464 78 LINE",
"464 311 LINE",
"772 311 LINE",
"772 389 LINE",
"464 389 LINE",
"464 622 LINE",
"789 622 LINE",
"789 700 LINE",
"113 700 LINE",
"113 622 LINE",
"205 622 LINE",
"30 0 LINE"
);
},
{
closed = 1;
nodes = (
"286 622 LINE",
"386 622 LINE",
"386 261 LINE",
"187 261 LINE"
);
}
);
width = 849;
}
);
leftKerningGroup = A;
leftMetricsKey = A;
rightKerningGroup = E;
rightMetricsKey = E;
unicode = 00C6;
userData = {
com.schriftgestaltung.Glyphs.leftMetricsKey = A;
com.schriftgestaltung.Glyphs.rightMetricsKey = E;
};
},
{
color = 6;
glyphname = B;
lastChange = "2022-04-28 14:27:10 +0000";
layers = (
{
anchors = (
{
name = bottom;
position = "{296, 0}";
},
{
name = top;
position = "{296, 700}";
}
);
layerId = "BE73C5E5-17BA-4B8B-9704-EF1C804AF4CB";
leftMetricsKey = "=H";
paths = (
{
closed = 1;
nodes = (
"329 0 LINE SMOOTH",
"471 0 OFFCURVE",
"552 72 OFFCURVE",
"552 198 CURVE SMOOTH",
"552 281 OFFCURVE",
"513 341 OFFCURVE",
"445 362 CURVE",
"501 389 OFFCURVE",
"533 442 OFFCURVE",
"533 509 CURVE SMOOTH",
"533 631 OFFCURVE",
"451 700 OFFCURVE",
"309 700 CURVE SMOOTH",
"70 700 LINE",
"70 0 LINE"
);
},
{
closed = 1;
nodes = (
"215 285 LINE",
"329 285 LINE SMOOTH",
"379 285 OFFCURVE",
"407 252 OFFCURVE",
"407 205 CURVE SMOOTH",
"407 156 OFFCURVE",
"379 130 OFFCURVE",
"329 130 CURVE SMOOTH",
"215 130 LINE"
);
},
{
closed = 1;
nodes = (
"215 570 LINE",
"309 570 LINE SMOOTH",
"360 570 OFFCURVE",
"389 543 OFFCURVE",
"389 495 CURVE SMOOTH",
"389 448 OFFCURVE",
"360 415 OFFCURVE",
"309 415 CURVE SMOOTH",
"215 415 LINE"
);
}
);
width = 592;
},
{
anchors = (
{
name = bottom;
position = "{282, 0}";
},
{
name = top;
position = "{282, 670}";
}
);
layerId = "6DBC133B-A4A9-4EFF-965F-6B79E3B68C3E";
leftMetricsKey = "=H";
paths = (
{
closed = 1;
nodes = (
"307 0 LINE SMOOTH",
"437 0 OFFCURVE",
"513 69 OFFCURVE",
"513 190 CURVE SMOOTH",
"513 269 OFFCURVE",
"471 331 OFFCURVE",
"404 355 CURVE",
"462 382 OFFCURVE",
"499 436 OFFCURVE",
"499 510 CURVE SMOOTH",
"499 631 OFFCURVE",
"428 700 OFFCURVE",
"307 700 CURVE SMOOTH",
"90 700 LINE",
"90 0 LINE"
);
},
{
closed = 1;
nodes = (
"168 316 LINE",
"308 316 LINE SMOOTH",
"389 316 OFFCURVE",
"435 269 OFFCURVE",
"435 190 CURVE SMOOTH",
"435 115 OFFCURVE",
"389 70 OFFCURVE",
"308 70 CURVE SMOOTH",
"168 70 LINE"
);
},
{
closed = 1;
nodes = (
"168 630 LINE",
"308 630 LINE SMOOTH",
"380 630 OFFCURVE",
"421 584 OFFCURVE",
"421 510 CURVE SMOOTH",
"421 432 OFFCURVE",
"380 386 OFFCURVE",
"308 386 CURVE SMOOTH",
"168 386 LINE"
);
}
);
width = 563;
}
);
leftKerningGroup = H;
leftMetricsKey = H;
rightKerningGroup = B;
unicode = 0042;
userData = {
com.schriftgestaltung.Glyphs.ColorIndex = 3;
com.schriftgestaltung.Glyphs.layer.leftMetricsKey = "==H";
com.schriftgestaltung.Glyphs.leftMetricsKey = H;
};
},
{
color = 6;
glyphname = C;
lastChange = "2022-04-28 14:27:10 +0000";
layers = (
{
anchors = (
{
name = bottom;
position = "{270, 0}";
},
{
name = top;
position = "{300, 700}";
}
);
layerId = "BE73C5E5-17BA-4B8B-9704-EF1C804AF4CB";
leftMetricsKey = "=O";
paths = (
{
closed = 1;
nodes = (
"384 -12 OFFCURVE",
"426 6 OFFCURVE",
"474 40 CURVE",
"427 165 LINE",
"395 145 OFFCURVE",
"368 129 OFFCURVE",
"320 129 CURVE SMOOTH",
"255 128 OFFCURVE",
"216 164 OFFCURVE",
"210 226 CURVE SMOOTH",
"207 274 OFFCURVE",
"205 309 OFFCURVE",
"205 350 CURVE SMOOTH",
"205 391 OFFCURVE",
"207 427 OFFCURVE",
"210 474 CURVE SMOOTH",
"215 534 OFFCURVE",
"258 572 OFFCURVE",
"327 572 CURVE SMOOTH",
"370 572 OFFCURVE",
"394 563 OFFCURVE",
"430 537 CURVE",
"473 656 LINE",
"423 693 OFFCURVE",
"378 712 OFFCURVE",
"310 712 CURVE SMOOTH",
"166 712 OFFCURVE",
"60 618 OFFCURVE",
"50 482 CURVE SMOOTH",
"47 443 OFFCURVE",
"45 392 OFFCURVE",
"45 350 CURVE SMOOTH",
"45 308 OFFCURVE",
"47 257 OFFCURVE",
"50 218 CURVE SMOOTH",
"60 82 OFFCURVE",
"170 -12 OFFCURVE",
"320 -12 CURVE SMOOTH"
);
}
);
width = 504;
},
{
anchors = (
{
name = bottom;
position = "{302, 0}";
},
{
name = top;
position = "{302, 670}";
}
);
layerId = "6DBC133B-A4A9-4EFF-965F-6B79E3B68C3E";
leftMetricsKey = "=O";
paths = (
{
closed = 1;
nodes = (
"360 -12 OFFCURVE",
"416 9 OFFCURVE",
"463 49 CURVE",
"438 119 LINE",
"398 84 OFFCURVE",
"352 66 OFFCURVE",
"303 66 CURVE SMOOTH",
"207 66 OFFCURVE",
"153 120 OFFCURVE",
"147 224 CURVE SMOOTH",
"144 272 OFFCURVE",
"142 308 OFFCURVE",
"142 350 CURVE SMOOTH",
"142 392 OFFCURVE",
"144 428 OFFCURVE",
"147 476 CURVE SMOOTH",
"154 580 OFFCURVE",
"207 634 OFFCURVE",
"303 634 CURVE SMOOTH",
"352 634 OFFCURVE",
"398 616 OFFCURVE",
"438 581 CURVE",
"463 651 LINE",
"416 691 OFFCURVE",
"360 712 OFFCURVE",
"303 712 CURVE SMOOTH",
"163 712 OFFCURVE",
"78 637 OFFCURVE",
"66 486 CURVE SMOOTH",
"63 447 OFFCURVE",
"60 392 OFFCURVE",
"60 350 CURVE SMOOTH",
"60 308 OFFCURVE",
"63 253 OFFCURVE",
"66 214 CURVE SMOOTH",
"78 63 OFFCURVE",
"163 -12 OFFCURVE",
"303 -12 CURVE SMOOTH"
);
}
);
width = 503;
}
);
leftKerningGroup = O;
leftMetricsKey = O;
rightKerningGroup = C;
unicode = 0043;
userData = {
com.schriftgestaltung.Glyphs.ColorIndex = 3;
com.schriftgestaltung.Glyphs.layer.leftMetricsKey = "==O";
com.schriftgestaltung.Glyphs.leftMetricsKey = O;
};
},
{
color = 6;
glyphname = D;
lastChange = "2022-04-28 14:27:10 +0000";
layers = (
{
anchors = (
{
name = bottom;
position = "{301, 0}";
},
{
name = center;
position = "{150, 350}";
},
{
name = top;
position = "{301, 700}";
}
);
layerId = "BE73C5E5-17BA-4B8B-9704-EF1C804AF4CB";
leftMetricsKey = "=H";
rightMetricsKey = "=O";
paths = (
{
closed = 1;
nodes = (
"274 0 LINE SMOOTH",
"448 0 OFFCURVE",
"541 89 OFFCURVE",
"552 230 CURVE SMOOTH",
"555 266 OFFCURVE",
"557 311 OFFCURVE",
"557 350 CURVE SMOOTH",
"557 389 OFFCURVE",
"555 434 OFFCURVE",
"552 470 CURVE SMOOTH",
"540 611 OFFCURVE",
"448 700 OFFCURVE",
"274 700 CURVE SMOOTH",
"70 700 LINE",
"70 0 LINE"
);
},
{
closed = 1;
nodes = (
"230 570 LINE",
"274 570 LINE SMOOTH",
"360 570 OFFCURVE",
"399 517 OFFCURVE",
"405 449 CURVE SMOOTH",
"409 408 OFFCURVE",
"409 385 OFFCURVE",
"409 350 CURVE SMOOTH",
"409 315 OFFCURVE",
"409 291 OFFCURVE",
"405 251 CURVE SMOOTH",
"398 183 OFFCURVE",
"360 130 OFFCURVE",
"274 130 CURVE SMOOTH",
"230 130 LINE"
);
}
);
width = 602;
},
{
anchors = (
{
name = bottom;
position = "{297, 0}";
},
{
name = center;
position = "{127, 350}";
},
{
name = top;
position = "{297, 670}";
}
);
layerId = "6DBC133B-A4A9-4EFF-965F-6B79E3B68C3E";
leftMetricsKey = "=H";
rightMetricsKey = "=O";
paths = (
{
closed = 1;
nodes = (
"272 0 LINE SMOOTH",
"433 0 OFFCURVE",
"517 89 OFFCURVE",
"528 230 CURVE SMOOTH",
"531 266 OFFCURVE",
"533 311 OFFCURVE",
"533 350 CURVE SMOOTH",
"533 389 OFFCURVE",
"531 434 OFFCURVE",
"528 470 CURVE SMOOTH",
"516 611 OFFCURVE",
"433 700 OFFCURVE",
"272 700 CURVE SMOOTH",
"90 700 LINE",
"90 0 LINE"
);
},
{
closed = 1;
nodes = (
"170 627 LINE",
"272 627 LINE SMOOTH",
"389 628 OFFCURVE",
"439 558 OFFCURVE",
"447 461 CURVE SMOOTH",
"451 416 OFFCURVE",
"451 389 OFFCURVE",
"451 350 CURVE SMOOTH",
"451 311 OFFCURVE",
"451 284 OFFCURVE",
"447 239 CURVE SMOOTH",
"439 142 OFFCURVE",
"389 72 OFFCURVE",
"272 72 CURVE SMOOTH",
"170 72 LINE"
);
}
);
width = 593;
}
);
leftKerningGroup = H;
leftMetricsKey = H;
rightKerningGroup = O;
rightMetricsKey = O;
unicode = 0044;
userData = {
com.schriftgestaltung.Glyphs.ColorIndex = 3;
com.schriftgestaltung.Glyphs.layer.leftMetricsKey = "==H";
com.schriftgestaltung.Glyphs.layer.rightMetricsKey = "==O";
com.schriftgestaltung.Glyphs.leftMetricsKey = H;
com.schriftgestaltung.Glyphs.rightMetricsKey = O;
};
},
{
color = 3;
glyphname = Eth;
lastChange = "2022-04-28 14:27:10 +0000";
layers = (
{
components = (
{
name = D;
transform = "{1, 0, 0, 1, 20, 0}";
}
);
layerId = "BE73C5E5-17BA-4B8B-9704-EF1C804AF4CB";
paths = (
{
closed = 1;
nodes = (
"340 293 LINE",
"340 407 LINE",
"0 407 LINE",
"0 293 LINE"
);
}
);
width = 622;
},
{
components = (
{
name = D;
transform = "{1, 0, 0, 1, 20, 0}";
}
);
layerId = "6DBC133B-A4A9-4EFF-965F-6B79E3B68C3E";
paths = (
{
closed = 1;
nodes = (
"291 315 LINE",
"291 384 LINE",
"0 384 LINE",
"0 315 LINE"
);
}
);
width = 613;
}
);
leftKerningGroup = H;
rightKerningGroup = O;
rightMetricsKey = O;
unicode = 00D0;
userData = {
com.schriftgestaltung.Glyphs.rightMetricsKey = O;
};
},
{
color = 6;
glyphname = E;
lastChange = "2022-04-28 14:27:10 +0000";
layers = (
{
anchors = (
{
name = bottom;
position = "{295, 0}";
},
{
name = ogonek;
position = "{500, 0}";
},
{
name = top;
position = "{295, 700}";
},
{
name = topleft;
position = "{20, 700}";
}
);
layerId = "BE73C5E5-17BA-4B8B-9704-EF1C804AF4CB";
leftMetricsKey = "=H";
paths = (
{
closed = 1;
nodes = (
"500 0 LINE",
"500 140 LINE",
"215 140 LINE",
"215 285 LINE",
"483 285 LINE",
"483 415 LINE",
"215 415 LINE",
"215 560 LINE",
"500 560 LINE",
"500 700 LINE",
"70 700 LINE",
"70 0 LINE"
);
}
);
width = 550;
},
{
anchors = (
{
name = bottom;
position = "{297, 0}";
},
{
name = ogonek;
position = "{493, 0}";
},
{
name = top;
position = "{297, 670}";
},
{
name = topleft;
position = "{20, 700}";
}
);
layerId = "6DBC133B-A4A9-4EFF-965F-6B79E3B68C3E";
leftMetricsKey = "=H";
paths = (
{
closed = 1;
nodes = (
"493 0 LINE",
"493 78 LINE",
"168 78 LINE",
"168 311 LINE",
"476 311 LINE",
"476 389 LINE",
"168 389 LINE",
"168 622 LINE",
"493 622 LINE",
"493 700 LINE",
"90 700 LINE",
"90 0 LINE"
);
}
);
width = 553;
}
);
leftKerningGroup = H;
leftMetricsKey = H;
rightKerningGroup = E;
unicode = 0045;
userData = {
com.schriftgestaltung.Glyphs.ColorIndex = 3;
com.schriftgestaltung.Glyphs.layer.leftMetricsKey = "==H";
com.schriftgestaltung.Glyphs.leftMetricsKey = H;
};
},
{
color = 6;
glyphname = F;
lastChange = "2022-04-28 14:27:10 +0000";
layers = (
{
anchors = (
{
name = bottom;
position = "{265, 0}";
},
{
name = top;
position = "{265, 700}";
}
);
layerId = "BE73C5E5-17BA-4B8B-9704-EF1C804AF4CB";
leftMetricsKey = "=H";
paths = (
{
closed = 1;
nodes = (
"230 0 LINE",
"230 280 LINE",
"483 280 LINE",
"483 420 LINE",
"230 420 LINE",
"230 560 LINE",
"500 560 LINE",
"500 700 LINE",
"70 700 LINE",
"70 0 LINE"
);
}
);
width = 530;
},
{
anchors = (
{
name = bottom;
position = "{261, 0}";
},
{
name = top;
position = "{261, 670}";
}
);
layerId = "6DBC133B-A4A9-4EFF-965F-6B79E3B68C3E";
leftMetricsKey = "=H";
paths = (
{
closed = 1;
nodes = (
"173 0 LINE",
"173 311 LINE",
"456 311 LINE",
"456 389 LINE",
"173 389 LINE",
"173 622 LINE",
"482 622 LINE",
"482 700 LINE",
"90 700 LINE",
"90 0 LINE"
);
}
);
width = 522;
}
);
leftKerningGroup = H;
leftMetricsKey = H;
rightKerningGroup = F;
unicode = 0046;
userData = {
com.schriftgestaltung.Glyphs.ColorIndex = 3;
com.schriftgestaltung.Glyphs.layer.leftMetricsKey = "==H";
com.schriftgestaltung.Glyphs.leftMetricsKey = H;
};
},
{
color = 6;
glyphname = G;
lastChange = "2022-04-28 14:27:10 +0000";
layers = (
{
anchors = (
{
name = bottom;
position = "{304, 0}";
},
{
name = top;
position = "{294, 700}";
}
);
layerId = "BE73C5E5-17BA-4B8B-9704-EF1C804AF4CB";
leftMetricsKey = "=O";
paths = (
{
closed = 1;
nodes = (
"410 -8 OFFCURVE",
"475 14 OFFCURVE",
"516 44 CURVE",
"516 280 LINE",
"578 280 LINE",
"578 420 LINE",
"318 420 LINE",
"318 280 LINE",
"386 280 LINE",
"386 138 LINE",
"360 132 OFFCURVE",
"332 130 OFFCURVE",
"304 130 CURVE SMOOTH",
"241 131 OFFCURVE",
"203 165 OFFCURVE",
"198 230 CURVE SMOOTH",
"195 276 OFFCURVE",
"193 310 OFFCURVE",
"193 350 CURVE SMOOTH",
"193 390 OFFCURVE",
"195 425 OFFCURVE",
"198 461 CURVE SMOOTH",
"205 531 OFFCURVE",
"240 572 OFFCURVE",
"326 572 CURVE SMOOTH",
"381 572 OFFCURVE",
"431 563 OFFCURVE",
"473 526 CURVE",
"522 651 LINE",
"468 691 OFFCURVE",
"400 712 OFFCURVE",
"326 712 CURVE SMOOTH",
"171 712 OFFCURVE",
"68 634 OFFCURVE",
"51 486 CURVE SMOOTH",
"47 447 OFFCURVE",
"45 392 OFFCURVE",
"45 350 CURVE SMOOTH",
"45 308 OFFCURVE",
"48 253 OFFCURVE",
"51 214 CURVE SMOOTH",
"63 67 OFFCURVE",
"155 -12 OFFCURVE",
"314 -10 CURVE SMOOTH"
);
}
);
width = 598;
},
{
anchors = (
{
name = bottom;
position = "{300, 0}";
},
{
name = top;
position = "{300, 670}";
}
);
layerId = "6DBC133B-A4A9-4EFF-965F-6B79E3B68C3E";
leftMetricsKey = "=O";
paths = (
{
closed = 1;
nodes = (
"395 -12 OFFCURVE",
"446 7 OFFCURVE",
"496 42 CURVE",
"496 311 LINE",
"570 311 LINE",
"570 389 LINE",
"332 389 LINE",
"332 311 LINE",
"413 311 LINE",
"413 84 LINE",
"395 72 OFFCURVE",
"352 66 OFFCURVE",
"315 66 CURVE SMOOTH",
"211 66 OFFCURVE",
"153 126 OFFCURVE",
"147 224 CURVE SMOOTH",
"144 272 OFFCURVE",
"142 308 OFFCURVE",
"142 350 CURVE SMOOTH",
"142 392 OFFCURVE",
"144 428 OFFCURVE",
"147 476 CURVE SMOOTH",
"154 584 OFFCURVE",
"215 634 OFFCURVE",
"319 634 CURVE SMOOTH",
"382 634 OFFCURVE",
"423 618 OFFCURVE",
"468 580 CURVE",
"494 651 LINE",
"450 690 OFFCURVE",
"388 712 OFFCURVE",
"319 712 CURVE SMOOTH",
"171 712 OFFCURVE",
"80 641 OFFCURVE",
"65 486 CURVE SMOOTH",
"62 447 OFFCURVE",
"60 392 OFFCURVE",
"60 350 CURVE SMOOTH",
"60 308 OFFCURVE",
"63 253 OFFCURVE",
"66 214 CURVE SMOOTH",
"79 69 OFFCURVE",
"167 -12 OFFCURVE",
"315 -12 CURVE SMOOTH"
);
}
);
width = 600;
}
);
leftKerningGroup = O;
leftMetricsKey = O;
rightKerningGroup = G;
unicode = 0047;
userData = {
com.schriftgestaltung.Glyphs.ColorIndex = 3;
com.schriftgestaltung.Glyphs.layer.leftMetricsKey = "==O";
com.schriftgestaltung.Glyphs.leftMetricsKey = O;
};
},
{
color = 6;
glyphname = Gstroke;
lastChange = "2022-04-28 14:27:10 +0000";
layers = (
{
anchors = (
{
name = bottom;
position = "{300, 0}";
},
{
name = top;
position = "{300, 670}";
}
);
layerId = "6DBC133B-A4A9-4EFF-965F-6B79E3B68C3E";
paths = (
{
closed = 1;
nodes = (
"395 -12 OFFCURVE",
"446 7 OFFCURVE",
"496 42 CURVE",
"496 389 LINE",
"413 389 LINE",
"413 84 LINE",
"395 72 OFFCURVE",
"352 66 OFFCURVE",
"315 66 CURVE SMOOTH",
"211 66 OFFCURVE",
"153 126 OFFCURVE",
"147 224 CURVE SMOOTH",
"144 272 OFFCURVE",
"142 308 OFFCURVE",
"142 350 CURVE SMOOTH",
"142 392 OFFCURVE",
"144 428 OFFCURVE",
"147 476 CURVE SMOOTH",
"154 584 OFFCURVE",
"215 634 OFFCURVE",
"319 634 CURVE SMOOTH",
"382 634 OFFCURVE",
"423 618 OFFCURVE",
"468 580 CURVE",
"494 651 LINE",
"450 690 OFFCURVE",
"388 712 OFFCURVE",
"319 712 CURVE SMOOTH",
"171 712 OFFCURVE",
"80 641 OFFCURVE",
"65 486 CURVE SMOOTH",
"62 447 OFFCURVE",
"60 392 OFFCURVE",
"60 350 CURVE SMOOTH",
"60 308 OFFCURVE",
"63 253 OFFCURVE",
"66 214 CURVE SMOOTH",
"79 69 OFFCURVE",
"167 -12 OFFCURVE",
"315 -12 CURVE SMOOTH"
);
},
{
closed = 1;
nodes = (
"570 196 LINE",
"570 274 LINE",
"332 274 LINE",
"332 196 LINE"
);
}
);
width = 600;
},
{
anchors = (
{
name = bottom;
position = "{294, 0}";
},
{
name = top;
position = "{294, 700}";
}
);
layerId = "BE73C5E5-17BA-4B8B-9704-EF1C804AF4CB";
paths = (
{
closed = 1;
nodes = (
"410 -8 OFFCURVE",
"475 14 OFFCURVE",
"516 44 CURVE",
"516 420 LINE",
"386 420 LINE",
"386 138 LINE",
"360 132 OFFCURVE",
"332 130 OFFCURVE",
"304 130 CURVE SMOOTH",
"241 131 OFFCURVE",
"203 165 OFFCURVE",
"198 230 CURVE SMOOTH",
"195 276 OFFCURVE",
"193 310 OFFCURVE",
"193 350 CURVE SMOOTH",
"193 390 OFFCURVE",
"195 425 OFFCURVE",
"198 461 CURVE SMOOTH",
"205 531 OFFCURVE",
"240 572 OFFCURVE",
"326 572 CURVE SMOOTH",
"381 572 OFFCURVE",
"431 563 OFFCURVE",
"473 526 CURVE",
"522 651 LINE",
"468 691 OFFCURVE",
"400 712 OFFCURVE",
"326 712 CURVE SMOOTH",
"171 712 OFFCURVE",
"68 634 OFFCURVE",
"51 486 CURVE SMOOTH",
"47 447 OFFCURVE",
"45 392 OFFCURVE",
"45 350 CURVE SMOOTH",
"45 308 OFFCURVE",
"48 253 OFFCURVE",
"51 214 CURVE SMOOTH",
"63 67 OFFCURVE",
"155 -12 OFFCURVE",
"314 -10 CURVE SMOOTH"
);
},
{
closed = 1;
nodes = (
"578 203 LINE",
"578 343 LINE",
"318 343 LINE",
"318 203 LINE"
);
}
);
width = 598;
}
);
unicode = 01E4;
},
{
color = 6;
glyphname = H;
lastChange = "2022-04-28 14:27:10 +0000";
layers = (
{
anchors = (
{
name = bottom;
position = "{320, 0}";
},
{
name = center;
position = "{320, 550}";
},
{
name = top;
position = "{320, 700}";
},
{
name = topleft;
position = "{20, 700}";
}
);
layerId = "BE73C5E5-17BA-4B8B-9704-EF1C804AF4CB";
paths = (
{
closed = 1;
nodes = (
"230 0 LINE",
"230 280 LINE",
"410 280 LINE",
"410 0 LINE",
"570 0 LINE",
"570 700 LINE",
"410 700 LINE",
"410 420 LINE",
"230 420 LINE",
"230 700 LINE",
"70 700 LINE",
"70 0 LINE"
);
}
);
width = 640;
},
{
anchors = (
{
name = bottom;
position = "{310, 0}";
},
{
name = center;
position = "{310, 530}";
},
{
name = top;
position = "{310, 670}";
},
{
name = topleft;
position = "{20, 700}";
}
);
layerId = "6DBC133B-A4A9-4EFF-965F-6B79E3B68C3E";
paths = (
{
closed = 1;
nodes = (
"173 0 LINE",
"173 311 LINE",
"447 311 LINE",
"447 0 LINE",
"530 0 LINE",
"530 700 LINE",
"447 700 LINE",
"447 389 LINE",
"173 389 LINE",
"173 700 LINE",
"90 700 LINE",
"90 0 LINE"
);
}
);
width = 620;
}
);
leftKerningGroup = H;
rightKerningGroup = H;
unicode = 0048;
userData = {
com.schriftgestaltung.Glyphs.ColorIndex = 3;
};
},
{
color = 3;
glyphname = Hbar;
lastChange = "2022-04-28 14:27:10 +0000";
layers = (
{
anchors = (
{
name = _center;
position = "{310, 530}";
}
);
components = (
{
name = H;
}
);
layerId = "6DBC133B-A4A9-4EFF-965F-6B79E3B68C3E";
paths = (
{
closed = 1;
nodes = (
"635 495 LINE",
"635 564 LINE",
"-16 564 LINE",
"-16 495 LINE"
);
}
);
width = 620;
},
{
anchors = (
{
name = _center;
position = "{320, 550}";
}
);
components = (
{
name = H;
}
);
layerId = "BE73C5E5-17BA-4B8B-9704-EF1C804AF4CB";
paths = (
{
closed = 1;
nodes = (
"665 493 LINE",
"665 607 LINE",
"-26 607 LINE",
"-26 493 LINE"
);
}
);
width = 640;
}
);
unicode = 0126;
},
{
color = 6;
glyphname = I;
lastChange = "2022-04-28 14:27:10 +0000";
layers = (
{
anchors = (
{
name = bottom;
position = "{222, 0}";
},
{
name = ogonek;
position = "{399, 10}";
},
{
name = top;
position = "{222, 700}";
},
{
name = topleft;
position = "{20, 700}";
}
);
layerId = "BE73C5E5-17BA-4B8B-9704-EF1C804AF4CB";
paths = (
{
closed = 1;
nodes = (
"393 0 LINE",
"393 130 LINE",
"301 130 LINE",
"301 570 LINE",
"393 570 LINE",
"393 700 LINE",
"50 700 LINE",
"50 570 LINE",
"142 570 LINE",
"142 130 LINE",
"50 130 LINE",
"50 0 LINE"
);
}
);
width = 443;
},
{
anchors = (
{
name = bottom;
position = "{212, 0}";
},
{
name = ogonek;
position = "{373, 0}";
},
{
name = top;
position = "{212, 670}";
},
{
name = topleft;
position = "{20, 700}";
}
);
layerId = "6DBC133B-A4A9-4EFF-965F-6B79E3B68C3E";
paths = (
{
closed = 1;
nodes = (
"373 0 LINE",
"373 76 LINE",
"253 76 LINE",
"253 624 LINE",
"373 624 LINE",
"373 700 LINE",
"50 700 LINE",
"50 624 LINE",
"170 624 LINE",
"170 76 LINE",
"50 76 LINE",
"50 0 LINE"
);
}
);
width = 423;
}
);
leftKerningGroup = I;
rightKerningGroup = I;
unicode = 0049;
userData = {
com.schriftgestaltung.Glyphs.ColorIndex = 3;
};
},
{
color = 3;
glyphname = IJ;
lastChange = "2022-04-28 14:27:10 +0000";
layers = (
{
components = (
{
name = I;
}
);
layerId = "BE73C5E5-17BA-4B8B-9704-EF1C804AF4CB";
paths = (
{
closed = 1;
nodes = (
"778 -12 OFFCURVE",
"872 71 OFFCURVE",
"872 220 CURVE SMOOTH",
"872 700 LINE",
"572 700 LINE",
"572 570 LINE",
"712 570 LINE",
"712 220 LINE SMOOTH",
"712 156 OFFCURVE",
"673 130 OFFCURVE",
"605 130 CURVE SMOOTH",
"561 130 OFFCURVE",
"519 139 OFFCURVE",
"473 160 CURVE",
"473 20 LINE",
"522 2 OFFCURVE",
"563 -12 OFFCURVE",
"627 -12 CURVE SMOOTH"
);
}
);
width = 932;
},
{
components = (
{
name = I;
}
);
layerId = "6DBC133B-A4A9-4EFF-965F-6B79E3B68C3E";
paths = (
{
closed = 1;
nodes = (
"719 -2 OFFCURVE",
"800 67 OFFCURVE",
"800 184 CURVE SMOOTH",
"800 700 LINE",
"558 700 LINE",
"558 622 LINE",
"718 622 LINE",
"718 184 LINE SMOOTH",
"718 114 OFFCURVE",
"680 74 OFFCURVE",
"583 74 CURVE SMOOTH",
"537 74 OFFCURVE",
"489 91 OFFCURVE",
"443 115 CURVE",
"443 36 LINE",
"482 10 OFFCURVE",
"547 -2 OFFCURVE",
"593 -2 CURVE SMOOTH"
);
}
);
width = 890;
}
);
leftKerningGroup = I;
rightKerningGroup = J;
unicode = 0132;
},
{
color = 6;
glyphname = J;
lastChange = "2022-04-28 14:27:10 +0000";
layers = (
{
anchors = (
{
name = bottom;
position = "{214, 0}";
},
{
name = top;
position = "{277, 700}";
}
);
background = {
paths = (
{
closed = 1;
nodes = (
"455 700 LINE",
"313 700 LINE",
"313 190 LINE",
"313 157 OFFCURVE",
"305 116 OFFCURVE",
"254 116 CURVE SMOOTH",
"209 116 OFFCURVE",
"185 123 OFFCURVE",
"153 139 CURVE",
"127 19 LINE",
"162 -1 OFFCURVE",
"210 -12 OFFCURVE",
"254 -12 CURVE SMOOTH",
"425 -12 OFFCURVE",
"455 97 OFFCURVE",
"455 190 CURVE"
);
}
);
};
layerId = "BE73C5E5-17BA-4B8B-9704-EF1C804AF4CB";
rightMetricsKey = "=H-10";
paths = (
{
closed = 1;
nodes = (
"325 -12 OFFCURVE",
"419 71 OFFCURVE",
"419 220 CURVE SMOOTH",
"419 700 LINE",
"119 700 LINE",
"119 570 LINE",
"259 570 LINE",
"259 220 LINE SMOOTH",
"259 156 OFFCURVE",
"228 128 OFFCURVE",
"174 129 CURVE SMOOTH",
"122 129 OFFCURVE",
"92 142 OFFCURVE",
"57 165 CURVE",
"10 40 LINE",
"61 6 OFFCURVE",
"106 -12 OFFCURVE",
"174 -12 CURVE SMOOTH"
);
}
);
width = 479;
},
{
anchors = (
{
name = bottom;
position = "{214, 0}";
},
{
name = top;
position = "{214, 670}";
}
);
background = {
paths = (
{
closed = 1;
nodes = (
"455 700 LINE",
"313 700 LINE",
"313 190 LINE",
"313 157 OFFCURVE",
"305 116 OFFCURVE",
"254 116 CURVE SMOOTH",
"209 116 OFFCURVE",
"185 123 OFFCURVE",
"153 139 CURVE",
"127 19 LINE",
"162 -1 OFFCURVE",
"210 -12 OFFCURVE",
"254 -12 CURVE SMOOTH",
"425 -12 OFFCURVE",
"455 97 OFFCURVE",
"455 190 CURVE"
);
}
);
};
layerId = "6DBC133B-A4A9-4EFF-965F-6B79E3B68C3E";
rightMetricsKey = "=H";
paths = (
{
closed = 1;
nodes = (
"284 -12 OFFCURVE",
"357 50 OFFCURVE",
"357 154 CURVE SMOOTH",
"357 700 LINE",
"115 700 LINE",
"115 622 LINE",
"275 622 LINE",
"275 154 LINE SMOOTH",
"275 98 OFFCURVE",
"234 66 OFFCURVE",
"170 66 CURVE SMOOTH",
"129 66 OFFCURVE",
"64 81 OFFCURVE",
"35 121 CURVE",
"10 50 LINE",
"52 8 OFFCURVE",
"121 -12 OFFCURVE",
"170 -12 CURVE SMOOTH"
);
}
);
width = 447;
}
);
leftKerningGroup = J;
rightKerningGroup = J;
rightMetricsKey = H;
unicode = 004A;
userData = {
com.schriftgestaltung.Glyphs.ColorIndex = 3;
com.schriftgestaltung.Glyphs.layer.rightMetricsKey = "==H";
com.schriftgestaltung.Glyphs.rightMetricsKey = H;
com.typemytype.robofont.layerData = {
background = {
anchors = (
);
components = (
);
contours = (
{
points = (
{
segmentType = line;
smooth = 0;
x = 455;
y = 700;
},
{
segmentType = line;
smooth = 0;
x = 313;
y = 700;
},
{
segmentType = line;
smooth = 0;
x = 313;
y = 190;
},
{
smooth = 0;
x = 313;
y = 157;
},
{
smooth = 0;
x = 305;
y = 116;
},
{
segmentType = curve;
smooth = 1;
x = 254;
y = 116;
},
{
smooth = 0;
x = 209;
y = 116;
},
{
smooth = 0;
x = 185;
y = 123;
},
{
segmentType = curve;
smooth = 0;
x = 153;
y = 139;
},
{
segmentType = line;
smooth = 0;
x = 127;
y = 19;
},
{
smooth = 0;
x = 162;
y = -1;
},
{
smooth = 0;
x = 210;
y = -12;
},
{
segmentType = curve;
smooth = 1;
x = 254;
y = -12;
},
{
smooth = 0;
x = 425;
y = -12;
},
{
smooth = 0;
x = 455;
y = 97;
},
{
segmentType = curve;
smooth = 0;
x = 455;
y = 190;
}
);
}
);
lib = {
};
name = J;
unicodes = (
);
width = 447;
};
};
};
},
{
color = 6;
glyphname = K;
lastChange = "2022-04-28 14:27:10 +0000";
layers = (
{
anchors = (
{
name = bottom;
position = "{296, 0}";
},
{
name = top;
position = "{296, 700}";
}
);
layerId = "BE73C5E5-17BA-4B8B-9704-EF1C804AF4CB";
leftMetricsKey = "=H";
paths = (
{
closed = 1;
nodes = (
"226 0 LINE",
"226 285 LINE",
"283 285 LINE",
"394 0 LINE",
"561 0 LINE",
"416 360 LINE",
"566 700 LINE",
"397 700 LINE",
"283 415 LINE",
"226 415 LINE",
"226 700 LINE",
"70 700 LINE",
"70 0 LINE"
);
}
);
width = 586;
},
{
anchors = (
{
name = bottom;
position = "{269, 0}";
},
{
name = top;
position = "{269, 670}";
}
);
layerId = "6DBC133B-A4A9-4EFF-965F-6B79E3B68C3E";
leftMetricsKey = "=H";
paths = (
{
closed = 1;
nodes = (
"172 0 LINE",
"172 313 LINE",
"247 313 LINE",
"418 0 LINE",
"508 0 LINE",
"315 356 LINE",
"506 700 LINE",
"416 700 LINE",
"247 388 LINE",
"172 388 LINE",
"172 700 LINE",
"90 700 LINE",
"90 0 LINE"
);
}
);
width = 538;
}
);
leftKerningGroup = H;
leftMetricsKey = H;
rightKerningGroup = K;
unicode = 004B;
userData = {
com.schriftgestaltung.Glyphs.ColorIndex = 3;
com.schriftgestaltung.Glyphs.layer.leftMetricsKey = "==H";
com.schriftgestaltung.Glyphs.leftMetricsKey = H;
};
},
{
color = 6;
glyphname = L;
lastChange = "2022-04-28 14:27:10 +0000";
layers = (
{
anchors = (
{
name = bottom;
position = "{244, 0}";
},
{
name = center;
position = "{150, 450}";
},
{
name = top;
position = "{222, 700}";
},
{
name = topright;
position = "{424, 700}";
}
);
layerId = "BE73C5E5-17BA-4B8B-9704-EF1C804AF4CB";
leftMetricsKey = "=H";
paths = (
{
closed = 1;
nodes = (
"424 0 LINE",
"424 140 LINE",
"230 140 LINE",
"230 700 LINE",
"70 700 LINE",
"70 0 LINE"
);
}
);
width = 444;
},
{
anchors = (
{
name = bottom;
position = "{256, 0}";
},
{
name = center;
position = "{136, 390}";
},
{
name = top;
position = "{226, 670}";
},
{
name = topright;
position = "{432, 700}";
}
);
layerId = "6DBC133B-A4A9-4EFF-965F-6B79E3B68C3E";
leftMetricsKey = "=H";
paths = (
{
closed = 1;
nodes = (
"422 0 LINE",
"422 78 LINE",
"173 78 LINE",
"173 700 LINE",
"90 700 LINE",
"90 0 LINE"
);
}
);
width = 452;
}
);
leftKerningGroup = H;
leftMetricsKey = H;
rightKerningGroup = L;
unicode = 004C;
userData = {
com.schriftgestaltung.Glyphs.ColorIndex = 3;
com.schriftgestaltung.Glyphs.layer.leftMetricsKey = "==H";
com.schriftgestaltung.Glyphs.leftMetricsKey = H;
};
},
{
color = 6;
glyphname = M;
lastChange = "2022-04-28 14:27:10 +0000";
layers = (
{
anchors = (
{
name = bottom;
position = "{340, 0}";
},
{
name = top;
position = "{340, 700}";
}
);
guideLines = (
{
angle = 90;
position = "{629, 540}";
}
);
layerId = "BE73C5E5-17BA-4B8B-9704-EF1C804AF4CB";
leftMetricsKey = "=H";
rightMetricsKey = "=H";
paths = (
{
closed = 1;
nodes = (
"220 0 LINE",
"220 290 LINE",
"206 378 LINE SMOOTH",
"204 388 OFFCURVE",
"216 394 OFFCURVE",
"222 384 CURVE SMOOTH",
"310 229 LINE",
"362 229 LINE",
"458 384 LINE SMOOTH",
"464 394 OFFCURVE",
"476 388 OFFCURVE",
"474 378 CURVE SMOOTH",
"460 290 LINE",
"460 0 LINE",
"610 0 LINE",
"610 700 LINE",
"480 700 LINE",
"349 453 LINE SMOOTH",
"345 445 OFFCURVE",
"335 445 OFFCURVE",
"331 453 CURVE SMOOTH",
"200 700 LINE",
"70 700 LINE",
"70 0 LINE"
);
}
);
width = 680;
},
{
anchors = (
{
name = bottom;
position = "{337, 0}";
},
{
name = top;
position = "{337, 670}";
}
);
layerId = "6DBC133B-A4A9-4EFF-965F-6B79E3B68C3E";
leftMetricsKey = "=H";
rightMetricsKey = "=H";
paths = (
{
closed = 1;
nodes = (
"170 0 LINE",
"170 456 LINE",
"160 519 LINE SMOOTH",
"159 528 OFFCURVE",
"168 533 OFFCURVE",
"173 522 CURVE",
"312 265 LINE",
"362 265 LINE",
"501 522 LINE SMOOTH",
"507 533 OFFCURVE",
"515 528 OFFCURVE",
"514 519 CURVE SMOOTH",
"504 456 LINE",
"504 0 LINE",
"584 0 LINE",
"584 700 LINE",
"514 700 LINE",
"348 386 LINE SMOOTH",
"342 374 OFFCURVE",
"332 374 OFFCURVE",
"326 386 CURVE SMOOTH",
"160 700 LINE",
"90 700 LINE",
"90 0 LINE"
);
}
);
width = 674;
}
);
leftKerningGroup = H;
leftMetricsKey = H;
rightKerningGroup = H;
rightMetricsKey = H;
unicode = 004D;
userData = {
com.schriftgestaltung.Glyphs.ColorIndex = 3;
com.schriftgestaltung.Glyphs.layer.leftMetricsKey = "==H";
com.schriftgestaltung.Glyphs.layer.rightMetricsKey = "==H";
com.schriftgestaltung.Glyphs.leftMetricsKey = H;
com.schriftgestaltung.Glyphs.rightMetricsKey = H;
};
},
{
color = 6;
glyphname = N;
lastChange = "2022-04-28 14:27:10 +0000";
layers = (
{
anchors = (
{
name = bottom;
position = "{320, 0}";
},
{
name = top;
position = "{320, 700}";
}
);
layerId = "BE73C5E5-17BA-4B8B-9704-EF1C804AF4CB";
leftMetricsKey = "=H";
rightMetricsKey = "=H";
paths = (
{
closed = 1;
nodes = (
"220 0 LINE",
"220 290 LINE",
"206 378 LINE SMOOTH",
"204 388 OFFCURVE",
"216 394 OFFCURVE",
"222 384 CURVE SMOOTH",
"440 0 LINE",
"570 0 LINE",
"570 700 LINE",
"420 700 LINE",
"420 410 LINE",
"435 322 LINE SMOOTH",
"437 312 OFFCURVE",
"425 306 OFFCURVE",
"419 316 CURVE SMOOTH",
"200 700 LINE",
"70 700 LINE",
"70 0 LINE"
);
}
);
width = 640;
},
{
anchors = (
{
name = bottom;
position = "{312, 0}";
},
{
name = top;
position = "{312, 700}";
}
);
layerId = "6DBC133B-A4A9-4EFF-965F-6B79E3B68C3E";
leftMetricsKey = "=H";
rightMetricsKey = "=H";
paths = (
{
closed = 1;
nodes = (
"170 0 LINE",
"170 449 LINE",
"160 514 LINE SMOOTH",
"158 525 OFFCURVE",
"168 529 OFFCURVE",
"174 517 CURVE SMOOTH",
"453 0 LINE",
"533 0 LINE",
"533 700 LINE",
"453 700 LINE",
"453 225 LINE",
"464 158 LINE SMOOTH",
"465 149 OFFCURVE",
"456 143 OFFCURVE",
"451 153 CURVE SMOOTH",
"158 700 LINE",
"90 700 LINE",
"90 0 LINE"
);
}
);
width = 623;
}
);
leftKerningGroup = H;
leftMetricsKey = H;
rightKerningGroup = H;
rightMetricsKey = H;
unicode = 004E;
userData = {
com.schriftgestaltung.Glyphs.ColorIndex = 3;
com.schriftgestaltung.Glyphs.layer.leftMetricsKey = "==H";
com.schriftgestaltung.Glyphs.layer.rightMetricsKey = "==H";
com.schriftgestaltung.Glyphs.leftMetricsKey = H;
com.schriftgestaltung.Glyphs.rightMetricsKey = H;
};
},
{
color = 3;
glyphname = Eng;
lastChange = "2022-04-28 14:27:10 +0000";
layers = (
{
components = (
{
name = N;
}
);
layerId = "6DBC133B-A4A9-4EFF-965F-6B79E3B68C3E";
paths = (
{
closed = 1;
nodes = (
"472 -215 OFFCURVE",
"533 -157 OFFCURVE",
"533 -65 CURVE SMOOTH",
"533 700 LINE",
"453 700 LINE",
"453 -65 LINE SMOOTH",
"453 -112 OFFCURVE",
"424 -142 OFFCURVE",
"379 -142 CURVE SMOOTH",
"345 -142 OFFCURVE",
"309 -125 OFFCURVE",
"285 -99 CURVE",
"248 -162 LINE",
"284 -195 OFFCURVE",
"333 -215 OFFCURVE",
"376 -215 CURVE SMOOTH"
);
}
);
width = 623;
},
{
components = (
{
name = N;
}
);
layerId = "BE73C5E5-17BA-4B8B-9704-EF1C804AF4CB";
paths = (
{
closed = 1;
nodes = (
"484 -215 OFFCURVE",
"570 -143 OFFCURVE",
"570 -13 CURVE SMOOTH",
"570 147 LINE",
"421 147 LINE",
"421 -13 LINE SMOOTH",
"421 -56 OFFCURVE",
"393 -75 OFFCURVE",
"345 -74 CURVE SMOOTH",
"306 -73 OFFCURVE",
"284 -65 OFFCURVE",
"258 -48 CURVE",
"211 -173 LINE",
"253 -200 OFFCURVE",
"289 -215 OFFCURVE",
"345 -215 CURVE SMOOTH"
);
}
);
width = 640;
}
);
leftMetricsKey = N;
rightMetricsKey = N;
unicode = 014A;
},
{
color = 6;
glyphname = O;
lastChange = "2022-04-28 14:27:10 +0000";
layers = (
{
anchors = (
{
name = bottom;
position = "{310, 0}";
},
{
name = center;
position = "{310, 350}";
},
{
name = ogonek;
position = "{558, 10}";
},
{
name = top;
position = "{310, 700}";
},
{
name = topleft;
position = "{20, 700}";
},
{
name = topright;
position = "{600, 700}";
}
);
layerId = "BE73C5E5-17BA-4B8B-9704-EF1C804AF4CB";
paths = (
{
closed = 1;
nodes = (
"379 -12 OFFCURVE",
"447 9 OFFCURVE",
"496 58 CURVE SMOOTH",
"543 105 OFFCURVE",
"575 166 OFFCURVE",
"575 350 CURVE SMOOTH",
"575 534 OFFCURVE",
"543 595 OFFCURVE",
"496 642 CURVE SMOOTH",
"447 691 OFFCURVE",
"379 712 OFFCURVE",
"310 712 CURVE SMOOTH",
"241 712 OFFCURVE",
"173 691 OFFCURVE",
"124 642 CURVE SMOOTH",
"77 595 OFFCURVE",
"45 534 OFFCURVE",
"45 350 CURVE SMOOTH",
"45 166 OFFCURVE",
"77 105 OFFCURVE",
"124 58 CURVE SMOOTH",
"173 9 OFFCURVE",
"241 -12 OFFCURVE",
"310 -12 CURVE SMOOTH"
);
},
{
closed = 1;
nodes = (
"254 129 OFFCURVE",
"215 166 OFFCURVE",
"211 227 CURVE SMOOTH",
"208 265 OFFCURVE",
"206 307 OFFCURVE",
"206 350 CURVE SMOOTH",
"206 393 OFFCURVE",
"208 435 OFFCURVE",
"211 473 CURVE SMOOTH",
"215 534 OFFCURVE",
"254 571 OFFCURVE",
"310 571 CURVE SMOOTH",
"366 571 OFFCURVE",
"405 534 OFFCURVE",
"409 473 CURVE SMOOTH",
"412 435 OFFCURVE",
"414 393 OFFCURVE",
"414 350 CURVE SMOOTH",
"414 307 OFFCURVE",
"412 265 OFFCURVE",
"409 227 CURVE SMOOTH",
"405 166 OFFCURVE",
"366 129 OFFCURVE",
"310 129 CURVE SMOOTH"
);
}
);
width = 620;
},
{
anchors = (
{
name = bottom;
position = "{303, 0}";
},
{
name = center;
position = "{303, 350}";
},
{
name = ogonek;
position = "{545, 10}";
},
{
name = top;
position = "{303, 670}";
},
{
name = topleft;
position = "{20, 700}";
},
{
name = topright;
position = "{586, 700}";
}
);
layerId = "6DBC133B-A4A9-4EFF-965F-6B79E3B68C3E";
paths = (
{
closed = 1;
nodes = (
"375 -12 OFFCURVE",
"432 10 OFFCURVE",
"472 51 CURVE SMOOTH",
"515 94 OFFCURVE",
"546 162 OFFCURVE",
"546 350 CURVE",
"546 538 OFFCURVE",
"515 606 OFFCURVE",
"472 649 CURVE SMOOTH",
"432 690 OFFCURVE",
"375 712 OFFCURVE",
"303 712 CURVE",
"231 712 OFFCURVE",
"174 690 OFFCURVE",
"134 649 CURVE SMOOTH",
"91 606 OFFCURVE",
"60 538 OFFCURVE",
"60 350 CURVE",
"60 162 OFFCURVE",
"91 94 OFFCURVE",
"134 51 CURVE SMOOTH",
"174 10 OFFCURVE",
"231 -12 OFFCURVE",
"303 -12 CURVE"
);
},
{
closed = 1;
nodes = (
"204 66 OFFCURVE",
"153 123 OFFCURVE",
"148 214 CURVE SMOOTH",
"144 272 OFFCURVE",
"142 308 OFFCURVE",
"142 350 CURVE",
"142 392 OFFCURVE",
"144 428 OFFCURVE",
"148 486 CURVE SMOOTH",
"153 577 OFFCURVE",
"204 634 OFFCURVE",
"303 634 CURVE",
"402 634 OFFCURVE",
"453 577 OFFCURVE",
"458 486 CURVE SMOOTH",
"462 428 OFFCURVE",
"464 392 OFFCURVE",
"464 350 CURVE",
"464 308 OFFCURVE",
"462 272 OFFCURVE",
"458 214 CURVE SMOOTH",
"453 123 OFFCURVE",
"402 66 OFFCURVE",
"303 66 CURVE"
);
}
);
width = 606;
}
);
leftKerningGroup = O;
rightKerningGroup = O;
unicode = 004F;
userData = {
com.schriftgestaltung.Glyphs.ColorIndex = 3;
};
},
{
color = 6;
glyphname = OE;
lastChange = "2022-04-28 14:27:10 +0000";
layers = (
{
anchors = (
{
name = bottom;
position = "{456, 0}";
},
{
name = top;
position = "{456, 700}";
}
);
layerId = "BE73C5E5-17BA-4B8B-9704-EF1C804AF4CB";
paths = (
{
closed = 1;
nodes = (
"337 -12 OFFCURVE",
"364 -9 OFFCURVE",
"390 -2 CURVE",
"418 14 LINE SMOOTH",
"426 19 OFFCURVE",
"432 15 OFFCURVE",
"432 6 CURVE SMOOTH",
"432 0 LINE",
"862 0 LINE",
"862 140 LINE",
"577 140 LINE",
"577 285 LINE",
"845 285 LINE",
"845 415 LINE",
"577 415 LINE",
"577 560 LINE",
"862 560 LINE",
"862 700 LINE",
"432 700 LINE",
"432 694 LINE SMOOTH",
"432 685 OFFCURVE",
"426 681 OFFCURVE",
"418 686 CURVE SMOOTH",
"393 701 LINE",
"366 708 OFFCURVE",
"338 712 OFFCURVE",
"310 712 CURVE SMOOTH",
"241 712 OFFCURVE",
"173 691 OFFCURVE",
"124 642 CURVE SMOOTH",
"77 595 OFFCURVE",
"45 534 OFFCURVE",
"45 350 CURVE SMOOTH",
"45 166 OFFCURVE",
"77 105 OFFCURVE",
"124 58 CURVE SMOOTH",
"173 9 OFFCURVE",
"241 -12 OFFCURVE",
"310 -12 CURVE SMOOTH"
);
},
{
closed = 1;
nodes = (
"254 129 OFFCURVE",
"215 166 OFFCURVE",
"211 227 CURVE SMOOTH",
"208 265 OFFCURVE",
"206 307 OFFCURVE",
"206 350 CURVE SMOOTH",
"206 393 OFFCURVE",
"208 435 OFFCURVE",
"211 473 CURVE SMOOTH",
"215 534 OFFCURVE",
"254 571 OFFCURVE",
"310 571 CURVE SMOOTH",
"366 571 OFFCURVE",
"405 534 OFFCURVE",
"409 473 CURVE SMOOTH",
"412 435 OFFCURVE",
"414 393 OFFCURVE",
"414 350 CURVE SMOOTH",
"414 307 OFFCURVE",
"412 265 OFFCURVE",
"409 227 CURVE SMOOTH",
"405 166 OFFCURVE",
"366 129 OFFCURVE",
"310 129 CURVE SMOOTH"
);
}
);
width = 912;
},
{
anchors = (
{
name = bottom;
position = "{466, 0}";
},
{
name = top;
position = "{466, 700}";
}
);
layerId = "6DBC133B-A4A9-4EFF-965F-6B79E3B68C3E";
paths = (
{
closed = 1;
nodes = (
"351 -12 OFFCURVE",
"393 -2 OFFCURVE",
"427 17 CURVE",
"457 46 LINE SMOOTH",
"464 53 OFFCURVE",
"469 50 OFFCURVE",
"469 41 CURVE SMOOTH",
"469 0 LINE",
"872 0 LINE",
"872 78 LINE",
"547 78 LINE",
"547 311 LINE",
"855 311 LINE",
"855 389 LINE",
"547 389 LINE",
"547 622 LINE",
"872 622 LINE",
"872 700 LINE",
"469 700 LINE",
"469 659 LINE SMOOTH",
"469 650 OFFCURVE",
"464 647 OFFCURVE",
"457 654 CURVE SMOOTH",
"429 682 LINE",
"394 702 OFFCURVE",
"352 712 OFFCURVE",
"303 712 CURVE SMOOTH",
"231 712 OFFCURVE",
"174 690 OFFCURVE",
"134 649 CURVE SMOOTH",
"91 606 OFFCURVE",
"60 538 OFFCURVE",
"60 350 CURVE SMOOTH",
"60 162 OFFCURVE",
"91 94 OFFCURVE",
"134 51 CURVE SMOOTH",
"174 10 OFFCURVE",
"231 -12 OFFCURVE",
"303 -12 CURVE SMOOTH"
);
},
{
closed = 1;
nodes = (
"204 66 OFFCURVE",
"153 123 OFFCURVE",
"148 214 CURVE SMOOTH",
"144 272 OFFCURVE",
"142 308 OFFCURVE",
"142 350 CURVE SMOOTH",
"142 392 OFFCURVE",
"144 428 OFFCURVE",
"148 486 CURVE SMOOTH",
"153 577 OFFCURVE",
"204 634 OFFCURVE",
"303 634 CURVE SMOOTH",
"402 634 OFFCURVE",
"453 577 OFFCURVE",
"458 486 CURVE SMOOTH",
"462 428 OFFCURVE",
"464 392 OFFCURVE",
"464 350 CURVE SMOOTH",
"464 308 OFFCURVE",
"462 272 OFFCURVE",
"458 214 CURVE SMOOTH",
"453 123 OFFCURVE",
"402 66 OFFCURVE",
"303 66 CURVE SMOOTH"
);
}
);
width = 932;
}
);
leftKerningGroup = O;
leftMetricsKey = O;
rightKerningGroup = E;
rightMetricsKey = E;
unicode = 0152;
userData = {
com.schriftgestaltung.Glyphs.leftMetricsKey = O;
com.schriftgestaltung.Glyphs.rightMetricsKey = E;
};
},
{
color = 6;
glyphname = P;
lastChange = "2022-04-28 14:27:10 +0000";
layers = (
{
anchors = (
{
name = bottom;
position = "{290, 0}";
},
{
name = top;
position = "{290, 700}";
}
);
layerId = "BE73C5E5-17BA-4B8B-9704-EF1C804AF4CB";
leftMetricsKey = "=H";
paths = (
{
closed = 1;
nodes = (
"229 0 LINE",
"229 280 LINE",
"335 280 LINE SMOOTH",
"468 280 OFFCURVE",
"550 361 OFFCURVE",
"550 486 CURVE SMOOTH",
"550 619 OFFCURVE",
"468 700 OFFCURVE",
"335 700 CURVE SMOOTH",
"70 700 LINE",
"70 0 LINE"
);
},
{
closed = 1;
nodes = (
"229 570 LINE",
"335 570 LINE SMOOTH",
"379 570 OFFCURVE",
"405 541 OFFCURVE",
"405 489 CURVE SMOOTH",
"405 443 OFFCURVE",
"379 410 OFFCURVE",
"335 410 CURVE SMOOTH",
"229 410 LINE"
);
}
);
width = 580;
},
{
anchors = (
{
name = bottom;
position = "{277, 0}";
},
{
name = top;
position = "{277, 670}";
}
);
layerId = "6DBC133B-A4A9-4EFF-965F-6B79E3B68C3E";
leftMetricsKey = "=H";
paths = (
{
closed = 1;
nodes = (
"170 0 LINE",
"170 311 LINE",
"330 311 LINE SMOOTH",
"449 311 OFFCURVE",
"523 384 OFFCURVE",
"523 503 CURVE SMOOTH",
"523 623 OFFCURVE",
"449 700 OFFCURVE",
"330 700 CURVE SMOOTH",
"90 700 LINE",
"90 0 LINE"
);
},
{
closed = 1;
nodes = (
"170 630 LINE",
"320 630 LINE SMOOTH",
"395 630 OFFCURVE",
"442 581 OFFCURVE",
"442 503 CURVE SMOOTH",
"442 428 OFFCURVE",
"395 384 OFFCURVE",
"320 384 CURVE SMOOTH",
"170 384 LINE"
);
}
);
width = 553;
}
);
leftKerningGroup = H;
leftMetricsKey = H;
rightKerningGroup = P;
unicode = 0050;
userData = {
com.schriftgestaltung.Glyphs.ColorIndex = 3;
com.schriftgestaltung.Glyphs.layer.leftMetricsKey = "==H";
com.schriftgestaltung.Glyphs.leftMetricsKey = H;
};
},
{
color = 6;
glyphname = Thorn;
lastChange = "2022-04-28 14:27:10 +0000";
layers = (
{
anchors = (
{
name = bottom;
position = "{290, 0}";
},
{
name = top;
position = "{290, 700}";
}
);
layerId = "BE73C5E5-17BA-4B8B-9704-EF1C804AF4CB";
paths = (
{
closed = 1;
nodes = (
"229 0 LINE",
"229 150 LINE",
"335 150 LINE SMOOTH",
"468 150 OFFCURVE",
"550 231 OFFCURVE",
"550 356 CURVE SMOOTH",
"550 489 OFFCURVE",
"468 570 OFFCURVE",
"335 570 CURVE SMOOTH",
"229 570 LINE",
"229 700 LINE",
"70 700 LINE",
"70 0 LINE"
);
},
{
closed = 1;
nodes = (
"229 440 LINE",
"335 440 LINE SMOOTH",
"379 440 OFFCURVE",
"405 411 OFFCURVE",
"405 359 CURVE SMOOTH",
"405 313 OFFCURVE",
"379 280 OFFCURVE",
"335 280 CURVE SMOOTH",
"229 280 LINE"
);
}
);
width = 580;
},
{
anchors = (
{
name = bottom;
position = "{277, 0}";
},
{
name = top;
position = "{277, 700}";
}
);
layerId = "6DBC133B-A4A9-4EFF-965F-6B79E3B68C3E";
paths = (
{
closed = 1;
nodes = (
"170 0 LINE",
"170 165 LINE",
"330 165 LINE SMOOTH",
"449 165 OFFCURVE",
"523 238 OFFCURVE",
"523 357 CURVE SMOOTH",
"523 477 OFFCURVE",
"449 555 OFFCURVE",
"330 555 CURVE SMOOTH",
"170 555 LINE",
"170 700 LINE",
"90 700 LINE",
"90 0 LINE"
);
},
{
closed = 1;
nodes = (
"170 484 LINE",
"320 484 LINE SMOOTH",
"395 484 OFFCURVE",
"442 435 OFFCURVE",
"442 357 CURVE SMOOTH",
"442 282 OFFCURVE",
"395 238 OFFCURVE",
"320 238 CURVE SMOOTH",
"170 238 LINE"
);
}
);
width = 553;
}
);
leftKerningGroup = H;
leftMetricsKey = H;
rightKerningGroup = Thorn;
unicode = 00DE;
userData = {
com.schriftgestaltung.Glyphs.leftMetricsKey = H;
};
},
{
color = 6;
glyphname = Q;
lastChange = "2022-04-28 14:27:10 +0000";
layers = (
{
anchors = (
{
name = bottom;
position = "{310, 0}";
},
{
name = top;
position = "{310, 700}";
}
);
layerId = "BE73C5E5-17BA-4B8B-9704-EF1C804AF4CB";
leftMetricsKey = "=O";
rightMetricsKey = "=O";
paths = (
{
closed = 1;
nodes = (
"510 -60 LINE",
"464 32 LINE",
"475 39 OFFCURVE",
"486 48 OFFCURVE",
"496 58 CURVE SMOOTH",
"543 105 OFFCURVE",
"575 166 OFFCURVE",
"575 350 CURVE SMOOTH",
"575 534 OFFCURVE",
"543 595 OFFCURVE",
"496 642 CURVE SMOOTH",
"447 691 OFFCURVE",
"379 712 OFFCURVE",
"310 712 CURVE SMOOTH",
"241 712 OFFCURVE",
"173 691 OFFCURVE",
"124 642 CURVE SMOOTH",
"77 595 OFFCURVE",
"45 534 OFFCURVE",
"45 350 CURVE SMOOTH",
"45 166 OFFCURVE",
"77 105 OFFCURVE",
"124 58 CURVE SMOOTH",
"173 9 OFFCURVE",
"241 -12 OFFCURVE",
"310 -12 CURVE SMOOTH",
"320 -12 OFFCURVE",
"330 -12 OFFCURVE",
"340 -11 CURVE",
"388 -115 LINE"
);
},
{
closed = 1;
nodes = (
"248 119 OFFCURVE",
"205 170 OFFCURVE",
"201 223 CURVE SMOOTH",
"198 259 OFFCURVE",
"196 304 OFFCURVE",
"196 350 CURVE SMOOTH",
"196 393 OFFCURVE",
"198 435 OFFCURVE",
"201 473 CURVE SMOOTH",
"206 537 OFFCURVE",
"249 574 OFFCURVE",
"310 574 CURVE SMOOTH",
"371 574 OFFCURVE",
"414 537 OFFCURVE",
"419 473 CURVE SMOOTH",
"422 435 OFFCURVE",
"424 393 OFFCURVE",
"424 350 CURVE SMOOTH",
"424 307 OFFCURVE",
"422 265 OFFCURVE",
"419 227 CURVE SMOOTH",
"417 209 OFFCURVE",
"413 189 OFFCURVE",
"402 176 CURVE",
"351 285 LINE",
"236 232 LINE",
"261 172 LINE",
"315 142 LINE SMOOTH",
"326 136 OFFCURVE",
"326 122 OFFCURVE",
"313 120 CURVE SMOOTH",
"308 119 OFFCURVE",
"302 119 OFFCURVE",
"297 119 CURVE SMOOTH"
);
}
);
width = 620;
},
{
anchors = (
{
name = bottom;
position = "{303, 0}";
},
{
name = top;
position = "{303, 670}";
}
);
layerId = "6DBC133B-A4A9-4EFF-965F-6B79E3B68C3E";
leftMetricsKey = "=O";
rightMetricsKey = "=O";
paths = (
{
closed = 1;
nodes = (
"495 -86 LINE",
"436 24 LINE",
"449 32 OFFCURVE",
"461 40 OFFCURVE",
"472 51 CURVE SMOOTH",
"515 94 OFFCURVE",
"546 162 OFFCURVE",
"546 350 CURVE SMOOTH",
"546 538 OFFCURVE",
"515 606 OFFCURVE",
"472 649 CURVE SMOOTH",
"432 690 OFFCURVE",
"375 712 OFFCURVE",
"303 712 CURVE SMOOTH",
"231 712 OFFCURVE",
"174 690 OFFCURVE",
"134 649 CURVE SMOOTH",
"91 606 OFFCURVE",
"60 538 OFFCURVE",
"60 350 CURVE SMOOTH",
"60 162 OFFCURVE",
"91 94 OFFCURVE",
"134 51 CURVE SMOOTH",
"174 10 OFFCURVE",
"231 -12 OFFCURVE",
"303 -12 CURVE SMOOTH",
"325 -12 OFFCURVE",
"347 -10 OFFCURVE",
"366 -6 CURVE",
"424 -118 LINE"
);
},
{
closed = 1;
nodes = (
"204 66 OFFCURVE",
"153 123 OFFCURVE",
"148 214 CURVE SMOOTH",
"144 272 OFFCURVE",
"142 308 OFFCURVE",
"142 350 CURVE SMOOTH",
"142 392 OFFCURVE",
"144 428 OFFCURVE",
"148 486 CURVE SMOOTH",
"153 577 OFFCURVE",
"204 634 OFFCURVE",
"303 634 CURVE SMOOTH",
"402 634 OFFCURVE",
"453 577 OFFCURVE",
"458 486 CURVE SMOOTH",
"462 428 OFFCURVE",
"464 392 OFFCURVE",
"464 350 CURVE SMOOTH",
"464 308 OFFCURVE",
"462 272 OFFCURVE",
"458 214 CURVE SMOOTH",
"455 161 OFFCURVE",
"437 120 OFFCURVE",
"402 94 CURVE",
"322 256 LINE",
"252 223 LINE",
"303 121 LINE",
"333 90 LINE SMOOTH",
"341 81 OFFCURVE",
"339 71 OFFCURVE",
"327 68 CURVE SMOOTH",
"319 67 OFFCURVE",
"311 66 OFFCURVE",
"303 66 CURVE SMOOTH"
);
}
);
width = 606;
}
);
leftKerningGroup = O;
leftMetricsKey = O;
rightKerningGroup = O;
rightMetricsKey = O;
unicode = 0051;
userData = {
com.schriftgestaltung.Glyphs.ColorIndex = 3;
com.schriftgestaltung.Glyphs.layer.leftMetricsKey = "==O";
com.schriftgestaltung.Glyphs.layer.rightMetricsKey = "==O";
com.schriftgestaltung.Glyphs.leftMetricsKey = O;
com.schriftgestaltung.Glyphs.rightMetricsKey = O;
};
},
{
color = 6;
glyphname = R;
lastChange = "2022-04-28 14:27:10 +0000";
layers = (
{
anchors = (
{
name = bottom;
position = "{300, 0}";
},
{
name = top;
position = "{300, 700}";
}
);
layerId = "BE73C5E5-17BA-4B8B-9704-EF1C804AF4CB";
leftMetricsKey = "=H";
paths = (
{
closed = 1;
nodes = (
"230 0 LINE",
"230 280 LINE",
"290 280 LINE",
"393 0 LINE",
"552 0 LINE",
"469 227 LINE",
"434 277 LINE SMOOTH",
"428 287 OFFCURVE",
"430 294 OFFCURVE",
"440 298 CURVE SMOOTH",
"523 331 OFFCURVE",
"570 401 OFFCURVE",
"570 490 CURVE SMOOTH",
"570 623 OFFCURVE",
"483 700 OFFCURVE",
"331 700 CURVE SMOOTH",
"70 700 LINE",
"70 0 LINE"
);
},
{
closed = 1;
nodes = (
"229 570 LINE",
"337 570 LINE SMOOTH",
"394 570 OFFCURVE",
"428 541 OFFCURVE",
"428 490 CURVE SMOOTH",
"428 439 OFFCURVE",
"394 410 OFFCURVE",
"337 410 CURVE SMOOTH",
"229 410 LINE"
);
}
);
width = 600;
},
{
anchors = (
{
name = bottom;
position = "{282, 0}";
},
{
name = top;
position = "{282, 670}";
}
);
layerId = "6DBC133B-A4A9-4EFF-965F-6B79E3B68C3E";
leftMetricsKey = "=H";
paths = (
{
closed = 1;
nodes = (
"170 0 LINE",
"170 311 LINE",
"307 311 LINE",
"420 0 LINE",
"509 0 LINE",
"417 253 LINE",
"388 301 LINE SMOOTH",
"382 311 OFFCURVE",
"383 318 OFFCURVE",
"392 320 CURVE SMOOTH",
"473 342 OFFCURVE",
"523 408 OFFCURVE",
"523 501 CURVE SMOOTH",
"523 628 OFFCURVE",
"446 700 OFFCURVE",
"318 700 CURVE SMOOTH",
"90 700 LINE",
"90 0 LINE"
);
},
{
closed = 1;
nodes = (
"170 630 LINE",
"318 630 LINE SMOOTH",
"394 630 OFFCURVE",
"441 584 OFFCURVE",
"441 501 CURVE SMOOTH",
"441 426 OFFCURVE",
"394 384 OFFCURVE",
"318 384 CURVE SMOOTH",
"170 384 LINE"
);
}
);
width = 563;
}
);
leftKerningGroup = H;
leftMetricsKey = H;
rightKerningGroup = R;
unicode = 0052;
userData = {
com.schriftgestaltung.Glyphs.ColorIndex = 3;
com.schriftgestaltung.Glyphs.layer.leftMetricsKey = "==H";
com.schriftgestaltung.Glyphs.leftMetricsKey = H;
};
},
{
color = 6;
glyphname = S;
lastChange = "2022-04-28 14:27:10 +0000";
layers = (
{
anchors = (
{
name = bottom;
position = "{260, 0}";
},
{
name = top;
position = "{260, 700}";
}
);
background = {
anchors = (
{
name = bottom;
position = "{427, 0}";
},
{
name = top;
position = "{427, 700}";
}
);
paths = (
{
closed = 1;
nodes = (
"412 572 LINE SMOOTH",
"360 572 OFFCURVE",
"325 545 OFFCURVE",
"325 501 CURVE SMOOTH",
"325 465 OFFCURVE",
"345 440 OFFCURVE",
"389 437 CURVE SMOOTH",
"464 432 LINE SMOOTH",
"577 424 OFFCURVE",
"662 343 OFFCURVE",
"662 219 CURVE SMOOTH",
"662 77 OFFCURVE",
"566 -10 OFFCURVE",
"445 -10 CURVE SMOOTH",
"356 -10 LINE SMOOTH",
"282 -10 OFFCURVE",
"224 12 OFFCURVE",
"175 62 CURVE",
"222 190 LINE",
"269 146 OFFCURVE",
"309 128 OFFCURVE",
"356 128 CURVE SMOOTH",
"420 128 LINE SMOOTH",
"475 128 OFFCURVE",
"512 154 OFFCURVE",
"512 216 CURVE SMOOTH",
"512 252 OFFCURVE",
"484 287 OFFCURVE",
"439 290 CURVE SMOOTH",
"359 295 LINE SMOOTH",
"267 300 OFFCURVE",
"175 365 OFFCURVE",
"175 493 CURVE SMOOTH",
"175 622 OFFCURVE",
"269 710 OFFCURVE",
"411 710 CURVE SMOOTH",
"471 710 LINE SMOOTH",
"540 710 OFFCURVE",
"596 685 OFFCURVE",
"630 655 CURVE",
"586 537 LINE",
"542 563 OFFCURVE",
"526 572 OFFCURVE",
"472 572 CURVE SMOOTH"
);
}
);
};
layerId = "BE73C5E5-17BA-4B8B-9704-EF1C804AF4CB";
paths = (
{
closed = 1;
nodes = (
"405 -10 OFFCURVE",
"495 68 OFFCURVE",
"495 217 CURVE SMOOTH",
"495 342 OFFCURVE",
"420 421 OFFCURVE",
"288 436 CURVE SMOOTH",
"248 441 LINE SMOOTH",
"207 446 OFFCURVE",
"184 466 OFFCURVE",
"184 505 CURVE SMOOTH",
"184 541 OFFCURVE",
"212 574 OFFCURVE",
"290 574 CURVE SMOOTH",
"342 574 OFFCURVE",
"389 562 OFFCURVE",
"436 537 CURVE",
"480 655 LINE",
"439 686 OFFCURVE",
"373 712 OFFCURVE",
"285 712 CURVE SMOOTH",
"117 712 OFFCURVE",
"34 626 OFFCURVE",
"34 495 CURVE SMOOTH",
"34 373 OFFCURVE",
"119 311 OFFCURVE",
"228 297 CURVE SMOOTH",
"265 292 LINE SMOOTH",
"318 285 OFFCURVE",
"345 255 OFFCURVE",
"345 210 CURVE SMOOTH",
"345 156 OFFCURVE",
"304 128 OFFCURVE",
"242 128 CURVE SMOOTH",
"176 128 OFFCURVE",
"133 143 OFFCURVE",
"71 180 CURVE",
"25 54 LINE",
"92 11 OFFCURVE",
"155 -10 OFFCURVE",
"246 -10 CURVE SMOOTH"
);
}
);
width = 520;
},
{
anchors = (
{
name = bottom;
position = "{252, 0}";
},
{
name = top;
position = "{252, 670}";
}
);
background = {
paths = (
{
closed = 1;
nodes = (
"389 562 OFFCURVE",
"346 574 OFFCURVE",
"290 574 CURVE SMOOTH",
"204 574 OFFCURVE",
"174 537 OFFCURVE",
"174 499 CURVE SMOOTH",
"174 463 OFFCURVE",
"196 444 OFFCURVE",
"238 441 CURVE SMOOTH",
"311 435 LINE SMOOTH",
"434 425 OFFCURVE",
"509 341 OFFCURVE",
"509 224 CURVE SMOOTH",
"509 82 OFFCURVE",
"419 -10 OFFCURVE",
"249 -10 CURVE SMOOTH",
"154 -10 OFFCURVE",
"93 11 OFFCURVE",
"23 64 CURVE",
"69 190 LINE",
"135 143 OFFCURVE",
"175 128 OFFCURVE",
"245 128 CURVE SMOOTH",
"318 128 OFFCURVE",
"359 160 OFFCURVE",
"359 218 CURVE SMOOTH",
"359 259 OFFCURVE",
"335 287 OFFCURVE",
"280 292 CURVE SMOOTH",
"210 298 LINE SMOOTH",
"103 307 OFFCURVE",
"24 377 OFFCURVE",
"24 489 CURVE SMOOTH",
"24 615 OFFCURVE",
"112 712 OFFCURVE",
"285 712 CURVE SMOOTH",
"378 712 OFFCURVE",
"435 686 OFFCURVE",
"483 655 CURVE",
"439 537 LINE"
);
}
);
};
layerId = "6DBC133B-A4A9-4EFF-965F-6B79E3B68C3E";
paths = (
{
closed = 1;
nodes = (
"382 -10 OFFCURVE",
"465 80 OFFCURVE",
"465 201 CURVE SMOOTH",
"465 310 OFFCURVE",
"400 388 OFFCURVE",
"279 401 CURVE SMOOTH",
"231 406 LINE SMOOTH",
"167 413 OFFCURVE",
"125 447 OFFCURVE",
"125 518 CURVE SMOOTH",
"125 587 OFFCURVE",
"178 635 OFFCURVE",
"274 635 CURVE SMOOTH",
"322 635 OFFCURVE",
"376 623 OFFCURVE",
"424 590 CURVE",
"449 660 LINE",
"395 694 OFFCURVE",
"332 710 OFFCURVE",
"273 710 CURVE SMOOTH",
"131 710 OFFCURVE",
"43 626 OFFCURVE",
"43 513 CURVE SMOOTH",
"43 404 OFFCURVE",
"109 340 OFFCURVE",
"221 328 CURVE SMOOTH",
"269 323 LINE SMOOTH",
"353 314 OFFCURVE",
"384 260 OFFCURVE",
"384 196 CURVE SMOOTH",
"384 120 OFFCURVE",
"336 67 OFFCURVE",
"241 67 CURVE SMOOTH",
"179 67 OFFCURVE",
"116 89 OFFCURVE",
"72 128 CURVE",
"42 58 LINE",
"91 17 OFFCURVE",
"168 -10 OFFCURVE",
"245 -10 CURVE SMOOTH"
);
}
);
width = 503;
}
);
leftKerningGroup = S;
rightKerningGroup = S;
unicode = 0053;
userData = {
com.schriftgestaltung.Glyphs.ColorIndex = 3;
com.typemytype.robofont.layerData = {
background = {
anchors = (
);
components = (
);
contours = (
{
points = (
{
smooth = 0;
x = 389;
y = 562;
},
{
smooth = 0;
x = 346;
y = 574;
},
{
segmentType = curve;
smooth = 1;
x = 290;
y = 574;
},
{
smooth = 0;
x = 204;
y = 574;
},
{
smooth = 0;
x = 174;
y = 537;
},
{
segmentType = curve;
smooth = 1;
x = 174;
y = 499;
},
{
smooth = 0;
x = 174;
y = 463;
},
{
smooth = 0;
x = 196;
y = 444;
},
{
segmentType = curve;
smooth = 1;
x = 238;
y = 441;
},
{
segmentType = line;
smooth = 1;
x = 311;
y = 435;
},
{
smooth = 0;
x = 434;
y = 425;
},
{
smooth = 0;
x = 509;
y = 341;
},
{
segmentType = curve;
smooth = 1;
x = 509;
y = 224;
},
{
smooth = 0;
x = 509;
y = 82;
},
{
smooth = 0;
x = 419;
y = -10;
},
{
segmentType = curve;
smooth = 1;
x = 249;
y = -10;
},
{
smooth = 0;
x = 154;
y = -10;
},
{
smooth = 0;
x = 93;
y = 11;
},
{
segmentType = curve;
smooth = 0;
x = 23;
y = 64;
},
{
segmentType = line;
smooth = 0;
x = 69;
y = 190;
},
{
smooth = 0;
x = 135;
y = 143;
},
{
smooth = 0;
x = 175;
y = 128;
},
{
segmentType = curve;
smooth = 1;
x = 245;
y = 128;
},
{
smooth = 0;
x = 318;
y = 128;
},
{
smooth = 0;
x = 359;
y = 160;
},
{
segmentType = curve;
smooth = 1;
x = 359;
y = 218;
},
{
smooth = 0;
x = 359;
y = 259;
},
{
smooth = 0;
x = 335;
y = 287;
},
{
segmentType = curve;
smooth = 1;
x = 280;
y = 292;
},
{
segmentType = line;
smooth = 1;
x = 210;
y = 298;
},
{
smooth = 0;
x = 103;
y = 307;
},
{
smooth = 0;
x = 24;
y = 377;
},
{
segmentType = curve;
smooth = 1;
x = 24;
y = 489;
},
{
smooth = 0;
x = 24;
y = 615;
},
{
smooth = 0;
x = 112;
y = 712;
},
{
segmentType = curve;
smooth = 1;
x = 285;
y = 712;
},
{
smooth = 0;
x = 378;
y = 712;
},
{
smooth = 0;
x = 435;
y = 686;
},
{
segmentType = curve;
smooth = 0;
x = 483;
y = 655;
},
{
segmentType = line;
smooth = 0;
x = 439;
y = 537;
}
);
}
);
lib = {
};
name = S;
unicodes = (
);
width = 503;
};
};
};
},
{
color = 6;
glyphname = T;
lastChange = "2022-04-28 14:27:10 +0000";
layers = (
{
anchors = (
{
name = bottom;
position = "{251, 0}";
},
{
name = center;
position = "{255, 350}";
},
{
name = top;
position = "{255, 700}";
}
);
layerId = "BE73C5E5-17BA-4B8B-9704-EF1C804AF4CB";
paths = (
{
closed = 1;
nodes = (
"335 0 LINE",
"335 560 LINE",
"490 560 LINE",
"490 700 LINE",
"20 700 LINE",
"20 560 LINE",
"175 560 LINE",
"175 0 LINE"
);
}
);
width = 510;
},
{
anchors = (
{
name = bottom;
position = "{244, 0}";
},
{
name = center;
position = "{244, 350}";
},
{
name = top;
position = "{244, 670}";
}
);
layerId = "6DBC133B-A4A9-4EFF-965F-6B79E3B68C3E";
paths = (
{
closed = 1;
nodes = (
"285 0 LINE",
"285 622 LINE",
"458 622 LINE",
"458 700 LINE",
"30 700 LINE",
"30 622 LINE",
"202 622 LINE",
"202 0 LINE"
);
}
);
width = 488;
}
);
leftKerningGroup = T;
rightKerningGroup = T;
unicode = 0054;
userData = {
com.schriftgestaltung.Glyphs.ColorIndex = 3;
};
},
{
color = 6;
glyphname = U;
lastChange = "2022-04-28 14:27:10 +0000";
layers = (
{
anchors = (
{
name = bottom;
position = "{302, 0}";
},
{
name = ogonek;
position = "{379, 0}";
},
{
name = top;
position = "{302, 700}";
},
{
name = topright;
position = "{584, 700}";
}
);
layerId = "BE73C5E5-17BA-4B8B-9704-EF1C804AF4CB";
paths = (
{
closed = 1;
nodes = (
"443 -10 OFFCURVE",
"540 82 OFFCURVE",
"541 216 CURVE SMOOTH",
"544 700 LINE",
"384 700 LINE",
"384 213 LINE SMOOTH",
"384 164 OFFCURVE",
"349 131 OFFCURVE",
"302 131 CURVE SMOOTH",
"253 131 OFFCURVE",
"220 164 OFFCURVE",
"220 213 CURVE SMOOTH",
"220 700 LINE",
"60 700 LINE",
"60 216 LINE SMOOTH",
"60 82 OFFCURVE",
"159 -10 OFFCURVE",
"302 -10 CURVE SMOOTH"
);
}
);
width = 604;
},
{
anchors = (
{
name = bottom;
position = "{305, 0}";
},
{
name = ogonek;
position = "{377, 0}";
},
{
name = top;
position = "{305, 670}";
},
{
name = topright;
position = "{589, 700}";
}
);
layerId = "6DBC133B-A4A9-4EFF-965F-6B79E3B68C3E";
paths = (
{
closed = 1;
nodes = (
"434 -10 OFFCURVE",
"523 76 OFFCURVE",
"523 201 CURVE SMOOTH",
"524 700 LINE",
"440 700 LINE",
"440 201 LINE SMOOTH",
"440 121 OFFCURVE",
"385 66 OFFCURVE",
"304 66 CURVE SMOOTH",
"223 66 OFFCURVE",
"168 121 OFFCURVE",
"168 201 CURVE SMOOTH",
"169 700 LINE",
"85 700 LINE",
"85 201 LINE SMOOTH",
"85 76 OFFCURVE",
"174 -10 OFFCURVE",
"304 -10 CURVE SMOOTH"
);
}
);
width = 609;
}
);
leftKerningGroup = U;
rightKerningGroup = U;
unicode = 0055;
userData = {
com.schriftgestaltung.Glyphs.ColorIndex = 3;
};
},
{
color = 6;
glyphname = V;
lastChange = "2022-04-28 14:27:10 +0000";
layers = (
{
anchors = (
{
name = bottom;
position = "{281, 0}";
},
{
name = top;
position = "{281, 700}";
}
);
layerId = "BE73C5E5-17BA-4B8B-9704-EF1C804AF4CB";
paths = (
{
closed = 1;
nodes = (
"385 0 LINE",
"541 700 LINE",
"384 700 LINE",
"294 227 LINE",
"287 137 LINE SMOOTH",
"286 125 OFFCURVE",
"271 125 OFFCURVE",
"270 137 CURVE SMOOTH",
"264 227 LINE",
"178 700 LINE",
"20 700 LINE",
"172 0 LINE"
);
}
);
width = 561;
},
{
anchors = (
{
name = bottom;
position = "{268, 0}";
},
{
name = top;
position = "{268, 670}";
}
);
layerId = "6DBC133B-A4A9-4EFF-965F-6B79E3B68C3E";
paths = (
{
closed = 1;
nodes = (
"331 0 LINE",
"516 700 LINE",
"431 700 LINE",
"283 126 LINE",
"275 73 LINE SMOOTH",
"274 65 OFFCURVE",
"263 65 OFFCURVE",
"262 73 CURVE SMOOTH",
"253 126 LINE",
"105 700 LINE",
"20 700 LINE",
"204 0 LINE"
);
}
);
width = 536;
}
);
leftKerningGroup = V;
rightKerningGroup = V;
unicode = 0056;
userData = {
com.schriftgestaltung.Glyphs.ColorIndex = 3;
};
},
{
color = 6;
glyphname = W;
lastChange = "2022-04-28 14:27:10 +0000";
layers = (
{
anchors = (
{
name = bottom;
position = "{320, 0}";
},
{
name = top;
position = "{320, 700}";
}
);
layerId = "BE73C5E5-17BA-4B8B-9704-EF1C804AF4CB";
paths = (
{
closed = 1;
nodes = (
"247 0 LINE",
"311 247 LINE SMOOTH",
"314 257 OFFCURVE",
"326 257 OFFCURVE",
"329 247 CURVE SMOOTH",
"393 0 LINE",
"533 0 LINE",
"610 700 LINE",
"467 700 LINE",
"434 400 LINE",
"434 292 LINE SMOOTH",
"434 276 OFFCURVE",
"420 278 OFFCURVE",
"417 288 CURVE SMOOTH",
"356 510 LINE",
"284 510 LINE",
"223 288 LINE SMOOTH",
"220 278 OFFCURVE",
"206 277 OFFCURVE",
"206 292 CURVE SMOOTH",
"206 400 LINE",
"173 700 LINE",
"30 700 LINE",
"107 0 LINE"
);
}
);
width = 640;
},
{
anchors = (
{
name = bottom;
position = "{308, 0}";
},
{
name = top;
position = "{308, 670}";
}
);
layerId = "6DBC133B-A4A9-4EFF-965F-6B79E3B68C3E";
paths = (
{
closed = 1;
nodes = (
"218 0 LINE",
"298 309 LINE SMOOTH",
"302 325 OFFCURVE",
"314 325 OFFCURVE",
"318 309 CURVE SMOOTH",
"397 0 LINE",
"480 0 LINE",
"590 700 LINE",
"518 700 LINE",
"436 199 LINE",
"434 148 LINE SMOOTH",
"434 136 OFFCURVE",
"423 134 OFFCURVE",
"420 146 CURVE SMOOTH",
"336 500 LINE",
"279 500 LINE",
"195 146 LINE SMOOTH",
"192 134 OFFCURVE",
"181 136 OFFCURVE",
"181 148 CURVE SMOOTH",
"179 199 LINE",
"98 700 LINE",
"25 700 LINE",
"135 0 LINE"
);
}
);
width = 615;
}
);
leftKerningGroup = W;
rightKerningGroup = W;
unicode = 0057;
userData = {
com.schriftgestaltung.Glyphs.ColorIndex = 3;
};
},
{
color = 6;
glyphname = X;
lastChange = "2022-04-28 14:27:10 +0000";
layers = (
{
anchors = (
{
name = bottom;
position = "{285, 0}";
},
{
name = top;
position = "{285, 700}";
}
);
layerId = "BE73C5E5-17BA-4B8B-9704-EF1C804AF4CB";
leftMetricsKey = "=V";
rightMetricsKey = "=V";
paths = (
{
closed = 1;
nodes = (
"189 0 LINE",
"265 214 LINE",
"276 292 LINE SMOOTH",
"278 304 OFFCURVE",
"289 304 OFFCURVE",
"293 292 CURVE",
"305 214 LINE",
"381 0 LINE",
"550 0 LINE",
"405 355 LINE",
"550 700 LINE",
"381 700 LINE",
"305 496 LINE",
"293 418 LINE",
"289 406 OFFCURVE",
"278 406 OFFCURVE",
"276 418 CURVE SMOOTH",
"265 496 LINE",
"189 700 LINE",
"20 700 LINE",
"163 355 LINE",
"20 0 LINE"
);
}
);
width = 570;
},
{
anchors = (
{
name = bottom;
position = "{261, 0}";
},
{
name = top;
position = "{261, 670}";
}
);
layerId = "6DBC133B-A4A9-4EFF-965F-6B79E3B68C3E";
leftMetricsKey = "=V";
rightMetricsKey = "=V";
paths = (
{
closed = 1;
nodes = (
"114 0 LINE",
"241 255 LINE",
"254 296 LINE SMOOTH",
"256 303 OFFCURVE",
"266 303 OFFCURVE",
"268 296 CURVE SMOOTH",
"281 255 LINE",
"408 0 LINE",
"502 0 LINE",
"316 350 LINE",
"502 700 LINE",
"408 700 LINE",
"281 445 LINE",
"268 404 LINE SMOOTH",
"266 397 OFFCURVE",
"256 397 OFFCURVE",
"254 404 CURVE SMOOTH",
"241 445 LINE",
"114 700 LINE",
"20 700 LINE",
"206 350 LINE",
"20 0 LINE"
);
}
);
width = 522;
}
);
leftKerningGroup = X;
leftMetricsKey = T;
rightKerningGroup = X;
rightMetricsKey = T;
unicode = 0058;
userData = {
com.schriftgestaltung.Glyphs.ColorIndex = 3;
com.schriftgestaltung.Glyphs.layer.leftMetricsKey = "==V";
com.schriftgestaltung.Glyphs.layer.rightMetricsKey = "==V";
com.schriftgestaltung.Glyphs.leftMetricsKey = T;
com.schriftgestaltung.Glyphs.rightMetricsKey = T;
};
},
{
color = 6;
glyphname = Y;
lastChange = "2022-04-28 14:27:10 +0000";
layers = (
{
anchors = (
{
name = bottom;
position = "{254, 0}";
},
{
name = top;
position = "{254, 700}";
},
{
name = topleft;
position = "{20, 700}";
}
);
layerId = "BE73C5E5-17BA-4B8B-9704-EF1C804AF4CB";
paths = (
{
closed = 1;
nodes = (
"334 0 LINE",
"334 255 LINE",
"508 700 LINE",
"349 700 LINE",
"275 500 LINE",
"263 422 LINE",
"259 410 OFFCURVE",
"248 410 OFFCURVE",
"246 422 CURVE SMOOTH",
"235 500 LINE",
"161 700 LINE",
"0 700 LINE",
"174 255 LINE",
"174 0 LINE"
);
}
);
width = 508;
},
{
anchors = (
{
name = bottom;
position = "{241, 0}";
},
{
name = top;
position = "{241, 670}";
},
{
name = topleft;
position = "{20, 700}";
}
);
layerId = "6DBC133B-A4A9-4EFF-965F-6B79E3B68C3E";
paths = (
{
closed = 1;
nodes = (
"281 0 LINE",
"281 330 LINE",
"482 700 LINE",
"388 700 LINE",
"261 445 LINE",
"248 404 LINE SMOOTH",
"246 397 OFFCURVE",
"236 397 OFFCURVE",
"234 404 CURVE SMOOTH",
"221 445 LINE",
"94 700 LINE",
"0 700 LINE",
"201 330 LINE",
"201 0 LINE"
);
}
);
width = 482;
}
);
leftKerningGroup = Y;
rightKerningGroup = Y;
unicode = 0059;
userData = {
com.schriftgestaltung.Glyphs.ColorIndex = 3;
};
},
{
color = 6;
glyphname = Z;
lastChange = "2022-04-28 14:27:10 +0000";
layers = (
{
anchors = (
{
name = bottom;
position = "{264, 0}";
},
{
name = top;
position = "{264, 700}";
}
);
layerId = "BE73C5E5-17BA-4B8B-9704-EF1C804AF4CB";
leftMetricsKey = "=H/2";
rightMetricsKey = "=H/2";
paths = (
{
closed = 1;
nodes = (
"502 0 LINE",
"502 140 LINE",
"223 140 LINE SMOOTH",
"212 140 OFFCURVE",
"209 150 OFFCURVE",
"217 158 CURVE SMOOTH",
"252 190 LINE",
"502 602 LINE",
"502 700 LINE",
"35 700 LINE",
"35 504 LINE",
"180 504 LINE",
"180 570 LINE",
"315 570 LINE SMOOTH",
"326 570 OFFCURVE",
"329 560 OFFCURVE",
"321 552 CURVE SMOOTH",
"286 520 LINE",
"35 98 LINE",
"35 0 LINE"
);
}
);
width = 537;
},
{
anchors = (
{
name = bottom;
position = "{254, 0}";
},
{
name = top;
position = "{254, 670}";
}
);
layerId = "6DBC133B-A4A9-4EFF-965F-6B79E3B68C3E";
leftMetricsKey = "=H/2";
rightMetricsKey = "=H/2";
paths = (
{
closed = 1;
nodes = (
"462 0 LINE",
"462 78 LINE",
"155 78 LINE SMOOTH",
"150 78 OFFCURVE",
"147 82 OFFCURVE",
"152 89 CURVE SMOOTH",
"185 136 LINE",
"462 652 LINE",
"462 700 LINE",
"55 700 LINE",
"55 547 LINE",
"128 547 LINE",
"128 630 LINE",
"356 630 LINE SMOOTH",
"363 630 OFFCURVE",
"365 626 OFFCURVE",
"360 619 CURVE SMOOTH",
"327 572 LINE",
"45 48 LINE",
"45 0 LINE"
);
}
);
width = 507;
}
);
leftKerningGroup = Z;
rightKerningGroup = Z;
unicode = 005A;
userData = {
com.schriftgestaltung.Glyphs.ColorIndex = 3;
com.schriftgestaltung.Glyphs.layer.leftMetricsKey = "==H/2";
com.schriftgestaltung.Glyphs.layer.rightMetricsKey = "==H/2";
};
},
{
color = 6;
glyphname = A.ss01;
lastChange = "2022-04-28 14:27:10 +0000";
layers = (
{
anchors = (
{
name = bottom;
position = "{305, 0}";
},
{
name = ogonek;
position = "{549, 10}";
},
{
name = top;
position = "{305, 700}";
}
);
layerId = "BE73C5E5-17BA-4B8B-9704-EF1C804AF4CB";
leftMetricsKey = "=A";
rightMetricsKey = "=A";
paths = (
{
closed = 1;
nodes = (
"189 0 LINE",
"223 162 LINE",
"397 162 LINE",
"431 0 LINE",
"590 0 LINE",
"420 700 LINE",
"200 700 LINE",
"30 0 LINE"
);
},
{
closed = 1;
nodes = (
"294 487 LINE",
"301 563 LINE SMOOTH",
"302 574 OFFCURVE",
"318 574 OFFCURVE",
"319 563 CURVE SMOOTH",
"326 487 LINE",
"367 292 LINE",
"252 292 LINE"
);
}
);
width = 610;
},
{
anchors = (
{
name = bottom;
position = "{283, 0}";
},
{
name = ogonek;
position = "{509, 10}";
},
{
name = top;
position = "{283, 670}";
}
);
layerId = "6DBC133B-A4A9-4EFF-965F-6B79E3B68C3E";
leftMetricsKey = "=A";
rightMetricsKey = "=A";
paths = (
{
closed = 1;
nodes = (
"115 0 LINE",
"166 187 LINE",
"410 187 LINE",
"461 0 LINE",
"546 0 LINE",
"351 700 LINE",
"224 700 LINE",
"30 0 LINE"
);
},
{
closed = 1;
nodes = (
"273 574 LINE",
"282 627 LINE",
"283 635 OFFCURVE",
"294 635 OFFCURVE",
"295 627 CURVE SMOOTH",
"303 574 LINE",
"389 261 LINE",
"187 261 LINE"
);
}
);
width = 566;
}
);
leftKerningGroup = A.ss01;
leftMetricsKey = A;
rightKerningGroup = A.ss01;
rightMetricsKey = A;
userData = {
com.schriftgestaltung.Glyphs.layer.leftMetricsKey = "==A";
com.schriftgestaltung.Glyphs.layer.rightMetricsKey = "==A";
com.schriftgestaltung.Glyphs.leftMetricsKey = A;
com.schriftgestaltung.Glyphs.rightMetricsKey = A;
};
},
{
color = 6;
glyphname = G.ss01;
lastChange = "2022-04-28 14:27:10 +0000";
layers = (
{
anchors = (
{
name = bottom;
position = "{286, 0}";
},
{
name = top;
position = "{286, 700}";
}
);
layerId = "BE73C5E5-17BA-4B8B-9704-EF1C804AF4CB";
leftMetricsKey = "=O";
paths = (
{
closed = 1;
nodes = (
"415 -8 OFFCURVE",
"483 14 OFFCURVE",
"526 44 CURVE",
"526 420 LINE",
"298 420 LINE",
"298 280 LINE",
"386 280 LINE",
"386 138 LINE",
"360 132 OFFCURVE",
"332 130 OFFCURVE",
"304 130 CURVE SMOOTH",
"241 131 OFFCURVE",
"206 165 OFFCURVE",
"201 230 CURVE SMOOTH",
"198 276 OFFCURVE",
"196 310 OFFCURVE",
"196 350 CURVE SMOOTH",
"196 390 OFFCURVE",
"198 425 OFFCURVE",
"201 461 CURVE SMOOTH",
"208 531 OFFCURVE",
"240 572 OFFCURVE",
"323 572 CURVE SMOOTH",
"374 572 OFFCURVE",
"424 563 OFFCURVE",
"463 526 CURVE",
"512 651 LINE",
"461 691 OFFCURVE",
"393 712 OFFCURVE",
"323 712 CURVE SMOOTH",
"171 712 OFFCURVE",
"68 634 OFFCURVE",
"51 486 CURVE SMOOTH",
"47 447 OFFCURVE",
"45 392 OFFCURVE",
"45 350 CURVE SMOOTH",
"45 308 OFFCURVE",
"48 253 OFFCURVE",
"51 214 CURVE SMOOTH",
"63 67 OFFCURVE",
"155 -12 OFFCURVE",
"314 -10 CURVE SMOOTH"
);
}
);
width = 581;
},
{
anchors = (
{
name = bottom;
position = "{281, 0}";
},
{
name = top;
position = "{281, 700}";
}
);
layerId = "6DBC133B-A4A9-4EFF-965F-6B79E3B68C3E";
leftMetricsKey = "=O";
paths = (
{
closed = 1;
nodes = (
"395 -12 OFFCURVE",
"446 7 OFFCURVE",
"496 42 CURVE",
"496 389 LINE",
"282 389 LINE",
"282 311 LINE",
"413 311 LINE",
"413 84 LINE",
"395 72 OFFCURVE",
"352 66 OFFCURVE",
"315 66 CURVE SMOOTH",
"211 66 OFFCURVE",
"153 126 OFFCURVE",
"147 224 CURVE SMOOTH",
"144 272 OFFCURVE",
"142 308 OFFCURVE",
"142 350 CURVE SMOOTH",
"142 392 OFFCURVE",
"144 428 OFFCURVE",
"147 476 CURVE SMOOTH",
"154 584 OFFCURVE",
"215 634 OFFCURVE",
"316 634 CURVE SMOOTH",
"379 634 OFFCURVE",
"423 618 OFFCURVE",
"468 580 CURVE",
"494 651 LINE",
"450 690 OFFCURVE",
"385 712 OFFCURVE",
"316 712 CURVE SMOOTH",
"171 712 OFFCURVE",
"80 641 OFFCURVE",
"65 486 CURVE SMOOTH",
"62 447 OFFCURVE",
"60 392 OFFCURVE",
"60 350 CURVE SMOOTH",
"60 308 OFFCURVE",
"63 253 OFFCURVE",
"66 214 CURVE SMOOTH",
"79 69 OFFCURVE",
"167 -12 OFFCURVE",
"315 -12 CURVE SMOOTH"
);
}
);
width = 561;
}
);
leftKerningGroup = G.ss01;
leftMetricsKey = O;
rightKerningGroup = G.ss01;
userData = {
com.schriftgestaltung.Glyphs.layer.leftMetricsKey = "==O";
com.schriftgestaltung.Glyphs.leftMetricsKey = O;
};
},
{
color = 6;
glyphname = I.ss01;
lastChange = "2022-04-28 14:27:10 +0000";
layers = (
{
anchors = (
{
name = bottom;
position = "{150, 0}";
},
{
name = ogonek;
position = "{270, 10}";
},
{
name = top;
position = "{150, 700}";
},
{
name = topleft;
position = "{20, 700}";
}
);
layerId = "BE73C5E5-17BA-4B8B-9704-EF1C804AF4CB";
leftMetricsKey = "=H";
rightMetricsKey = "=H";
paths = (
{
closed = 1;
nodes = (
"230 0 LINE",
"230 700 LINE",
"70 700 LINE",
"70 0 LINE"
);
}
);
width = 300;
},
{
anchors = (
{
name = bottom;
position = "{132, 0}";
},
{
name = ogonek;
position = "{237, 10}";
},
{
name = top;
position = "{132, 670}";
},
{
name = topleft;
position = "{20, 700}";
}
);
layerId = "6DBC133B-A4A9-4EFF-965F-6B79E3B68C3E";
leftMetricsKey = "=H";
rightMetricsKey = "=H";
paths = (
{
closed = 1;
nodes = (
"173 0 LINE",
"173 700 LINE",
"90 700 LINE",
"90 0 LINE"
);
}
);
width = 263;
}
);
leftKerningGroup = H;
leftMetricsKey = H;
rightKerningGroup = H;
rightMetricsKey = H;
userData = {
com.schriftgestaltung.Glyphs.layer.leftMetricsKey = "==H";
com.schriftgestaltung.Glyphs.layer.rightMetricsKey = "==H";
com.schriftgestaltung.Glyphs.leftMetricsKey = H;
com.schriftgestaltung.Glyphs.rightMetricsKey = h;
};
},
{
color = 6;
glyphname = J.ss01;
lastChange = "2022-04-28 14:27:10 +0000";
layers = (
{
anchors = (
{
name = bottom;
position = "{223, 0}";
},
{
name = top;
position = "{300, 700}";
}
);
layerId = "BE73C5E5-17BA-4B8B-9704-EF1C804AF4CB";
rightMetricsKey = "=U";
paths = (
{
closed = 1;
nodes = (
"343 -12 OFFCURVE",
"386 100 OFFCURVE",
"386 194 CURVE SMOOTH",
"386 700 LINE",
"226 700 LINE",
"226 194 LINE SMOOTH",
"226 162 OFFCURVE",
"219 130 OFFCURVE",
"163 130 CURVE SMOOTH",
"134 130 OFFCURVE",
"107 136 OFFCURVE",
"80 150 CURVE",
"55 16 LINE",
"84 -2 OFFCURVE",
"124 -12 OFFCURVE",
"161 -12 CURVE SMOOTH"
);
}
);
width = 446;
},
{
anchors = (
{
name = bottom;
position = "{195, 0}";
},
{
name = top;
position = "{260, 670}";
}
);
layerId = "6DBC133B-A4A9-4EFF-965F-6B79E3B68C3E";
rightMetricsKey = "=U";
paths = (
{
closed = 1;
nodes = (
"244 -12 OFFCURVE",
"305 46 OFFCURVE",
"305 138 CURVE SMOOTH",
"305 700 LINE",
"223 700 LINE",
"223 138 LINE SMOOTH",
"223 91 OFFCURVE",
"195 61 OFFCURVE",
"151 61 CURVE SMOOTH",
"117 61 OFFCURVE",
"81 78 OFFCURVE",
"57 104 CURVE",
"20 41 LINE",
"56 8 OFFCURVE",
"105 -12 OFFCURVE",
"148 -12 CURVE SMOOTH"
);
}
);
width = 390;
}
);
leftKerningGroup = J.ss01;
rightKerningGroup = J.ss01;
rightMetricsKey = U;
userData = {
com.schriftgestaltung.Glyphs.layer.rightMetricsKey = "==U";
com.schriftgestaltung.Glyphs.rightMetricsKey = U;
};
},
{
color = 6;
glyphname = Z.ss01;
lastChange = "2022-04-28 14:27:10 +0000";
layers = (
{
anchors = (
{
name = bottom;
position = "{264, 0}";
},
{
name = top;
position = "{264, 700}";
}
);
layerId = "BE73C5E5-17BA-4B8B-9704-EF1C804AF4CB";
leftMetricsKey = "=Z";
rightMetricsKey = "=Z";
paths = (
{
closed = 1;
nodes = (
"502 0 LINE",
"502 130 LINE",
"218 130 LINE",
"218 142 LINE",
"502 602 LINE",
"502 700 LINE",
"35 700 LINE",
"35 570 LINE",
"319 570 LINE",
"319 558 LINE",
"35 98 LINE",
"35 0 LINE"
);
}
);
width = 537;
},
{
anchors = (
{
name = bottom;
position = "{254, 0}";
},
{
name = top;
position = "{254, 670}";
}
);
layerId = "6DBC133B-A4A9-4EFF-965F-6B79E3B68C3E";
leftMetricsKey = "=Z";
rightMetricsKey = "=Z";
paths = (
{
closed = 1;
nodes = (
"462 0 LINE",
"462 78 LINE",
"153 78 LINE",
"153 88 LINE",
"462 652 LINE",
"462 700 LINE",
"45 700 LINE",
"45 622 LINE",
"353 622 LINE",
"353 612 LINE",
"45 48 LINE",
"45 0 LINE"
);
}
);
width = 507;
}
);
leftKerningGroup = Z.ss01;
leftMetricsKey = Z;
rightKerningGroup = Z.ss01;
rightMetricsKey = Z;
userData = {
com.schriftgestaltung.Glyphs.layer.leftMetricsKey = "==Z";
com.schriftgestaltung.Glyphs.layer.rightMetricsKey = "==Z";
com.schriftgestaltung.Glyphs.leftMetricsKey = Z;
com.schriftgestaltung.Glyphs.rightMetricsKey = Z;
};
},
{
color = 6;
glyphname = a;
lastChange = "2022-04-28 14:27:10 +0000";
layers = (
{
anchors = (
{
name = bottom;
position = "{253, 0}";
},
{
name = ogonek;
position = "{485, 63}";
},
{
name = top;
position = "{253, 510}";
}
);
background = {
components = (
{
name = n;
}
);
};
layerId = "BE73C5E5-17BA-4B8B-9704-EF1C804AF4CB";
paths = (
{
closed = 1;
nodes = (
"485 63 LINE",
"432 139 LINE",
"432 339 LINE SMOOTH",
"432 445 OFFCURVE",
"365 522 OFFCURVE",
"220 522 CURVE SMOOTH",
"153 522 OFFCURVE",
"93 503 OFFCURVE",
"41 473 CURVE",
"82 361 LINE",
"123 385 OFFCURVE",
"164 401 OFFCURVE",
"209 401 CURVE SMOOTH",
"269 401 OFFCURVE",
"298 379 OFFCURVE",
"298 338 CURVE SMOOTH",
"298 289 LINE",
"211 289 LINE SMOOTH",
"112 289 OFFCURVE",
"35 238 OFFCURVE",
"35 142 CURVE SMOOTH",
"35 55 OFFCURVE",
"94 -8 OFFCURVE",
"192 -8 CURVE SMOOTH",
"246 -8 OFFCURVE",
"284 10 OFFCURVE",
"315 34 CURVE",
"323 41 OFFCURVE",
"331 40 OFFCURVE",
"338 31 CURVE SMOOTH",
"370 -12 LINE"
);
},
{
closed = 1;
nodes = (
"190 97 OFFCURVE",
"165 118 OFFCURVE",
"165 144 CURVE SMOOTH",
"165 169 OFFCURVE",
"181 184 OFFCURVE",
"213 184 CURVE SMOOTH",
"244 184 LINE",
"280 195 LINE SMOOTH",
"291 198 OFFCURVE",
"298 195 OFFCURVE",
"298 187 CURVE SMOOTH",
"298 174 LINE SMOOTH",
"298 129 OFFCURVE",
"270 97 OFFCURVE",
"224 97 CURVE SMOOTH"
);
}
);
width = 505;
},
{
anchors = (
{
name = bottom;
position = "{243, 0}";
},
{
name = ogonek;
position = "{441, 28}";
},
{
name = top;
position = "{243, 500}";
}
);
background = {
components = (
{
name = n;
transform = "{1, 0, 0, 1, -5, 0}";
}
);
};
layerId = "6DBC133B-A4A9-4EFF-965F-6B79E3B68C3E";
paths = (
{
closed = 1;
nodes = (
"446 32 LINE",
"403 96 LINE",
"403 351 LINE SMOOTH",
"403 443 OFFCURVE",
"345 512 OFFCURVE",
"227 512 CURVE SMOOTH",
"164 512 OFFCURVE",
"115 498 OFFCURVE",
"64 459 CURVE",
"89 389 LINE",
"132 422 OFFCURVE",
"170 437 OFFCURVE",
"222 437 CURVE SMOOTH",
"294 437 OFFCURVE",
"326 399 OFFCURVE",
"326 342 CURVE SMOOTH",
"326 270 LINE",
"209 270 LINE SMOOTH",
"112 270 OFFCURVE",
"50 219 OFFCURVE",
"50 130 CURVE SMOOTH",
"50 46 OFFCURVE",
"110 -11 OFFCURVE",
"205 -11 CURVE SMOOTH",
"263 -11 OFFCURVE",
"294 11 OFFCURVE",
"326 39 CURVE SMOOTH",
"331 43 OFFCURVE",
"336 43 OFFCURVE",
"340 37 CURVE SMOOTH",
"373 -12 LINE"
);
},
{
closed = 1;
nodes = (
"161 58 OFFCURVE",
"130 89 OFFCURVE",
"130 133 CURVE SMOOTH",
"130 176 OFFCURVE",
"162 200 OFFCURVE",
"215 200 CURVE SMOOTH",
"253 200 LINE",
"308 212 LINE SMOOTH",
"319 215 OFFCURVE",
"326 209 OFFCURVE",
"326 198 CURVE SMOOTH",
"326 153 LINE SMOOTH",
"326 95 OFFCURVE",
"281 58 OFFCURVE",
"209 58 CURVE SMOOTH"
);
}
);
width = 491;
}
);
leftKerningGroup = a;
rightKerningGroup = a;
unicode = 0061;
userData = {
com.schriftgestaltung.Glyphs.ColorIndex = 3;
com.typemytype.robofont.layerData = {
background = {
anchors = (
);
components = (
{
baseGlyph = n;
transformation = (
1,
0,
0,
1,
-5,
0
);
}
);
contours = (
);
lib = {
};
name = a;
unicodes = (
);
width = 491;
};
};
};
},
{
color = 6;
glyphname = ae;
lastChange = "2022-04-28 14:27:10 +0000";
layers = (
{
anchors = (
{
name = bottom;
position = "{374, 0}";
},
{
name = top;
position = "{374, 510}";
}
);
layerId = "BE73C5E5-17BA-4B8B-9704-EF1C804AF4CB";
paths = (
{
closed = 1;
nodes = (
"253 -9 OFFCURVE",
"299 7 OFFCURVE",
"337 34 CURVE",
"354 53 LINE SMOOTH",
"359 59 OFFCURVE",
"366 60 OFFCURVE",
"371 54 CURVE SMOOTH",
"390 33 LINE",
"431 6 OFFCURVE",
"485 -9 OFFCURVE",
"550 -9 CURVE SMOOTH",
"604 -9 OFFCURVE",
"657 4 OFFCURVE",
"702 34 CURVE",
"664 141 LINE",
"623 122 OFFCURVE",
"588 112 OFFCURVE",
"550 112 CURVE SMOOTH",
"478 112 OFFCURVE",
"437 142 OFFCURVE",
"437 219 CURVE",
"711 219 LINE",
"732 271 LINE",
"732 431 OFFCURVE",
"662 520 OFFCURVE",
"516 520 CURVE SMOOTH",
"471 520 OFFCURVE",
"433 510 OFFCURVE",
"401 492 CURVE",
"384 473 LINE SMOOTH",
"379 467 OFFCURVE",
"373 467 OFFCURVE",
"368 473 CURVE SMOOTH",
"350 493 LINE",
"317 511 OFFCURVE",
"274 522 OFFCURVE",
"220 522 CURVE SMOOTH",
"153 522 OFFCURVE",
"93 503 OFFCURVE",
"41 473 CURVE",
"82 361 LINE",
"123 385 OFFCURVE",
"164 401 OFFCURVE",
"209 401 CURVE SMOOTH",
"269 401 OFFCURVE",
"298 379 OFFCURVE",
"298 338 CURVE SMOOTH",
"298 289 LINE",
"211 289 LINE SMOOTH",
"112 289 OFFCURVE",
"35 238 OFFCURVE",
"35 142 CURVE SMOOTH",
"35 55 OFFCURVE",
"98 -9 OFFCURVE",
"202 -9 CURVE SMOOTH"
);
},
{
closed = 1;
nodes = (
"190 97 OFFCURVE",
"165 118 OFFCURVE",
"165 144 CURVE SMOOTH",
"165 169 OFFCURVE",
"181 184 OFFCURVE",
"213 184 CURVE SMOOTH",
"244 184 LINE",
"280 195 LINE SMOOTH",
"291 198 OFFCURVE",
"298 195 OFFCURVE",
"298 187 CURVE SMOOTH",
"298 174 LINE SMOOTH",
"298 129 OFFCURVE",
"270 97 OFFCURVE",
"224 97 CURVE SMOOTH"
);
},
{
closed = 1;
nodes = (
"445 372 OFFCURVE",
"467 403 OFFCURVE",
"518 403 CURVE SMOOTH",
"576 403 OFFCURVE",
"592 362 OFFCURVE",
"596 320 CURVE",
"439 320 LINE"
);
}
);
width = 767;
},
{
anchors = (
{
name = bottom;
position = "{372, 0}";
},
{
name = top;
position = "{372, 500}";
}
);
layerId = "6DBC133B-A4A9-4EFF-965F-6B79E3B68C3E";
paths = (
{
closed = 1;
nodes = (
"252 -11 OFFCURVE",
"303 3 OFFCURVE",
"349 43 CURVE",
"360 64 LINE SMOOTH",
"364 71 OFFCURVE",
"370 71 OFFCURVE",
"374 64 CURVE SMOOTH",
"386 43 LINE",
"419 10 OFFCURVE",
"467 -10 OFFCURVE",
"531 -10 CURVE SMOOTH",
"597 -10 OFFCURVE",
"635 4 OFFCURVE",
"690 43 CURVE",
"666 104 LINE",
"628 75 OFFCURVE",
"582 58 OFFCURVE",
"531 58 CURVE SMOOTH",
"430 58 OFFCURVE",
"404 122 OFFCURVE",
"404 233 CURVE",
"688 232 LINE",
"708 285 LINE",
"708 374 OFFCURVE",
"684 510 OFFCURVE",
"522 510 CURVE SMOOTH",
"473 510 OFFCURVE",
"435 494 OFFCURVE",
"404 471 CURVE",
"384 445 LINE SMOOTH",
"379 438 OFFCURVE",
"374 438 OFFCURVE",
"369 445 CURVE SMOOTH",
"349 471 LINE",
"320 497 OFFCURVE",
"282 512 OFFCURVE",
"227 512 CURVE SMOOTH",
"164 512 OFFCURVE",
"115 498 OFFCURVE",
"64 459 CURVE",
"89 389 LINE",
"132 422 OFFCURVE",
"170 437 OFFCURVE",
"222 437 CURVE SMOOTH",
"294 437 OFFCURVE",
"326 399 OFFCURVE",
"326 342 CURVE SMOOTH",
"326 270 LINE",
"209 270 LINE SMOOTH",
"112 270 OFFCURVE",
"50 219 OFFCURVE",
"50 130 CURVE SMOOTH",
"50 46 OFFCURVE",
"110 -11 OFFCURVE",
"205 -11 CURVE SMOOTH"
);
},
{
closed = 1;
nodes = (
"161 58 OFFCURVE",
"130 89 OFFCURVE",
"130 133 CURVE SMOOTH",
"130 176 OFFCURVE",
"162 200 OFFCURVE",
"215 200 CURVE SMOOTH",
"253 200 LINE",
"308 212 LINE",
"319 215 OFFCURVE",
"326 209 OFFCURVE",
"326 198 CURVE SMOOTH",
"326 153 LINE SMOOTH",
"326 95 OFFCURVE",
"281 58 OFFCURVE",
"209 58 CURVE SMOOTH"
);
},
{
closed = 1;
nodes = (
"405 385 OFFCURVE",
"446 440 OFFCURVE",
"522 440 CURVE SMOOTH",
"612 440 OFFCURVE",
"632 370 OFFCURVE",
"632 302 CURVE",
"405 302 LINE"
);
}
);
width = 753;
}
);
leftKerningGroup = a;
leftMetricsKey = a;
rightKerningGroup = e;
rightMetricsKey = e;
unicode = 00E6;
userData = {
com.schriftgestaltung.Glyphs.leftMetricsKey = a;
com.schriftgestaltung.Glyphs.rightMetricsKey = e;
};
},
{
color = 6;
glyphname = b;
lastChange = "2022-04-28 14:27:10 +0000";
layers = (
{
anchors = (
{
name = bottom;
position = "{294, 0}";
},
{
name = top;
position = "{334, 510}";
}
);
background = {
components = (
{
name = a;
transform = "{-1, 0, 0, 1, 510, 0}";
}
);
};
layerId = "BE73C5E5-17BA-4B8B-9704-EF1C804AF4CB";
leftMetricsKey = "=h-40";
rightMetricsKey = "=o";
paths = (
{
closed = 1;
nodes = (
"172 29 LINE SMOOTH",
"179 38 OFFCURVE",
"187 39 OFFCURVE",
"197 32 CURVE SMOOTH",
"235 4 OFFCURVE",
"274 -10 OFFCURVE",
"318 -10 CURVE SMOOTH",
"445 -10 OFFCURVE",
"519 57 OFFCURVE",
"528 174 CURVE SMOOTH",
"531 207 OFFCURVE",
"533 232 OFFCURVE",
"533 257 CURVE SMOOTH",
"533 289 OFFCURVE",
"532 319 OFFCURVE",
"528 358 CURVE SMOOTH",
"517 463 OFFCURVE",
"460 522 OFFCURVE",
"338 522 CURVE SMOOTH",
"295 522 OFFCURVE",
"252 509 OFFCURVE",
"228 491 CURVE",
"228 750 LINE",
"78 750 LINE",
"78 138 LINE",
"25 63 LINE",
"140 -12 LINE"
);
},
{
closed = 1;
nodes = (
"256 116 OFFCURVE",
"228 145 OFFCURVE",
"228 186 CURVE SMOOTH",
"228 325 LINE SMOOTH",
"228 370 OFFCURVE",
"251 397 OFFCURVE",
"305 397 CURVE SMOOTH",
"351 397 OFFCURVE",
"375 372 OFFCURVE",
"378 338 CURVE SMOOTH",
"383 282 OFFCURVE",
"383 228 OFFCURVE",
"378 172 CURVE SMOOTH",
"375 141 OFFCURVE",
"354 116 OFFCURVE",
"305 116 CURVE SMOOTH"
);
}
);
width = 578;
},
{
anchors = (
{
name = bottom;
position = "{263, 0}";
},
{
name = top;
position = "{263, 500}";
}
);
background = {
components = (
{
name = a;
transform = "{-1, 0, 0, 1, 491, 0}";
}
);
};
layerId = "6DBC133B-A4A9-4EFF-965F-6B79E3B68C3E";
leftMetricsKey = "=h-45";
rightMetricsKey = "=o";
paths = (
{
closed = 1;
nodes = (
"143 32 LINE SMOOTH",
"148 39 OFFCURVE",
"156 39 OFFCURVE",
"164 33 CURVE SMOOTH",
"188 13 OFFCURVE",
"225 -10 OFFCURVE",
"282 -10 CURVE SMOOTH",
"398 -10 OFFCURVE",
"457 60 OFFCURVE",
"467 162 CURVE SMOOTH",
"470 197 OFFCURVE",
"472 224 OFFCURVE",
"472 251 CURVE SMOOTH",
"472 279 OFFCURVE",
"471 306 OFFCURVE",
"467 339 CURVE SMOOTH",
"455 440 OFFCURVE",
"398 510 OFFCURVE",
"282 510 CURVE SMOOTH",
"234 510 OFFCURVE",
"189 490 OFFCURVE",
"163 465 CURVE",
"163 750 LINE",
"83 750 LINE",
"83 95 LINE",
"40 32 LINE",
"113 -12 LINE"
);
},
{
closed = 1;
nodes = (
"203 58 OFFCURVE",
"163 94 OFFCURVE",
"163 148 CURVE SMOOTH",
"163 352 LINE SMOOTH",
"163 406 OFFCURVE",
"203 440 OFFCURVE",
"273 440 CURVE SMOOTH",
"353 440 OFFCURVE",
"385 393 OFFCURVE",
"390 333 CURVE SMOOTH",
"394 278 OFFCURVE",
"395 222 OFFCURVE",
"390 167 CURVE SMOOTH",
"384 107 OFFCURVE",
"353 58 OFFCURVE",
"273 58 CURVE SMOOTH"
);
}
);
width = 527;
}
);
leftKerningGroup = b;
leftMetricsKey = "=h-45";
rightKerningGroup = o;
unicode = 0062;
userData = {
com.schriftgestaltung.Glyphs.ColorIndex = 3;
com.schriftgestaltung.Glyphs.layer.leftMetricsKey = "==h-45";
com.schriftgestaltung.Glyphs.layer.rightMetricsKey = "==o";
com.schriftgestaltung.Glyphs.leftMetricsKey = "=h-45";
com.typemytype.robofont.layerData = {
background = {
anchors = (
);
components = (
{
baseGlyph = a;
transformation = (
-1,
0,
0,
1,
491,
0
);
}
);
contours = (
);
lib = {
};
name = b;
unicodes = (
);
width = 527;
};
};
};
},
{
color = 6;
glyphname = c;
lastChange = "2022-04-28 14:27:10 +0000";
layers = (
{
anchors = (
{
name = bottom;
position = "{242, 0}";
},
{
name = top;
position = "{242, 500}";
}
);
layerId = "BE73C5E5-17BA-4B8B-9704-EF1C804AF4CB";
leftMetricsKey = "=o";
paths = (
{
closed = 1;
nodes = (
"332 -12 OFFCURVE",
"385 2 OFFCURVE",
"430 37 CURVE",
"392 144 LINE",
"355 121 OFFCURVE",
"323 112 OFFCURVE",
"288 112 CURVE SMOOTH",
"229 112 OFFCURVE",
"195 145 OFFCURVE",
"192 186 CURVE SMOOTH",
"188 237 OFFCURVE",
"188 274 OFFCURVE",
"192 325 CURVE SMOOTH",
"195 367 OFFCURVE",
"229 399 OFFCURVE",
"285 399 CURVE SMOOTH",
"330 399 OFFCURVE",
"359 387 OFFCURVE",
"389 364 CURVE",
"429 474 LINE",
"393 504 OFFCURVE",
"339 522 OFFCURVE",
"275 522 CURVE SMOOTH",
"142 522 OFFCURVE",
"65 448 OFFCURVE",
"51 346 CURVE SMOOTH",
"46 313 OFFCURVE",
"45 284 OFFCURVE",
"45 256 CURVE SMOOTH",
"45 228 OFFCURVE",
"47 198 OFFCURVE",
"51 166 CURVE SMOOTH",
"64 64 OFFCURVE",
"142 -12 OFFCURVE",
"278 -12 CURVE SMOOTH"
);
}
);
width = 460;
},
{
anchors = (
{
name = bottom;
position = "{255, 0}";
},
{
name = top;
position = "{255, 500}";
}
);
layerId = "6DBC133B-A4A9-4EFF-965F-6B79E3B68C3E";
leftMetricsKey = "=o";
paths = (
{
closed = 1;
nodes = (
"310 -14 OFFCURVE",
"350 0 OFFCURVE",
"401 34 CURVE",
"378 94 LINE",
"340 70 OFFCURVE",
"300 58 OFFCURVE",
"256 58 CURVE SMOOTH",
"182 58 OFFCURVE",
"142 107 OFFCURVE",
"137 165 CURVE SMOOTH",
"132 226 OFFCURVE",
"133 270 OFFCURVE",
"137 333 CURVE SMOOTH",
"141 391 OFFCURVE",
"182 440 OFFCURVE",
"256 440 CURVE SMOOTH",
"301 440 OFFCURVE",
"334 427 OFFCURVE",
"372 403 CURVE",
"396 468 LINE",
"352 497 OFFCURVE",
"314 512 OFFCURVE",
"255 512 CURVE SMOOTH",
"139 512 OFFCURVE",
"73 438 OFFCURVE",
"61 338 CURVE SMOOTH",
"57 305 OFFCURVE",
"55 277 OFFCURVE",
"55 249 CURVE SMOOTH",
"55 221 OFFCURVE",
"57 193 OFFCURVE",
"61 160 CURVE SMOOTH",
"73 60 OFFCURVE",
"139 -14 OFFCURVE",
"255 -14 CURVE SMOOTH"
);
}
);
width = 441;
}
);
leftKerningGroup = o;
leftMetricsKey = o;
rightKerningGroup = c;
unicode = 0063;
userData = {
com.schriftgestaltung.Glyphs.ColorIndex = 3;
com.schriftgestaltung.Glyphs.layer.leftMetricsKey = "==o";
com.schriftgestaltung.Glyphs.leftMetricsKey = o;
};
},
{
color = 6;
glyphname = d;
lastChange = "2022-04-28 14:27:10 +0000";
layers = (
{
anchors = (
{
name = bottom;
position = "{278, 0}";
},
{
name = center;
position = "{422, 614}";
},
{
name = top;
position = "{278, 510}";
},
{
name = topright;
position = "{540, 510}";
}
);
layerId = "BE73C5E5-17BA-4B8B-9704-EF1C804AF4CB";
leftMetricsKey = "=o";
rightMetricsKey = "=n";
paths = (
{
closed = 1;
nodes = (
"243 -10 OFFCURVE",
"254 -9 OFFCURVE",
"265 -6 CURVE",
"329 31 LINE SMOOTH",
"343 39 OFFCURVE",
"350 34 OFFCURVE",
"350 23 CURVE SMOOTH",
"350 0 LINE",
"500 0 LINE",
"500 750 LINE",
"350 750 LINE",
"350 491 LINE",
"326 509 OFFCURVE",
"284 522 OFFCURVE",
"241 522 CURVE SMOOTH",
"119 522 OFFCURVE",
"61 463 OFFCURVE",
"50 358 CURVE SMOOTH",
"46 319 OFFCURVE",
"45 289 OFFCURVE",
"45 257 CURVE SMOOTH",
"45 226 OFFCURVE",
"47 195 OFFCURVE",
"50 154 CURVE SMOOTH",
"59 50 OFFCURVE",
"115 -10 OFFCURVE",
"231 -10 CURVE SMOOTH"
);
},
{
closed = 1;
nodes = (
"224 114 OFFCURVE",
"203 139 OFFCURVE",
"200 170 CURVE SMOOTH",
"195 226 OFFCURVE",
"195 285 OFFCURVE",
"200 341 CURVE SMOOTH",
"203 372 OFFCURVE",
"227 397 OFFCURVE",
"273 397 CURVE SMOOTH",
"327 397 OFFCURVE",
"350 370 OFFCURVE",
"350 328 CURVE SMOOTH",
"350 184 LINE SMOOTH",
"350 143 OFFCURVE",
"322 114 OFFCURVE",
"273 114 CURVE SMOOTH"
);
}
);
width = 560;
},
{
anchors = (
{
name = bottom;
position = "{267, 0}";
},
{
name = center;
position = "{404, 611}";
},
{
name = top;
position = "{267, 500}";
},
{
name = topright;
position = "{514, 500}";
}
);
layerId = "6DBC133B-A4A9-4EFF-965F-6B79E3B68C3E";
leftMetricsKey = "=o";
rightMetricsKey = "=i";
paths = (
{
closed = 1;
nodes = (
"268 -10 OFFCURVE",
"277 -8 OFFCURVE",
"293 -4 CURVE",
"343 27 LINE SMOOTH",
"354 34 OFFCURVE",
"364 30 OFFCURVE",
"364 18 CURVE SMOOTH",
"364 0 LINE",
"444 0 LINE",
"444 750 LINE",
"364 750 LINE",
"364 472 LINE",
"338 495 OFFCURVE",
"292 510 OFFCURVE",
"245 510 CURVE SMOOTH",
"129 510 OFFCURVE",
"68 440 OFFCURVE",
"59 339 CURVE SMOOTH",
"56 306 OFFCURVE",
"55 279 OFFCURVE",
"55 251 CURVE SMOOTH",
"55 224 OFFCURVE",
"56 197 OFFCURVE",
"59 162 CURVE SMOOTH",
"68 60 OFFCURVE",
"129 -10 OFFCURVE",
"245 -10 CURVE SMOOTH"
);
},
{
closed = 1;
nodes = (
"174 58 OFFCURVE",
"142 107 OFFCURVE",
"137 167 CURVE SMOOTH",
"133 222 OFFCURVE",
"132 278 OFFCURVE",
"137 333 CURVE SMOOTH",
"143 393 OFFCURVE",
"174 440 OFFCURVE",
"254 440 CURVE SMOOTH",
"324 440 OFFCURVE",
"364 406 OFFCURVE",
"364 352 CURVE SMOOTH",
"364 148 LINE SMOOTH",
"364 94 OFFCURVE",
"324 58 OFFCURVE",
"254 58 CURVE SMOOTH"
);
}
);
width = 529;
}
);
leftKerningGroup = o;
rightKerningGroup = l;
rightMetricsKey = l;
unicode = 0064;
userData = {
com.schriftgestaltung.Glyphs.ColorIndex = 3;
com.schriftgestaltung.Glyphs.layer.leftMetricsKey = "==o";
com.schriftgestaltung.Glyphs.layer.rightMetricsKey = "==i";
com.schriftgestaltung.Glyphs.rightMetricsKey = l;
};
},
{
color = 3;
glyphname = eth;
lastChange = "2022-04-28 14:27:10 +0000";
layers = (
{
components = (
{
name = six;
transform = "{-1, 0, 0, 1, 581, 0}";
}
);
layerId = "BE73C5E5-17BA-4B8B-9704-EF1C804AF4CB";
paths = (
{
closed = 1;
nodes = (
"443 623 LINE",
"394 700 LINE",
"140 570 LINE",
"187 489 LINE"
);
}
);
width = 581;
},
{
components = (
{
name = six;
transform = "{-1, 0, 0, 1, 557, 0}";
}
);
layerId = "6DBC133B-A4A9-4EFF-965F-6B79E3B68C3E";
paths = (
{
closed = 1;
nodes = (
"409 651 LINE",
"374 700 LINE",
"149 545 LINE",
"187 496 LINE"
);
}
);
width = 557;
}
);
leftKerningGroup = eth;
leftMetricsKey = six;
rightKerningGroup = eth;
rightMetricsKey = six;
unicode = 00F0;
userData = {
com.schriftgestaltung.Glyphs.leftMetricsKey = six;
com.schriftgestaltung.Glyphs.rightMetricsKey = six;
};
},
{
color = 6;
glyphname = e;
lastChange = "2022-04-28 14:27:10 +0000";
layers = (
{
anchors = (
{
name = bottom;
position = "{260, 0}";
},
{
name = ogonek;
position = "{467, 10}";
},
{
name = top;
position = "{263, 510}";
}
);
layerId = "BE73C5E5-17BA-4B8B-9704-EF1C804AF4CB";
leftMetricsKey = "=o";
paths = (
{
closed = 1;
nodes = (
"351 -10 OFFCURVE",
"404 4 OFFCURVE",
"449 34 CURVE",
"411 141 LINE",
"370 122 OFFCURVE",
"335 112 OFFCURVE",
"297 112 CURVE SMOOTH",
"238 112 OFFCURVE",
"191 132 OFFCURVE",
"185 200 CURVE SMOOTH",
"182 237 OFFCURVE",
"183 271 OFFCURVE",
"185 306 CURVE SMOOTH",
"188 366 OFFCURVE",
"210 403 OFFCURVE",
"265 403 CURVE SMOOTH",
"323 403 OFFCURVE",
"339 362 OFFCURVE",
"343 320 CURVE",
"74 320 LINE",
"76 219 LINE",
"458 219 LINE",
"479 271 LINE",
"479 431 OFFCURVE",
"409 520 OFFCURVE",
"263 520 CURVE SMOOTH",
"140 520 OFFCURVE",
"65 442 OFFCURVE",
"51 338 CURVE SMOOTH",
"47 305 OFFCURVE",
"45 277 OFFCURVE",
"45 249 CURVE SMOOTH",
"45 221 OFFCURVE",
"47 195 OFFCURVE",
"51 163 CURVE SMOOTH",
"67 64 OFFCURVE",
"158 -10 OFFCURVE",
"297 -10 CURVE SMOOTH"
);
}
);
width = 514;
},
{
anchors = (
{
name = bottom;
position = "{248, 0}";
},
{
name = ogonek;
position = "{428, 10}";
},
{
name = top;
position = "{249, 500}";
}
);
layerId = "6DBC133B-A4A9-4EFF-965F-6B79E3B68C3E";
leftMetricsKey = "=o";
paths = (
{
closed = 1;
nodes = (
"325 -10 OFFCURVE",
"363 4 OFFCURVE",
"418 43 CURVE",
"394 104 LINE",
"356 75 OFFCURVE",
"310 58 OFFCURVE",
"259 58 CURVE SMOOTH",
"177 58 OFFCURVE",
"142 109 OFFCURVE",
"136 166 CURVE SMOOTH",
"128 239 OFFCURVE",
"132 300 OFFCURVE",
"135 333 CURVE SMOOTH",
"140 389 OFFCURVE",
"179 440 OFFCURVE",
"250 440 CURVE SMOOTH",
"340 440 OFFCURVE",
"360 370 OFFCURVE",
"360 302 CURVE",
"114 302 LINE",
"114 233 LINE",
"416 232 LINE",
"436 285 LINE",
"436 374 OFFCURVE",
"412 510 OFFCURVE",
"250 510 CURVE SMOOTH",
"138 510 OFFCURVE",
"72 436 OFFCURVE",
"61 338 CURVE SMOOTH",
"57 305 OFFCURVE",
"55 277 OFFCURVE",
"55 249 CURVE SMOOTH",
"55 221 OFFCURVE",
"57 194 OFFCURVE",
"61 162 CURVE SMOOTH",
"73 64 OFFCURVE",
"136 -10 OFFCURVE",
"259 -10 CURVE SMOOTH"
);
}
);
width = 481;
}
);
leftKerningGroup = o;
leftMetricsKey = o;
rightKerningGroup = e;
unicode = 0065;
userData = {
com.schriftgestaltung.Glyphs.ColorIndex = 3;
com.schriftgestaltung.Glyphs.layer.leftMetricsKey = "==o";
com.schriftgestaltung.Glyphs.leftMetricsKey = o;
};
},
{
color = 6;
glyphname = ezh;
lastChange = "2022-04-28 14:27:10 +0000";
layers = (
{
anchors = (
{
name = bottom;
position = "{259, 0}";
},
{
name = top;
position = "{259, 500}";
}
);
layerId = "6DBC133B-A4A9-4EFF-965F-6B79E3B68C3E";
paths = (
{
closed = 1;
nodes = (
"339 -256 OFFCURVE",
"468 -197 OFFCURVE",
"468 -23 CURVE SMOOTH",
"468 139 OFFCURVE",
"366 207 OFFCURVE",
"186 207 CURVE",
"233 185 LINE",
"444 452 LINE",
"444 500 LINE",
"55 500 LINE",
"55 430 LINE",
"333 430 LINE SMOOTH",
"340 430 OFFCURVE",
"342 426 OFFCURVE",
"336 420 CURVE SMOOTH",
"300 385 LINE",
"138 180 LINE",
"138 134 LINE",
"197 134 LINE SMOOTH",
"331 134 OFFCURVE",
"386 77 OFFCURVE",
"386 -23 CURVE SMOOTH",
"386 -114 OFFCURVE",
"333 -179 OFFCURVE",
"226 -179 CURVE SMOOTH",
"163 -179 OFFCURVE",
"100 -152 OFFCURVE",
"59 -114 CURVE",
"30 -183 LINE",
"87 -231 OFFCURVE",
"149 -256 OFFCURVE",
"227 -256 CURVE SMOOTH"
);
}
);
width = 518;
},
{
anchors = (
{
name = bottom;
position = "{267, 0}";
},
{
name = top;
position = "{267, 510}";
}
);
layerId = "BE73C5E5-17BA-4B8B-9704-EF1C804AF4CB";
paths = (
{
closed = 1;
nodes = (
"338 -260 OFFCURVE",
"494 -180 OFFCURVE",
"494 3 CURVE SMOOTH",
"494 164 OFFCURVE",
"401 235 OFFCURVE",
"244 244 CURVE",
"253 184 LINE",
"452 412 LINE",
"452 510 LINE",
"35 510 LINE",
"35 380 LINE",
"249 380 LINE SMOOTH",
"260 380 OFFCURVE",
"265 370 OFFCURVE",
"255 362 CURVE",
"225 335 LINE",
"126 202 LINE",
"126 112 LINE",
"222 112 LINE SMOOTH",
"311 112 OFFCURVE",
"346 61 OFFCURVE",
"346 -3 CURVE SMOOTH",
"346 -80 OFFCURVE",
"297 -123 OFFCURVE",
"209 -123 CURVE SMOOTH",
"155 -123 OFFCURVE",
"110 -110 OFFCURVE",
"62 -69 CURVE",
"15 -186 LINE",
"77 -243 OFFCURVE",
"139 -260 OFFCURVE",
"220 -260 CURVE SMOOTH"
);
}
);
width = 534;
}
);
unicode = 0292;
},
{
color = 6;
glyphname = f;
lastChange = "2022-04-28 14:27:10 +0000";
layers = (
{
anchors = (
{
name = bottom;
position = "{195, 0}";
},
{
name = top;
position = "{195, 510}";
}
);
layerId = "BE73C5E5-17BA-4B8B-9704-EF1C804AF4CB";
paths = (
{
closed = 1;
nodes = (
"256 0 LINE",
"256 386 LINE",
"360 386 LINE",
"360 510 LINE",
"256 510 LINE",
"256 566 LINE SMOOTH",
"256 602 OFFCURVE",
"280 627 OFFCURVE",
"349 627 CURVE SMOOTH",
"377 627 OFFCURVE",
"412 619 OFFCURVE",
"443 598 CURVE",
"490 700 LINE",
"451 733 OFFCURVE",
"392 753 OFFCURVE",
"327 753 CURVE SMOOTH",
"193 753 OFFCURVE",
"106 684 OFFCURVE",
"106 566 CURVE SMOOTH",
"106 510 LINE",
"20 510 LINE",
"20 386 LINE",
"106 386 LINE",
"106 0 LINE"
);
}
);
width = 390;
},
{
anchors = (
{
name = bottom;
position = "{183, 0}";
},
{
name = top;
position = "{183, 500}";
}
);
layerId = "6DBC133B-A4A9-4EFF-965F-6B79E3B68C3E";
paths = (
{
closed = 1;
nodes = (
"209 0 LINE",
"209 430 LINE",
"340 430 LINE",
"340 500 LINE",
"209 500 LINE",
"209 585 LINE SMOOTH",
"209 647 OFFCURVE",
"256 684 OFFCURVE",
"334 684 CURVE SMOOTH",
"379 684 OFFCURVE",
"416 669 OFFCURVE",
"446 640 CURVE",
"480 700 LINE",
"445 732 OFFCURVE",
"392 753 OFFCURVE",
"330 753 CURVE SMOOTH",
"191 753 OFFCURVE",
"132 671 OFFCURVE",
"132 582 CURVE SMOOTH",
"132 500 LINE",
"30 500 LINE",
"30 430 LINE",
"132 430 LINE",
"132 0 LINE"
);
}
);
width = 365;
}
);
leftKerningGroup = f;
rightKerningGroup = f;
unicode = 0066;
userData = {
com.schriftgestaltung.Glyphs.ColorIndex = 3;
};
},
{
color = 6;
glyphname = g;
lastChange = "2022-04-28 14:27:10 +0000";
layers = (
{
anchors = (
{
name = bottom;
position = "{277, 0}";
},
{
name = top;
position = "{277, 510}";
}
);
layerId = "BE73C5E5-17BA-4B8B-9704-EF1C804AF4CB";
leftMetricsKey = "=o";
paths = (
{
closed = 1;
nodes = (
"408 -214 OFFCURVE",
"499 -121 OFFCURVE",
"499 -24 CURVE SMOOTH",
"499 510 LINE",
"349 510 LINE",
"349 481 LINE",
"325 504 OFFCURVE",
"283 522 OFFCURVE",
"240 522 CURVE SMOOTH",
"119 522 OFFCURVE",
"59 463 OFFCURVE",
"50 358 CURVE SMOOTH",
"46 319 OFFCURVE",
"45 289 OFFCURVE",
"45 257 CURVE SMOOTH",
"45 226 OFFCURVE",
"46 195 OFFCURVE",
"50 154 CURVE SMOOTH",
"59 50 OFFCURVE",
"122 -10 OFFCURVE",
"220 -10 CURVE SMOOTH",
"237 -10 OFFCURVE",
"251 -9 OFFCURVE",
"263 -7 CURVE",
"330 32 LINE SMOOTH",
"341 38 OFFCURVE",
"350 35 OFFCURVE",
"350 24 CURVE SMOOTH",
"350 2 LINE SMOOTH",
"350 -65 OFFCURVE",
"312 -94 OFFCURVE",
"258 -94 CURVE",
"192 -94 OFFCURVE",
"178 -92 OFFCURVE",
"118 -61 CURVE",
"76 -169 LINE",
"147 -204 OFFCURVE",
"182 -214 OFFCURVE",
"257 -214 CURVE"
);
},
{
closed = 1;
nodes = (
"223 113 OFFCURVE",
"203 138 OFFCURVE",
"200 169 CURVE SMOOTH",
"194 225 OFFCURVE",
"195 284 OFFCURVE",
"200 341 CURVE SMOOTH",
"203 372 OFFCURVE",
"226 397 OFFCURVE",
"272 397 CURVE SMOOTH",
"326 397 OFFCURVE",
"349 370 OFFCURVE",
"349 328 CURVE SMOOTH",
"349 183 LINE SMOOTH",
"349 142 OFFCURVE",
"321 113 OFFCURVE",
"272 113 CURVE SMOOTH"
);
}
);
width = 559;
},
{
anchors = (
{
name = bottom;
position = "{260, 0}";
},
{
name = top;
position = "{260, 500}";
}
);
layerId = "6DBC133B-A4A9-4EFF-965F-6B79E3B68C3E";
leftMetricsKey = "=o";
paths = (
{
closed = 1;
nodes = (
"390 -203 OFFCURVE",
"444 -114 OFFCURVE",
"444 -22 CURVE SMOOTH",
"444 500 LINE",
"364 500 LINE",
"364 472 LINE",
"338 495 OFFCURVE",
"292 510 OFFCURVE",
"245 510 CURVE SMOOTH",
"129 510 OFFCURVE",
"68 440 OFFCURVE",
"59 339 CURVE SMOOTH",
"56 306 OFFCURVE",
"55 279 OFFCURVE",
"55 251 CURVE SMOOTH",
"55 224 OFFCURVE",
"56 197 OFFCURVE",
"59 162 CURVE SMOOTH",
"68 60 OFFCURVE",
"129 -10 OFFCURVE",
"245 -10 CURVE SMOOTH",
"268 -10 OFFCURVE",
"277 -8 OFFCURVE",
"293 -3 CURVE",
"345 27 LINE",
"356 34 OFFCURVE",
"364 33 OFFCURVE",
"364 18 CURVE SMOOTH",
"364 -40 LINE SMOOTH",
"364 -98 OFFCURVE",
"317 -131 OFFCURVE",
"242 -131 CURVE SMOOTH",
"185 -131 OFFCURVE",
"141 -119 OFFCURVE",
"110 -95 CURVE",
"91 -160 LINE",
"133 -190 OFFCURVE",
"179 -203 OFFCURVE",
"243 -203 CURVE SMOOTH"
);
},
{
closed = 1;
nodes = (
"174 58 OFFCURVE",
"142 107 OFFCURVE",
"137 167 CURVE SMOOTH",
"133 222 OFFCURVE",
"132 278 OFFCURVE",
"137 333 CURVE SMOOTH",
"143 393 OFFCURVE",
"174 440 OFFCURVE",
"254 440 CURVE SMOOTH",
"324 440 OFFCURVE",
"364 406 OFFCURVE",
"364 352 CURVE SMOOTH",
"364 148 LINE SMOOTH",
"364 94 OFFCURVE",
"324 58 OFFCURVE",
"254 58 CURVE SMOOTH"
);
}
);
width = 524;
}
);
leftKerningGroup = o;
rightKerningGroup = g;
rightMetricsKey = n;
unicode = 0067;
userData = {
com.schriftgestaltung.Glyphs.ColorIndex = 3;
com.schriftgestaltung.Glyphs.layer.leftMetricsKey = "==o";
com.schriftgestaltung.Glyphs.rightMetricsKey = n;
};
},
{
color = 6;
glyphname = gstroke;
lastChange = "2022-04-28 14:27:10 +0000";
layers = (
{
anchors = (
{
name = _center;
position = "{434, 9}";
},
{
name = bottom;
position = "{277, 0}";
},
{
name = top;
position = "{277, 510}";
}
);
layerId = "6DBC133B-A4A9-4EFF-965F-6B79E3B68C3E";
paths = (
{
closed = 1;
nodes = (
"390 -203 OFFCURVE",
"444 -114 OFFCURVE",
"444 -22 CURVE SMOOTH",
"444 500 LINE",
"364 500 LINE",
"364 472 LINE",
"338 495 OFFCURVE",
"292 510 OFFCURVE",
"245 510 CURVE SMOOTH",
"129 510 OFFCURVE",
"68 444 OFFCURVE",
"59 349 CURVE SMOOTH",
"56 324 OFFCURVE",
"55 303 OFFCURVE",
"55 281 CURVE SMOOTH",
"55 260 OFFCURVE",
"56 239 OFFCURVE",
"59 212 CURVE SMOOTH",
"68 116 OFFCURVE",
"129 50 OFFCURVE",
"245 50 CURVE SMOOTH",
"268 50 OFFCURVE",
"277 52 OFFCURVE",
"293 57 CURVE",
"345 87 LINE",
"356 94 OFFCURVE",
"364 93 OFFCURVE",
"364 78 CURVE SMOOTH",
"364 -40 LINE SMOOTH",
"364 -98 OFFCURVE",
"317 -131 OFFCURVE",
"242 -131 CURVE SMOOTH",
"185 -131 OFFCURVE",
"141 -119 OFFCURVE",
"110 -95 CURVE",
"91 -160 LINE",
"133 -190 OFFCURVE",
"179 -203 OFFCURVE",
"243 -203 CURVE SMOOTH"
);
},
{
closed = 1;
nodes = (
"554 -69 LINE",
"554 0 LINE",
"223 0 LINE",
"223 -69 LINE"
);
},
{
closed = 1;
nodes = (
"174 118 OFFCURVE",
"142 168 OFFCURVE",
"137 227 CURVE SMOOTH",
"133 267 OFFCURVE",
"132 298 OFFCURVE",
"137 333 CURVE SMOOTH",
"143 393 OFFCURVE",
"174 440 OFFCURVE",
"254 440 CURVE SMOOTH",
"324 440 OFFCURVE",
"364 406 OFFCURVE",
"364 352 CURVE SMOOTH",
"364 208 LINE SMOOTH",
"364 154 OFFCURVE",
"324 118 OFFCURVE",
"254 118 CURVE SMOOTH"
);
}
);
width = 524;
},
{
anchors = (
{
name = _center;
position = "{434, 9}";
},
{
name = bottom;
position = "{277, 0}";
},
{
name = top;
position = "{277, 510}";
}
);
layerId = "BE73C5E5-17BA-4B8B-9704-EF1C804AF4CB";
paths = (
{
closed = 1;
nodes = (
"412 -214 OFFCURVE",
"499 -121 OFFCURVE",
"499 -24 CURVE SMOOTH",
"499 510 LINE",
"349 510 LINE",
"349 481 LINE",
"325 504 OFFCURVE",
"283 522 OFFCURVE",
"240 522 CURVE SMOOTH",
"119 522 OFFCURVE",
"61 467 OFFCURVE",
"50 368 CURVE SMOOTH",
"47 341 OFFCURVE",
"46 319 OFFCURVE",
"46 297 CURVE SMOOTH",
"46 275 OFFCURVE",
"47 253 OFFCURVE",
"50 224 CURVE SMOOTH",
"60 126 OFFCURVE",
"122 70 OFFCURVE",
"220 70 CURVE SMOOTH",
"237 70 OFFCURVE",
"251 71 OFFCURVE",
"263 73 CURVE",
"330 92 LINE SMOOTH",
"341 98 OFFCURVE",
"350 95 OFFCURVE",
"350 84 CURVE SMOOTH",
"350 -18 LINE SMOOTH",
"350 -71 OFFCURVE",
"312 -94 OFFCURVE",
"258 -94 CURVE",
"192 -94 OFFCURVE",
"178 -92 OFFCURVE",
"118 -61 CURVE",
"76 -169 LINE",
"151 -204 OFFCURVE",
"188 -214 OFFCURVE",
"267 -214 CURVE"
);
},
{
closed = 1;
nodes = (
"587 -54 LINE",
"587 40 LINE",
"211 40 LINE",
"211 -54 LINE"
);
},
{
closed = 1;
nodes = (
"223 193 OFFCURVE",
"204 214 OFFCURVE",
"198 249 CURVE SMOOTH",
"193 281 OFFCURVE",
"194 314 OFFCURVE",
"198 341 CURVE SMOOTH",
"204 376 OFFCURVE",
"226 397 OFFCURVE",
"272 397 CURVE SMOOTH",
"326 397 OFFCURVE",
"349 380 OFFCURVE",
"349 338 CURVE SMOOTH",
"349 233 LINE SMOOTH",
"349 210 OFFCURVE",
"321 193 OFFCURVE",
"272 193 CURVE SMOOTH"
);
}
);
width = 600;
}
);
unicode = 01E5;
},
{
color = 6;
glyphname = h;
lastChange = "2022-04-28 14:27:10 +0000";
layers = (
{
anchors = (
{
name = bottom;
position = "{282, 0}";
},
{
name = center;
position = "{138, 612}";
},
{
name = top;
position = "{299, 750}";
}
);
layerId = "BE73C5E5-17BA-4B8B-9704-EF1C804AF4CB";
leftMetricsKey = "=n";
rightMetricsKey = "=n";
paths = (
{
closed = 1;
nodes = (
"211 0 LINE",
"211 305 LINE SMOOTH",
"211 362 OFFCURVE",
"230 387 OFFCURVE",
"284 387 CURVE SMOOTH",
"339 387 OFFCURVE",
"353 362 OFFCURVE",
"353 305 CURVE SMOOTH",
"353 0 LINE",
"503 0 LINE",
"503 366 LINE SMOOTH",
"503 471 OFFCURVE",
"421 522 OFFCURVE",
"332 522 CURVE SMOOTH",
"285 522 OFFCURVE",
"245 510 OFFCURVE",
"211 492 CURVE",
"211 751 LINE",
"65 751 LINE",
"65 0 LINE"
);
}
);
width = 563;
},
{
anchors = (
{
name = bottom;
position = "{266, 0}";
},
{
name = center;
position = "{125, 610}";
},
{
name = top;
position = "{286, 750}";
}
);
layerId = "6DBC133B-A4A9-4EFF-965F-6B79E3B68C3E";
leftMetricsKey = "=n";
rightMetricsKey = "=n";
paths = (
{
closed = 1;
nodes = (
"165 0 LINE",
"165 348 LINE SMOOTH",
"165 404 OFFCURVE",
"205 440 OFFCURVE",
"275 440 CURVE SMOOTH",
"340 440 OFFCURVE",
"377 404 OFFCURVE",
"377 348 CURVE SMOOTH",
"377 0 LINE",
"457 0 LINE",
"457 357 LINE SMOOTH",
"457 449 OFFCURVE",
"393 512 OFFCURVE",
"293 512 CURVE SMOOTH",
"237 512 OFFCURVE",
"192 492 OFFCURVE",
"165 471 CURVE",
"165 750 LINE",
"85 750 LINE",
"85 0 LINE"
);
}
);
width = 537;
}
);
leftKerningGroup = h;
leftMetricsKey = n;
rightKerningGroup = n;
rightMetricsKey = n;
unicode = 0068;
userData = {
com.schriftgestaltung.Glyphs.ColorIndex = 3;
com.schriftgestaltung.Glyphs.layer.leftMetricsKey = "==n";
com.schriftgestaltung.Glyphs.layer.rightMetricsKey = "==n";
com.schriftgestaltung.Glyphs.leftMetricsKey = n;
com.schriftgestaltung.Glyphs.rightMetricsKey = n;
};
},
{
color = 6;
glyphname = i;
lastChange = "2022-04-28 14:27:10 +0000";
layers = (
{
anchors = (
{
name = bottom;
position = "{180, 0}";
}
);
layerId = "BE73C5E5-17BA-4B8B-9704-EF1C804AF4CB";
paths = (
{
closed = 1;
nodes = (
"260 0 LINE",
"260 510 LINE",
"20 510 LINE",
"20 386 LINE",
"110 386 LINE",
"110 0 LINE"
);
},
{
closed = 1;
nodes = (
"260 578 LINE",
"260 700 LINE",
"110 700 LINE",
"110 578 LINE"
);
}
);
width = 325;
},
{
anchors = (
{
name = bottom;
position = "{143, 0}";
}
);
layerId = "6DBC133B-A4A9-4EFF-965F-6B79E3B68C3E";
paths = (
{
closed = 1;
nodes = (
"200 0 LINE",
"200 500 LINE",
"50 500 LINE",
"50 430 LINE",
"120 430 LINE",
"120 0 LINE"
);
},
{
closed = 1;
nodes = (
"200 600 LINE",
"200 700 LINE",
"120 700 LINE",
"120 600 LINE"
);
}
);
width = 285;
}
);
leftKerningGroup = i;
rightKerningGroup = i;
unicode = 0069;
userData = {
com.schriftgestaltung.Glyphs.ColorIndex = 3;
};
},
{
color = 6;
glyphname = idotless;
lastChange = "2022-04-28 14:27:10 +0000";
layers = (
{
anchors = (
{
name = bottom;
position = "{165, 0}";
},
{
name = ogonek;
position = "{297, 10}";
},
{
name = top;
position = "{165, 510}";
}
);
layerId = "BE73C5E5-17BA-4B8B-9704-EF1C804AF4CB";
paths = (
{
closed = 1;
nodes = (
"260 0 LINE",
"260 510 LINE",
"20 510 LINE",
"20 386 LINE",
"110 386 LINE",
"110 0 LINE"
);
}
);
width = 325;
},
{
anchors = (
{
name = bottom;
position = "{145, 0}";
},
{
name = ogonek;
position = "{261, 10}";
},
{
name = top;
position = "{145, 500}";
}
);
layerId = "6DBC133B-A4A9-4EFF-965F-6B79E3B68C3E";
paths = (
{
closed = 1;
nodes = (
"200 0 LINE",
"200 500 LINE",
"50 500 LINE",
"50 430 LINE",
"120 430 LINE",
"120 0 LINE"
);
}
);
width = 290;
}
);
leftKerningGroup = i;
rightKerningGroup = i;
unicode = 0131;
},
{
color = 3;
glyphname = icircumflex;
lastChange = "2022-04-28 14:27:10 +0000";
layers = (
{
components = (
{
name = idotless;
}
);
layerId = "BE73C5E5-17BA-4B8B-9704-EF1C804AF4CB";
paths = (
{
closed = 1;
nodes = (
"132 578 LINE",
"152 634 LINE",
"160 668 LINE SMOOTH",
"163 677 OFFCURVE",
"166 677 OFFCURVE",
"169 668 CURVE SMOOTH",
"178 634 LINE",
"200 578 LINE",
"318 578 LINE",
"243 750 LINE",
"90 750 LINE",
"15 578 LINE"
);
}
);
width = 330;
},
{
components = (
{
name = idotless;
}
);
layerId = "6DBC133B-A4A9-4EFF-965F-6B79E3B68C3E";
paths = (
{
closed = 1;
nodes = (
"107 600 LINE",
"134 667 LINE",
"143 701 LINE SMOOTH",
"146 711 OFFCURVE",
"150 711 OFFCURVE",
"152 701 CURVE SMOOTH",
"160 667 LINE",
"188 600 LINE",
"260 600 LINE",
"188 750 LINE",
"107 750 LINE",
"35 600 LINE"
);
}
);
width = 290;
}
);
leftKerningGroup = i;
rightKerningGroup = i;
unicode = 00EE;
},
{
color = 3;
glyphname = idieresis;
lastChange = "2022-04-28 14:27:10 +0000";
layers = (
{
anchors = (
{
name = _top;
position = "{165, 510}";
},
{
name = top;
position = "{165, 700}";
}
);
components = (
{
name = idotless;
}
);
layerId = "BE73C5E5-17BA-4B8B-9704-EF1C804AF4CB";
paths = (
{
closed = 1;
nodes = (
"302 578 LINE",
"302 700 LINE",
"182 700 LINE",
"182 578 LINE"
);
},
{
closed = 1;
nodes = (
"140 578 LINE",
"140 700 LINE",
"20 700 LINE",
"20 578 LINE"
);
}
);
width = 330;
},
{
anchors = (
{
name = _top;
position = "{145, 500}";
},
{
name = top;
position = "{145, 700}";
}
);
components = (
{
name = idotless;
}
);
layerId = "6DBC133B-A4A9-4EFF-965F-6B79E3B68C3E";
paths = (
{
closed = 1;
nodes = (
"261 600 LINE",
"261 700 LINE",
"180 700 LINE",
"180 600 LINE"
);
},
{
closed = 1;
nodes = (
"111 600 LINE",
"111 700 LINE",
"30 700 LINE",
"30 600 LINE"
);
}
);
width = 290;
}
);
leftKerningGroup = i;
rightKerningGroup = i;
unicode = 00EF;
},
{
color = 6;
glyphname = j;
lastChange = "2022-04-28 14:27:10 +0000";
layers = (
{
layerId = "BE73C5E5-17BA-4B8B-9704-EF1C804AF4CB";
leftMetricsKey = "=i-10";
rightMetricsKey = "=i";
paths = (
{
closed = 1;
nodes = (
"145 -215 OFFCURVE",
"260 -147 OFFCURVE",
"260 14 CURVE SMOOTH",
"260 510 LINE",
"20 510 LINE",
"20 387 LINE",
"110 387 LINE",
"110 8 LINE SMOOTH",
"110 -49 OFFCURVE",
"72 -76 OFFCURVE",
"10 -91 CURVE",
"44 -222 LINE"
);
},
{
closed = 1;
nodes = (
"259 578 LINE",
"259 700 LINE",
"110 700 LINE",
"110 578 LINE"
);
}
);
width = 325;
},
{
layerId = "6DBC133B-A4A9-4EFF-965F-6B79E3B68C3E";
leftMetricsKey = "=i-20";
rightMetricsKey = "=i";
paths = (
{
closed = 1;
nodes = (
"146 -189 OFFCURVE",
"200 -122 OFFCURVE",
"200 5 CURVE SMOOTH",
"201 500 LINE",
"50 500 LINE",
"50 430 LINE",
"120 430 LINE",
"120 5 LINE SMOOTH",
"120 -84 OFFCURVE",
"84 -137 OFFCURVE",
"30 -154 CURVE",
"58 -222 LINE"
);
},
{
closed = 1;
nodes = (
"200 600 LINE",
"200 700 LINE",
"120 700 LINE",
"120 600 LINE"
);
}
);
width = 286;
}
);
leftKerningGroup = j;
leftMetricsKey = i;
rightKerningGroup = j;
rightMetricsKey = i;
unicode = 006A;
userData = {
com.schriftgestaltung.Glyphs.ColorIndex = 3;
com.schriftgestaltung.Glyphs.layer.leftMetricsKey = "==i-20";
com.schriftgestaltung.Glyphs.layer.rightMetricsKey = "==i";
com.schriftgestaltung.Glyphs.leftMetricsKey = n;
com.schriftgestaltung.Glyphs.rightMetricsKey = n;
};
},
{
color = 6;
glyphname = k;
lastChange = "2022-04-28 14:27:10 +0000";
layers = (
{
anchors = (
{
name = bottom;
position = "{262, 0}";
},
{
name = top;
position = "{305, 700}";
}
);
layerId = "BE73C5E5-17BA-4B8B-9704-EF1C804AF4CB";
leftMetricsKey = "=n";
paths = (
{
closed = 1;
nodes = (
"211 0 LINE",
"211 223 LINE",
"248 223 LINE",
"341 0 LINE",
"503 0 LINE",
"373 291 LINE",
"498 511 LINE",
"334 511 LINE",
"248 353 LINE SMOOTH",
"211 353 LINE",
"211 750 LINE",
"65 750 LINE",
"65 0 LINE"
);
}
);
width = 523;
},
{
anchors = (
{
name = bottom;
position = "{239, 0}";
},
{
name = top;
position = "{258, 670}";
}
);
layerId = "6DBC133B-A4A9-4EFF-965F-6B79E3B68C3E";
leftMetricsKey = "=n";
paths = (
{
closed = 1;
nodes = (
"167 0 LINE",
"167 239 LINE",
"234 239 LINE",
"357 0 LINE",
"447 0 LINE",
"294 285 LINE",
"443 500 LINE",
"353 500 LINE",
"224 309 LINE",
"167 309 LINE",
"167 750 LINE",
"85 750 LINE",
"85 0 LINE"
);
}
);
width = 477;
}
);
leftKerningGroup = h;
leftMetricsKey = n;
rightKerningGroup = k;
unicode = 006B;
userData = {
com.schriftgestaltung.Glyphs.ColorIndex = 3;
com.schriftgestaltung.Glyphs.layer.leftMetricsKey = "==n";
com.schriftgestaltung.Glyphs.leftMetricsKey = n;
};
},
{
color = 6;
glyphname = l;
lastChange = "2022-04-28 14:27:10 +0000";
layers = (
{
anchors = (
{
name = bottom;
position = "{156, 0}";
},
{
name = center;
position = "{156, 455}";
},
{
name = top;
position = "{146, 750}";
},
{
name = topright;
position = "{211, 750}";
}
);
background = {
anchors = (
{
name = bottom;
position = "{422, 0}";
},
{
name = top;
position = "{422, 500}";
},
{
name = topright;
position = "{518, 500}";
}
);
paths = (
{
closed = 1;
nodes = (
"146 750 LINE",
"146 115 LINE",
"230 -12 LINE",
"340 50 LINE",
"292 127 LINE",
"292 750 LINE"
);
}
);
};
layerId = "BE73C5E5-17BA-4B8B-9704-EF1C804AF4CB";
leftMetricsKey = "=h";
rightMetricsKey = "=i-40";
paths = (
{
closed = 1;
nodes = (
"281 1 LINE",
"281 130 LINE",
"227 130 LINE SMOOTH",
"218 130 OFFCURVE",
"211 137 OFFCURVE",
"211 146 CURVE SMOOTH",
"211 750 LINE",
"65 750 LINE",
"65 120 LINE SMOOTH",
"65 50 OFFCURVE",
"115 1 OFFCURVE",
"185 1 CURVE SMOOTH"
);
}
);
width = 306;
},
{
anchors = (
{
name = bottom;
position = "{138, 0}";
},
{
name = center;
position = "{138, 450}";
},
{
name = top;
position = "{126, 750}";
},
{
name = topright;
position = "{165, 750}";
}
);
background = {
anchors = (
{
name = bottom;
position = "{108, 0}";
},
{
name = center;
position = "{148, 250}";
},
{
name = top;
position = "{108, 500}";
},
{
name = topright;
position = "{204, 500}";
}
);
paths = (
{
closed = 1;
nodes = (
"95 750 LINE",
"95 61 LINE",
"148 -11 LINE",
"215 31 LINE",
"175 90 LINE",
"175 750 LINE"
);
}
);
};
layerId = "6DBC133B-A4A9-4EFF-965F-6B79E3B68C3E";
leftMetricsKey = "=h";
paths = (
{
closed = 1;
nodes = (
"240 0 LINE",
"240 70 LINE",
"199 70 LINE SMOOTH",
"178 70 OFFCURVE",
"165 85 OFFCURVE",
"165 108 CURVE SMOOTH",
"165 750 LINE",
"85 750 LINE",
"85 108 LINE SMOOTH",
"85 42 OFFCURVE",
"130 0 OFFCURVE",
"199 0 CURVE SMOOTH"
);
}
);
width = 275;
}
);
leftKerningGroup = h;
leftMetricsKey = n;
rightKerningGroup = l;
unicode = 006C;
userData = {
com.schriftgestaltung.Glyphs.ColorIndex = 3;
com.schriftgestaltung.Glyphs.layer.leftMetricsKey = "==h";
com.schriftgestaltung.Glyphs.leftMetricsKey = n;
com.typemytype.robofont.layerData = {
background = {
anchors = (
{
name = bottom;
x = 108;
y = 0;
},
{
name = top;
x = 108;
y = 500;
},
{
name = topright;
x = 204;
y = 500;
},
{
name = center;
x = 148;
y = 250;
}
);
components = (
);
contours = (
{
points = (
{
segmentType = line;
smooth = 0;
x = 95;
y = 750;
},
{
segmentType = line;
smooth = 0;
x = 95;
y = 61;
},
{
segmentType = line;
smooth = 0;
x = 148;
y = -11;
},
{
segmentType = line;
smooth = 0;
x = 215;
y = 31;
},
{
segmentType = line;
smooth = 0;
x = 175;
y = 90;
},
{
segmentType = line;
smooth = 0;
x = 175;
y = 750;
}
);
}
);
lib = {
};
name = l;
unicodes = (
);
width = 275;
};
};
};
},
{
color = 6;
glyphname = m;
lastChange = "2022-04-28 14:27:10 +0000";
layers = (
{
anchors = (
{
name = bottom;
position = "{428, 0}";
},
{
name = top;
position = "{428, 510}";
}
);
background = {
paths = (
{
closed = 1;
nodes = (
"283 512 OFFCURVE",
"266 510 OFFCURVE",
"249 506 CURVE",
"198 476 LINE SMOOTH",
"182 466 OFFCURVE",
"175 471 OFFCURVE",
"175 484 CURVE SMOOTH",
"175 500 LINE",
"95 500 LINE",
"95 0 LINE",
"175 0 LINE",
"175 348 LINE SMOOTH",
"175 404 OFFCURVE",
"205 440 OFFCURVE",
"287 440 CURVE SMOOTH",
"348 440 OFFCURVE",
"385 404 OFFCURVE",
"385 348 CURVE SMOOTH",
"385 0 LINE",
"465 0 LINE",
"465 348 LINE SMOOTH",
"465 404 OFFCURVE",
"491 440 OFFCURVE",
"566 440 CURVE SMOOTH",
"645 440 OFFCURVE",
"675 404 OFFCURVE",
"675 348 CURVE SMOOTH",
"675 0 LINE",
"755 0 LINE",
"755 357 LINE SMOOTH",
"755 449 OFFCURVE",
"699 512 OFFCURVE",
"587 512 CURVE SMOOTH",
"529 512 OFFCURVE",
"474 492 OFFCURVE",
"437 451 CURVE",
"410 489 OFFCURVE",
"360 512 OFFCURVE",
"303 512 CURVE"
);
}
);
};
layerId = "BE73C5E5-17BA-4B8B-9704-EF1C804AF4CB";
leftMetricsKey = "=n";
rightMetricsKey = "=n";
paths = (
{
closed = 1;
nodes = (
"215 0 LINE",
"215 323 LINE SMOOTH",
"215 367 OFFCURVE",
"237 386 OFFCURVE",
"287 386 CURVE SMOOTH",
"335 386 OFFCURVE",
"355 367 OFFCURVE",
"355 323 CURVE SMOOTH",
"355 0 LINE",
"505 0 LINE",
"505 323 LINE SMOOTH",
"505 367 OFFCURVE",
"527 386 OFFCURVE",
"577 386 CURVE SMOOTH",
"625 386 OFFCURVE",
"645 367 OFFCURVE",
"645 323 CURVE SMOOTH",
"645 0 LINE",
"795 0 LINE",
"795 355 LINE SMOOTH",
"795 467 OFFCURVE",
"711 522 OFFCURVE",
"614 522 CURVE SMOOTH",
"563 522 OFFCURVE",
"497 505 OFFCURVE",
"471 473 CURVE",
"425 510 OFFCURVE",
"392 522 OFFCURVE",
"334 522 CURVE SMOOTH",
"275 522 OFFCURVE",
"226 495 OFFCURVE",
"207 472 CURVE",
"207 510 LINE",
"65 510 LINE",
"65 0 LINE"
);
}
);
width = 855;
},
{
anchors = (
{
name = bottom;
position = "{410, 0}";
},
{
name = top;
position = "{410, 500}";
}
);
background = {
paths = (
{
closed = 1;
nodes = (
"283 512 OFFCURVE",
"266 510 OFFCURVE",
"249 506 CURVE",
"198 476 LINE SMOOTH",
"182 466 OFFCURVE",
"175 471 OFFCURVE",
"175 484 CURVE SMOOTH",
"175 500 LINE",
"95 500 LINE",
"95 0 LINE",
"175 0 LINE",
"175 348 LINE SMOOTH",
"175 404 OFFCURVE",
"205 440 OFFCURVE",
"287 440 CURVE SMOOTH",
"348 440 OFFCURVE",
"385 404 OFFCURVE",
"385 348 CURVE SMOOTH",
"385 0 LINE",
"465 0 LINE",
"465 348 LINE SMOOTH",
"465 404 OFFCURVE",
"491 440 OFFCURVE",
"566 440 CURVE SMOOTH",
"645 440 OFFCURVE",
"675 404 OFFCURVE",
"675 348 CURVE SMOOTH",
"675 0 LINE",
"755 0 LINE",
"755 357 LINE SMOOTH",
"755 449 OFFCURVE",
"699 512 OFFCURVE",
"587 512 CURVE SMOOTH",
"529 512 OFFCURVE",
"474 492 OFFCURVE",
"437 451 CURVE",
"410 489 OFFCURVE",
"360 512 OFFCURVE",
"303 512 CURVE"
);
}
);
};
layerId = "6DBC133B-A4A9-4EFF-965F-6B79E3B68C3E";
leftMetricsKey = "=n";
rightMetricsKey = "=n";
paths = (
{
closed = 1;
nodes = (
"165 0 LINE",
"165 348 LINE SMOOTH",
"165 404 OFFCURVE",
"195 440 OFFCURVE",
"277 440 CURVE SMOOTH",
"338 440 OFFCURVE",
"375 404 OFFCURVE",
"375 348 CURVE SMOOTH",
"375 0 LINE",
"455 0 LINE",
"455 348 LINE SMOOTH",
"455 404 OFFCURVE",
"481 440 OFFCURVE",
"556 440 CURVE SMOOTH",
"635 440 OFFCURVE",
"665 404 OFFCURVE",
"665 348 CURVE SMOOTH",
"665 0 LINE",
"745 0 LINE",
"745 357 LINE SMOOTH",
"745 449 OFFCURVE",
"689 512 OFFCURVE",
"577 512 CURVE SMOOTH",
"519 512 OFFCURVE",
"465 492 OFFCURVE",
"428 456 CURVE",
"401 489 OFFCURVE",
"355 512 OFFCURVE",
"298 512 CURVE SMOOTH",
"239 512 OFFCURVE",
"192 485 OFFCURVE",
"165 460 CURVE",
"165 500 LINE",
"85 500 LINE",
"85 0 LINE"
);
}
);
width = 825;
}
);
leftKerningGroup = n;
leftMetricsKey = n;
rightKerningGroup = n;
rightMetricsKey = n;
unicode = 006D;
userData = {
com.schriftgestaltung.Glyphs.ColorIndex = 3;
com.schriftgestaltung.Glyphs.layer.leftMetricsKey = "==n";
com.schriftgestaltung.Glyphs.layer.rightMetricsKey = "==n";
com.schriftgestaltung.Glyphs.leftMetricsKey = n;
com.schriftgestaltung.Glyphs.rightMetricsKey = n;
com.typemytype.robofont.layerData = {
background = {
anchors = (
);
components = (
);
contours = (
{
points = (
{
smooth = 0;
x = 283;
y = 512;
},
{
smooth = 0;
x = 266;
y = 510;
},
{
segmentType = curve;
smooth = 0;
x = 249;
y = 506;
},
{
segmentType = line;
smooth = 1;
x = 198;
y = 476;
},
{
smooth = 0;
x = 182;
y = 466;
},
{
smooth = 0;
x = 175;
y = 471;
},
{
segmentType = curve;
smooth = 1;
x = 175;
y = 484;
},
{
segmentType = line;
smooth = 0;
x = 175;
y = 500;
},
{
segmentType = line;
smooth = 0;
x = 95;
y = 500;
},
{
segmentType = line;
smooth = 0;
x = 95;
y = 0;
},
{
segmentType = line;
smooth = 0;
x = 175;
y = 0;
},
{
segmentType = line;
smooth = 1;
x = 175;
y = 348;
},
{
smooth = 0;
x = 175;
y = 404;
},
{
smooth = 0;
x = 205;
y = 440;
},
{
segmentType = curve;
smooth = 1;
x = 287;
y = 440;
},
{
smooth = 0;
x = 348;
y = 440;
},
{
smooth = 0;
x = 385;
y = 404;
},
{
segmentType = curve;
smooth = 1;
x = 385;
y = 348;
},
{
segmentType = line;
smooth = 0;
x = 385;
y = 0;
},
{
segmentType = line;
smooth = 0;
x = 465;
y = 0;
},
{
segmentType = line;
smooth = 1;
x = 465;
y = 348;
},
{
smooth = 0;
x = 465;
y = 404;
},
{
smooth = 0;
x = 491;
y = 440;
},
{
segmentType = curve;
smooth = 1;
x = 566;
y = 440;
},
{
smooth = 0;
x = 645;
y = 440;
},
{
smooth = 0;
x = 675;
y = 404;
},
{
segmentType = curve;
smooth = 1;
x = 675;
y = 348;
},
{
segmentType = line;
smooth = 0;
x = 675;
y = 0;
},
{
segmentType = line;
smooth = 0;
x = 755;
y = 0;
},
{
segmentType = line;
smooth = 1;
x = 755;
y = 357;
},
{
smooth = 0;
x = 755;
y = 449;
},
{
smooth = 0;
x = 699;
y = 512;
},
{
segmentType = curve;
smooth = 1;
x = 587;
y = 512;
},
{
smooth = 0;
x = 529;
y = 512;
},
{
smooth = 0;
x = 474;
y = 492;
},
{
segmentType = curve;
smooth = 0;
x = 437;
y = 451;
},
{
smooth = 0;
x = 410;
y = 489;
},
{
smooth = 0;
x = 360;
y = 512;
},
{
segmentType = curve;
smooth = 0;
x = 303;
y = 512;
}
);
}
);
lib = {
};
name = m;
unicodes = (
);
width = 825;
};
};
};
},
{
color = 6;
glyphname = n;
lastChange = "2022-04-28 14:27:10 +0000";
layers = (
{
anchors = (
{
name = bottom;
position = "{284, 0}";
},
{
name = top;
position = "{284, 510}";
}
);
layerId = "BE73C5E5-17BA-4B8B-9704-EF1C804AF4CB";
paths = (
{
closed = 1;
nodes = (
"215 0 LINE",
"215 314 LINE SMOOTH",
"215 364 OFFCURVE",
"234 386 OFFCURVE",
"288 386 CURVE SMOOTH",
"343 386 OFFCURVE",
"357 364 OFFCURVE",
"357 314 CURVE SMOOTH",
"357 0 LINE",
"507 0 LINE",
"507 366 LINE SMOOTH",
"507 473 OFFCURVE",
"425 522 OFFCURVE",
"336 522 CURVE SMOOTH",
"289 522 OFFCURVE",
"249 508 OFFCURVE",
"215 482 CURVE",
"215 510 LINE",
"65 510 LINE",
"65 0 LINE"
);
}
);
width = 567;
},
{
anchors = (
{
name = bottom;
position = "{266, 0}";
},
{
name = top;
position = "{266, 500}";
}
);
layerId = "6DBC133B-A4A9-4EFF-965F-6B79E3B68C3E";
paths = (
{
closed = 1;
nodes = (
"165 0 LINE",
"165 348 LINE SMOOTH",
"165 404 OFFCURVE",
"204 440 OFFCURVE",
"272 440 CURVE SMOOTH",
"341 440 OFFCURVE",
"377 404 OFFCURVE",
"377 348 CURVE SMOOTH",
"377 0 LINE",
"457 0 LINE",
"457 357 LINE SMOOTH",
"457 449 OFFCURVE",
"394 512 OFFCURVE",
"290 512 CURVE SMOOTH",
"236 512 OFFCURVE",
"192 492 OFFCURVE",
"165 471 CURVE",
"165 500 LINE",
"85 500 LINE",
"85 0 LINE"
);
}
);
width = 537;
}
);
leftKerningGroup = n;
rightKerningGroup = n;
unicode = 006E;
userData = {
com.schriftgestaltung.Glyphs.ColorIndex = 3;
};
},
{
color = 6;
glyphname = eng;
lastChange = "2022-04-28 14:27:10 +0000";
layers = (
{
layerId = "6DBC133B-A4A9-4EFF-965F-6B79E3B68C3E";
paths = (
{
closed = 1;
nodes = (
"403 -190 OFFCURVE",
"457 -124 OFFCURVE",
"457 0 CURVE SMOOTH",
"457 357 LINE SMOOTH",
"457 449 OFFCURVE",
"394 512 OFFCURVE",
"290 512 CURVE SMOOTH",
"236 512 OFFCURVE",
"192 492 OFFCURVE",
"165 471 CURVE",
"165 500 LINE",
"85 500 LINE",
"85 0 LINE",
"165 0 LINE",
"165 348 LINE SMOOTH",
"165 404 OFFCURVE",
"204 440 OFFCURVE",
"272 440 CURVE SMOOTH",
"341 440 OFFCURVE",
"377 404 OFFCURVE",
"377 348 CURVE SMOOTH",
"377 0 LINE SMOOTH",
"377 -86 OFFCURVE",
"341 -138 OFFCURVE",
"287 -154 CURVE",
"315 -222 LINE"
);
}
);
width = 537;
},
{
layerId = "BE73C5E5-17BA-4B8B-9704-EF1C804AF4CB";
paths = (
{
closed = 1;
nodes = (
"392 -215 OFFCURVE",
"507 -151 OFFCURVE",
"507 0 CURVE SMOOTH",
"507 366 LINE SMOOTH",
"507 473 OFFCURVE",
"425 522 OFFCURVE",
"336 522 CURVE SMOOTH",
"289 522 OFFCURVE",
"249 508 OFFCURVE",
"215 482 CURVE",
"215 510 LINE",
"65 510 LINE",
"65 0 LINE",
"215 0 LINE",
"215 314 LINE SMOOTH",
"215 364 OFFCURVE",
"234 386 OFFCURVE",
"288 386 CURVE SMOOTH",
"343 386 OFFCURVE",
"357 364 OFFCURVE",
"357 314 CURVE SMOOTH",
"357 0 LINE SMOOTH",
"357 -52 OFFCURVE",
"319 -77 OFFCURVE",
"257 -91 CURVE",
"291 -222 LINE"
);
}
);
width = 567;
}
);
leftMetricsKey = n;
rightMetricsKey = n;
unicode = 014B;
},
{
color = 6;
glyphname = o;
lastChange = "2022-04-28 14:27:10 +0000";
layers = (
{
anchors = (
{
name = bottom;
position = "{275, 0}";
},
{
name = center;
position = "{275, 255}";
},
{
name = ogonek;
position = "{494, 10}";
},
{
name = top;
position = "{275, 510}";
},
{
name = topright;
position = "{529, 510}";
}
);
background = {
paths = (
{
closed = 1;
nodes = (
"368 512 OFFCURVE",
"299 438 OFFCURVE",
"287 338 CURVE SMOOTH",
"283 305 OFFCURVE",
"281 277 OFFCURVE",
"281 249 CURVE SMOOTH",
"281 221 OFFCURVE",
"283 194 OFFCURVE",
"287 162 CURVE SMOOTH",
"299 63 OFFCURVE",
"368 -11 OFFCURVE",
"488 -11 CURVE SMOOTH",
"608 -11 OFFCURVE",
"677 63 OFFCURVE",
"689 162 CURVE SMOOTH",
"693 194 OFFCURVE",
"695 221 OFFCURVE",
"695 249 CURVE SMOOTH",
"695 277 OFFCURVE",
"693 305 OFFCURVE",
"689 338 CURVE SMOOTH",
"677 438 OFFCURVE",
"608 512 OFFCURVE",
"488 512 CURVE SMOOTH"
);
},
{
closed = 1;
nodes = (
"566 440 OFFCURVE",
"608 391 OFFCURVE",
"613 333 CURVE SMOOTH",
"618 271 OFFCURVE",
"618 226 OFFCURVE",
"612 166 CURVE SMOOTH",
"606 108 OFFCURVE",
"566 61 OFFCURVE",
"488 61 CURVE SMOOTH",
"410 61 OFFCURVE",
"370 108 OFFCURVE",
"364 166 CURVE SMOOTH",
"358 226 OFFCURVE",
"358 271 OFFCURVE",
"363 333 CURVE SMOOTH",
"368 391 OFFCURVE",
"410 440 OFFCURVE",
"488 440 CURVE SMOOTH"
);
}
);
};
layerId = "BE73C5E5-17BA-4B8B-9704-EF1C804AF4CB";
paths = (
{
closed = 1;
nodes = (
"406 -12 OFFCURVE",
"483 64 OFFCURVE",
"498 165 CURVE SMOOTH",
"502 197 OFFCURVE",
"504 225 OFFCURVE",
"504 253 CURVE SMOOTH",
"504 283 OFFCURVE",
"502 312 OFFCURVE",
"498 345 CURVE SMOOTH",
"485 447 OFFCURVE",
"406 522 OFFCURVE",
"274 522 CURVE SMOOTH",
"142 522 OFFCURVE",
"65 446 OFFCURVE",
"51 345 CURVE SMOOTH",
"46 312 OFFCURVE",
"45 283 OFFCURVE",
"45 253 CURVE SMOOTH",
"45 225 OFFCURVE",
"47 197 OFFCURVE",
"51 165 CURVE SMOOTH",
"64 64 OFFCURVE",
"142 -12 OFFCURVE",
"274 -12 CURVE SMOOTH"
);
},
{
closed = 1;
nodes = (
"224 112 OFFCURVE",
"197 146 OFFCURVE",
"193 188 CURVE SMOOTH",
"188 236 OFFCURVE",
"187 273 OFFCURVE",
"192 322 CURVE SMOOTH",
"196 364 OFFCURVE",
"224 399 OFFCURVE",
"274 399 CURVE SMOOTH",
"325 399 OFFCURVE",
"353 364 OFFCURVE",
"357 322 CURVE SMOOTH",
"362 272 OFFCURVE",
"362 236 OFFCURVE",
"356 187 CURVE SMOOTH",
"351 147 OFFCURVE",
"325 112 OFFCURVE",
"274 112 CURVE SMOOTH"
);
}
);
width = 549;
},
{
anchors = (
{
name = bottom;
position = "{255, 0}";
},
{
name = center;
position = "{255, 250}";
},
{
name = ogonek;
position = "{459, 10}";
},
{
name = top;
position = "{255, 500}";
},
{
name = topright;
position = "{490, 500}";
}
);
background = {
paths = (
{
closed = 1;
nodes = (
"539 66 OFFCURVE",
"451 -8 OFFCURVE",
"332 -8 CURVE SMOOTH",
"213 -8 OFFCURVE",
"125 66 OFFCURVE",
"125 252 CURVE SMOOTH",
"125 438 OFFCURVE",
"213 512 OFFCURVE",
"332 512 CURVE SMOOTH",
"451 512 OFFCURVE",
"539 438 OFFCURVE",
"539 252 CURVE SMOOTH"
);
},
{
closed = 1;
nodes = (
"465 408 OFFCURVE",
"406 446 OFFCURVE",
"332 446 CURVE SMOOTH",
"259 446 OFFCURVE",
"199 406 OFFCURVE",
"199 252 CURVE SMOOTH",
"199 98 OFFCURVE",
"259 58 OFFCURVE",
"332 58 CURVE SMOOTH",
"406 58 OFFCURVE",
"465 96 OFFCURVE",
"465 252 CURVE SMOOTH"
);
}
);
};
layerId = "6DBC133B-A4A9-4EFF-965F-6B79E3B68C3E";
paths = (
{
closed = 1;
nodes = (
"371 -11 OFFCURVE",
"437 63 OFFCURVE",
"449 162 CURVE SMOOTH",
"453 194 OFFCURVE",
"455 221 OFFCURVE",
"455 249 CURVE SMOOTH",
"455 277 OFFCURVE",
"453 305 OFFCURVE",
"449 338 CURVE SMOOTH",
"437 438 OFFCURVE",
"371 511 OFFCURVE",
"255 511 CURVE SMOOTH",
"139 511 OFFCURVE",
"73 438 OFFCURVE",
"61 338 CURVE SMOOTH",
"57 305 OFFCURVE",
"55 277 OFFCURVE",
"55 249 CURVE SMOOTH",
"55 221 OFFCURVE",
"57 194 OFFCURVE",
"61 162 CURVE SMOOTH",
"73 63 OFFCURVE",
"139 -11 OFFCURVE",
"255 -11 CURVE SMOOTH"
);
},
{
closed = 1;
nodes = (
"182 58 OFFCURVE",
"144 107 OFFCURVE",
"138 165 CURVE SMOOTH",
"132 225 OFFCURVE",
"133 271 OFFCURVE",
"137 333 CURVE SMOOTH",
"141 391 OFFCURVE",
"182 440 OFFCURVE",
"255 440 CURVE SMOOTH",
"328 440 OFFCURVE",
"367 391 OFFCURVE",
"372 333 CURVE SMOOTH",
"377 271 OFFCURVE",
"377 225 OFFCURVE",
"372 165 CURVE SMOOTH",
"367 107 OFFCURVE",
"328 58 OFFCURVE",
"255 58 CURVE SMOOTH"
);
}
);
width = 510;
}
);
leftKerningGroup = o;
rightKerningGroup = o;
unicode = 006F;
userData = {
com.schriftgestaltung.Glyphs.ColorIndex = 3;
com.typemytype.robofont.layerData = {
background = {
anchors = (
);
components = (
);
contours = (
{
points = (
{
smooth = 0;
x = 539;
y = 66;
},
{
smooth = 0;
x = 451;
y = -8;
},
{
segmentType = curve;
smooth = 1;
x = 332;
y = -8;
},
{
smooth = 0;
x = 213;
y = -8;
},
{
smooth = 0;
x = 125;
y = 66;
},
{
segmentType = curve;
smooth = 1;
x = 125;
y = 252;
},
{
smooth = 0;
x = 125;
y = 438;
},
{
smooth = 0;
x = 213;
y = 512;
},
{
segmentType = curve;
smooth = 1;
x = 332;
y = 512;
},
{
smooth = 0;
x = 451;
y = 512;
},
{
smooth = 0;
x = 539;
y = 438;
},
{
segmentType = curve;
smooth = 1;
x = 539;
y = 252;
}
);
},
{
points = (
{
smooth = 0;
x = 465;
y = 408;
},
{
smooth = 0;
x = 406;
y = 446;
},
{
segmentType = curve;
smooth = 1;
x = 332;
y = 446;
},
{
smooth = 0;
x = 259;
y = 446;
},
{
smooth = 0;
x = 199;
y = 406;
},
{
segmentType = curve;
smooth = 1;
x = 199;
y = 252;
},
{
smooth = 0;
x = 199;
y = 98;
},
{
smooth = 0;
x = 259;
y = 58;
},
{
segmentType = curve;
smooth = 1;
x = 332;
y = 58;
},
{
smooth = 0;
x = 406;
y = 58;
},
{
smooth = 0;
x = 465;
y = 96;
},
{
segmentType = curve;
smooth = 1;
x = 465;
y = 252;
}
);
}
);
lib = {
};
name = o;
unicodes = (
);
width = 510;
};
};
};
},
{
color = 6;
glyphname = oe;
lastChange = "2022-04-28 14:27:10 +0000";
layers = (
{
anchors = (
{
name = bottom;
position = "{432, 0}";
},
{
name = top;
position = "{432, 510}";
}
);
layerId = "BE73C5E5-17BA-4B8B-9704-EF1C804AF4CB";
paths = (
{
closed = 1;
nodes = (
"333 -12 OFFCURVE",
"380 4 OFFCURVE",
"416 30 CURVE",
"431 47 LINE SMOOTH",
"436 53 OFFCURVE",
"442 53 OFFCURVE",
"447 47 CURVE SMOOTH",
"462 30 LINE",
"503 5 OFFCURVE",
"556 -10 OFFCURVE",
"619 -10 CURVE SMOOTH",
"673 -10 OFFCURVE",
"726 4 OFFCURVE",
"771 34 CURVE",
"733 141 LINE",
"692 122 OFFCURVE",
"657 112 OFFCURVE",
"619 112 CURVE SMOOTH",
"560 112 OFFCURVE",
"513 132 OFFCURVE",
"507 200 CURVE",
"506 206 OFFCURVE",
"506 213 OFFCURVE",
"506 219 CURVE",
"780 219 LINE",
"801 271 LINE",
"801 431 OFFCURVE",
"731 520 OFFCURVE",
"585 520 CURVE SMOOTH",
"536 520 OFFCURVE",
"495 506 OFFCURVE",
"461 485 CURVE",
"443 466 LINE SMOOTH",
"438 461 OFFCURVE",
"431 460 OFFCURVE",
"426 466 CURVE SMOOTH",
"408 485 LINE",
"373 507 OFFCURVE",
"329 522 OFFCURVE",
"274 522 CURVE SMOOTH",
"142 522 OFFCURVE",
"65 446 OFFCURVE",
"51 345 CURVE SMOOTH",
"46 312 OFFCURVE",
"45 283 OFFCURVE",
"45 253 CURVE SMOOTH",
"45 225 OFFCURVE",
"47 197 OFFCURVE",
"51 165 CURVE SMOOTH",
"64 64 OFFCURVE",
"142 -12 OFFCURVE",
"274 -12 CURVE SMOOTH"
);
},
{
closed = 1;
nodes = (
"224 112 OFFCURVE",
"197 146 OFFCURVE",
"193 188 CURVE SMOOTH",
"188 236 OFFCURVE",
"187 273 OFFCURVE",
"192 322 CURVE SMOOTH",
"196 364 OFFCURVE",
"224 399 OFFCURVE",
"274 399 CURVE SMOOTH",
"325 399 OFFCURVE",
"353 364 OFFCURVE",
"357 322 CURVE SMOOTH",
"362 272 OFFCURVE",
"362 236 OFFCURVE",
"356 187 CURVE SMOOTH",
"351 147 OFFCURVE",
"325 112 OFFCURVE",
"274 112 CURVE SMOOTH"
);
},
{
closed = 1;
nodes = (
"514 372 OFFCURVE",
"536 403 OFFCURVE",
"587 403 CURVE SMOOTH",
"645 403 OFFCURVE",
"661 362 OFFCURVE",
"665 320 CURVE",
"508 320 LINE"
);
}
);
width = 836;
},
{
anchors = (
{
name = bottom;
position = "{401, 0}";
},
{
name = top;
position = "{401, 500}";
}
);
layerId = "6DBC133B-A4A9-4EFF-965F-6B79E3B68C3E";
paths = (
{
closed = 1;
nodes = (
"319 -11 OFFCURVE",
"368 13 OFFCURVE",
"398 49 CURVE",
"410 80 LINE SMOOTH",
"413 88 OFFCURVE",
"421 88 OFFCURVE",
"424 80 CURVE SMOOTH",
"437 49 LINE",
"468 12 OFFCURVE",
"517 -10 OFFCURVE",
"584 -10 CURVE SMOOTH",
"650 -10 OFFCURVE",
"688 4 OFFCURVE",
"743 43 CURVE",
"719 104 LINE",
"681 75 OFFCURVE",
"635 58 OFFCURVE",
"584 58 CURVE SMOOTH",
"502 58 OFFCURVE",
"467 109 OFFCURVE",
"461 166 CURVE SMOOTH",
"458 190 OFFCURVE",
"457 212 OFFCURVE",
"457 233 CURVE",
"741 232 LINE",
"761 285 LINE",
"761 374 OFFCURVE",
"737 510 OFFCURVE",
"575 510 CURVE SMOOTH",
"517 510 OFFCURVE",
"472 488 OFFCURVE",
"442 455 CURVE",
"424 421 LINE SMOOTH",
"420 414 OFFCURVE",
"413 414 OFFCURVE",
"410 421 CURVE SMOOTH",
"393 455 LINE",
"362 488 OFFCURVE",
"316 511 OFFCURVE",
"255 511 CURVE SMOOTH",
"139 511 OFFCURVE",
"73 438 OFFCURVE",
"61 338 CURVE SMOOTH",
"57 305 OFFCURVE",
"55 277 OFFCURVE",
"55 249 CURVE SMOOTH",
"55 221 OFFCURVE",
"57 194 OFFCURVE",
"61 162 CURVE SMOOTH",
"73 63 OFFCURVE",
"139 -11 OFFCURVE",
"255 -11 CURVE SMOOTH"
);
},
{
closed = 1;
nodes = (
"182 58 OFFCURVE",
"144 107 OFFCURVE",
"138 165 CURVE SMOOTH",
"132 225 OFFCURVE",
"133 271 OFFCURVE",
"137 333 CURVE SMOOTH",
"141 391 OFFCURVE",
"182 440 OFFCURVE",
"255 440 CURVE SMOOTH",
"328 440 OFFCURVE",
"367 391 OFFCURVE",
"372 333 CURVE SMOOTH",
"377 271 OFFCURVE",
"377 225 OFFCURVE",
"372 165 CURVE SMOOTH",
"367 107 OFFCURVE",
"328 58 OFFCURVE",
"255 58 CURVE SMOOTH"
);
},
{
closed = 1;
nodes = (
"458 385 OFFCURVE",
"499 440 OFFCURVE",
"575 440 CURVE SMOOTH",
"665 440 OFFCURVE",
"685 370 OFFCURVE",
"685 302 CURVE",
"458 302 LINE"
);
}
);
width = 806;
}
);
leftKerningGroup = o;
leftMetricsKey = o;
rightKerningGroup = e;
rightMetricsKey = e;
unicode = 0153;
userData = {
com.schriftgestaltung.Glyphs.leftMetricsKey = o;
com.schriftgestaltung.Glyphs.rightMetricsKey = e;
};
},
{
color = 6;
glyphname = p;
lastChange = "2022-04-28 14:27:10 +0000";
layers = (
{
anchors = (
{
name = bottom;
position = "{285, 0}";
},
{
name = top;
position = "{285, 510}";
}
);
layerId = "BE73C5E5-17BA-4B8B-9704-EF1C804AF4CB";
leftMetricsKey = "=n";
rightMetricsKey = "=o";
paths = (
{
closed = 1;
nodes = (
"215 -200 LINE",
"215 23 LINE SMOOTH",
"215 34 OFFCURVE",
"222 39 OFFCURVE",
"236 31 CURVE SMOOTH",
"300 -6 LINE",
"311 -9 OFFCURVE",
"322 -10 OFFCURVE",
"334 -10 CURVE SMOOTH",
"450 -10 OFFCURVE",
"506 50 OFFCURVE",
"515 154 CURVE SMOOTH",
"518 195 OFFCURVE",
"520 226 OFFCURVE",
"520 257 CURVE SMOOTH",
"520 289 OFFCURVE",
"519 319 OFFCURVE",
"515 358 CURVE SMOOTH",
"504 463 OFFCURVE",
"446 522 OFFCURVE",
"324 522 CURVE SMOOTH",
"281 522 OFFCURVE",
"239 504 OFFCURVE",
"215 481 CURVE",
"215 510 LINE",
"65 510 LINE",
"65 -200 LINE"
);
},
{
closed = 1;
nodes = (
"243 114 OFFCURVE",
"215 143 OFFCURVE",
"215 184 CURVE SMOOTH",
"215 328 LINE SMOOTH",
"215 370 OFFCURVE",
"238 397 OFFCURVE",
"292 397 CURVE SMOOTH",
"338 397 OFFCURVE",
"362 372 OFFCURVE",
"365 341 CURVE SMOOTH",
"370 285 OFFCURVE",
"370 226 OFFCURVE",
"365 170 CURVE SMOOTH",
"362 139 OFFCURVE",
"341 114 OFFCURVE",
"292 114 CURVE SMOOTH"
);
}
);
width = 565;
},
{
anchors = (
{
name = bottom;
position = "{265, 0}";
},
{
name = top;
position = "{265, 500}";
}
);
layerId = "6DBC133B-A4A9-4EFF-965F-6B79E3B68C3E";
leftMetricsKey = "=n";
rightMetricsKey = "=o";
paths = (
{
closed = 1;
nodes = (
"165 -200 LINE",
"165 16 LINE SMOOTH",
"165 28 OFFCURVE",
"175 34 OFFCURVE",
"186 27 CURVE SMOOTH",
"236 -5 LINE",
"252 -8 OFFCURVE",
"261 -10 OFFCURVE",
"284 -10 CURVE SMOOTH",
"400 -10 OFFCURVE",
"461 60 OFFCURVE",
"470 162 CURVE SMOOTH",
"473 197 OFFCURVE",
"474 224 OFFCURVE",
"474 251 CURVE SMOOTH",
"474 279 OFFCURVE",
"473 306 OFFCURVE",
"470 339 CURVE SMOOTH",
"461 440 OFFCURVE",
"400 510 OFFCURVE",
"284 510 CURVE SMOOTH",
"237 510 OFFCURVE",
"191 495 OFFCURVE",
"165 472 CURVE",
"165 500 LINE",
"85 500 LINE",
"85 -200 LINE"
);
},
{
closed = 1;
nodes = (
"205 58 OFFCURVE",
"165 94 OFFCURVE",
"165 148 CURVE SMOOTH",
"165 352 LINE SMOOTH",
"165 406 OFFCURVE",
"205 440 OFFCURVE",
"275 440 CURVE SMOOTH",
"355 440 OFFCURVE",
"386 393 OFFCURVE",
"392 333 CURVE SMOOTH",
"397 278 OFFCURVE",
"396 222 OFFCURVE",
"392 167 CURVE SMOOTH",
"387 107 OFFCURVE",
"355 58 OFFCURVE",
"275 58 CURVE SMOOTH"
);
}
);
width = 529;
}
);
leftKerningGroup = n;
leftMetricsKey = n;
rightKerningGroup = o;
unicode = 0070;
userData = {
com.schriftgestaltung.Glyphs.ColorIndex = 3;
com.schriftgestaltung.Glyphs.layer.leftMetricsKey = "==n";
com.schriftgestaltung.Glyphs.layer.rightMetricsKey = "==o";
com.schriftgestaltung.Glyphs.leftMetricsKey = n;
};
},
{
color = 6;
glyphname = thorn;
lastChange = "2022-04-28 14:27:10 +0000";
layers = (
{
anchors = (
{
name = bottom;
position = "{285, 0}";
},
{
name = top;
position = "{285, 510}";
}
);
layerId = "BE73C5E5-17BA-4B8B-9704-EF1C804AF4CB";
paths = (
{
closed = 1;
nodes = (
"215 -200 LINE",
"215 23 LINE SMOOTH",
"215 34 OFFCURVE",
"222 39 OFFCURVE",
"236 31 CURVE SMOOTH",
"300 -6 LINE",
"311 -9 OFFCURVE",
"322 -10 OFFCURVE",
"334 -10 CURVE SMOOTH",
"450 -10 OFFCURVE",
"506 50 OFFCURVE",
"515 154 CURVE SMOOTH",
"518 195 OFFCURVE",
"520 226 OFFCURVE",
"520 257 CURVE SMOOTH",
"520 289 OFFCURVE",
"519 319 OFFCURVE",
"515 358 CURVE SMOOTH",
"504 463 OFFCURVE",
"446 522 OFFCURVE",
"324 522 CURVE SMOOTH",
"281 522 OFFCURVE",
"239 504 OFFCURVE",
"215 481 CURVE",
"215 700 LINE",
"65 700 LINE",
"65 -200 LINE"
);
},
{
closed = 1;
nodes = (
"243 114 OFFCURVE",
"215 143 OFFCURVE",
"215 184 CURVE SMOOTH",
"215 328 LINE SMOOTH",
"215 370 OFFCURVE",
"238 397 OFFCURVE",
"292 397 CURVE SMOOTH",
"338 397 OFFCURVE",
"362 372 OFFCURVE",
"365 341 CURVE SMOOTH",
"370 285 OFFCURVE",
"370 226 OFFCURVE",
"365 170 CURVE SMOOTH",
"362 139 OFFCURVE",
"341 114 OFFCURVE",
"292 114 CURVE SMOOTH"
);
}
);
width = 565;
},
{
anchors = (
{
name = bottom;
position = "{265, 0}";
},
{
name = top;
position = "{265, 500}";
}
);
layerId = "6DBC133B-A4A9-4EFF-965F-6B79E3B68C3E";
paths = (
{
closed = 1;
nodes = (
"165 -200 LINE",
"165 16 LINE SMOOTH",
"165 28 OFFCURVE",
"175 34 OFFCURVE",
"186 27 CURVE SMOOTH",
"236 -5 LINE",
"252 -8 OFFCURVE",
"261 -10 OFFCURVE",
"284 -10 CURVE SMOOTH",
"400 -10 OFFCURVE",
"461 60 OFFCURVE",
"470 162 CURVE SMOOTH",
"473 197 OFFCURVE",
"474 224 OFFCURVE",
"474 251 CURVE SMOOTH",
"474 279 OFFCURVE",
"473 306 OFFCURVE",
"470 339 CURVE SMOOTH",
"461 440 OFFCURVE",
"400 510 OFFCURVE",
"284 510 CURVE SMOOTH",
"237 510 OFFCURVE",
"191 495 OFFCURVE",
"165 472 CURVE",
"165 700 LINE",
"85 700 LINE",
"85 -200 LINE"
);
},
{
closed = 1;
nodes = (
"205 58 OFFCURVE",
"165 94 OFFCURVE",
"165 148 CURVE SMOOTH",
"165 352 LINE SMOOTH",
"165 406 OFFCURVE",
"205 440 OFFCURVE",
"275 440 CURVE SMOOTH",
"355 440 OFFCURVE",
"386 393 OFFCURVE",
"392 333 CURVE SMOOTH",
"397 278 OFFCURVE",
"396 222 OFFCURVE",
"392 167 CURVE SMOOTH",
"387 107 OFFCURVE",
"355 58 OFFCURVE",
"275 58 CURVE SMOOTH"
);
}
);
width = 529;
}
);
leftKerningGroup = h;
leftMetricsKey = p;
rightKerningGroup = o;
rightMetricsKey = p;
unicode = 00FE;
userData = {
com.schriftgestaltung.Glyphs.leftMetricsKey = p;
com.schriftgestaltung.Glyphs.rightMetricsKey = p;
};
},
{
color = 6;
glyphname = q;
lastChange = "2022-04-28 14:27:10 +0000";
layers = (
{
anchors = (
{
name = bottom;
position = "{285, 0}";
},
{
name = top;
position = "{285, 510}";
}
);
layerId = "BE73C5E5-17BA-4B8B-9704-EF1C804AF4CB";
leftMetricsKey = "=o";
rightMetricsKey = "=i";
paths = (
{
closed = 1;
nodes = (
"500 -200 LINE",
"500 510 LINE",
"350 510 LINE",
"350 481 LINE",
"326 504 OFFCURVE",
"284 522 OFFCURVE",
"241 522 CURVE SMOOTH",
"119 522 OFFCURVE",
"61 463 OFFCURVE",
"50 358 CURVE SMOOTH",
"46 319 OFFCURVE",
"45 289 OFFCURVE",
"45 257 CURVE SMOOTH",
"45 226 OFFCURVE",
"47 195 OFFCURVE",
"50 154 CURVE SMOOTH",
"59 50 OFFCURVE",
"115 -10 OFFCURVE",
"231 -10 CURVE SMOOTH",
"243 -10 OFFCURVE",
"254 -9 OFFCURVE",
"265 -6 CURVE",
"329 31 LINE SMOOTH",
"343 39 OFFCURVE",
"350 34 OFFCURVE",
"350 23 CURVE SMOOTH",
"350 -200 LINE"
);
},
{
closed = 1;
nodes = (
"224 114 OFFCURVE",
"203 139 OFFCURVE",
"200 170 CURVE SMOOTH",
"195 226 OFFCURVE",
"195 285 OFFCURVE",
"200 341 CURVE SMOOTH",
"203 372 OFFCURVE",
"227 397 OFFCURVE",
"273 397 CURVE SMOOTH",
"327 397 OFFCURVE",
"350 370 OFFCURVE",
"350 328 CURVE SMOOTH",
"350 184 LINE SMOOTH",
"350 143 OFFCURVE",
"322 114 OFFCURVE",
"273 114 CURVE SMOOTH"
);
}
);
width = 565;
},
{
anchors = (
{
name = bottom;
position = "{265, 0}";
},
{
name = top;
position = "{265, 500}";
}
);
layerId = "6DBC133B-A4A9-4EFF-965F-6B79E3B68C3E";
leftMetricsKey = "=o";
rightMetricsKey = "=i";
paths = (
{
closed = 1;
nodes = (
"444 -200 LINE",
"444 500 LINE",
"364 500 LINE",
"364 472 LINE",
"338 495 OFFCURVE",
"292 510 OFFCURVE",
"245 510 CURVE SMOOTH",
"129 510 OFFCURVE",
"68 440 OFFCURVE",
"59 339 CURVE SMOOTH",
"56 306 OFFCURVE",
"55 279 OFFCURVE",
"55 251 CURVE SMOOTH",
"55 224 OFFCURVE",
"56 197 OFFCURVE",
"59 162 CURVE SMOOTH",
"68 60 OFFCURVE",
"129 -10 OFFCURVE",
"245 -10 CURVE SMOOTH",
"268 -10 OFFCURVE",
"277 -8 OFFCURVE",
"293 -5 CURVE",
"345 27 LINE SMOOTH",
"356 34 OFFCURVE",
"364 29 OFFCURVE",
"364 17 CURVE SMOOTH",
"364 -200 LINE"
);
},
{
closed = 1;
nodes = (
"174 58 OFFCURVE",
"142 107 OFFCURVE",
"137 167 CURVE SMOOTH",
"133 222 OFFCURVE",
"132 278 OFFCURVE",
"137 333 CURVE SMOOTH",
"143 393 OFFCURVE",
"174 440 OFFCURVE",
"254 440 CURVE SMOOTH",
"324 440 OFFCURVE",
"364 406 OFFCURVE",
"364 352 CURVE SMOOTH",
"364 148 LINE SMOOTH",
"364 94 OFFCURVE",
"324 58 OFFCURVE",
"254 58 CURVE SMOOTH"
);
}
);
width = 529;
}
);
leftKerningGroup = o;
leftMetricsKey = o;
rightKerningGroup = q;
rightMetricsKey = i;
unicode = 0071;
userData = {
com.schriftgestaltung.Glyphs.ColorIndex = 3;
com.schriftgestaltung.Glyphs.layer.leftMetricsKey = "==o";
com.schriftgestaltung.Glyphs.layer.rightMetricsKey = "==i";
com.schriftgestaltung.Glyphs.leftMetricsKey = o;
com.schriftgestaltung.Glyphs.rightMetricsKey = n;
};
},
{
color = 6;
glyphname = r;
lastChange = "2022-04-28 14:27:10 +0000";
layers = (
{
anchors = (
{
name = bottom;
position = "{143, 0}";
},
{
name = top;
position = "{212, 500}";
}
);
layerId = "BE73C5E5-17BA-4B8B-9704-EF1C804AF4CB";
paths = (
{
closed = 1;
nodes = (
"226 0 LINE",
"226 271 LINE SMOOTH",
"226 348 OFFCURVE",
"269 390 OFFCURVE",
"387 390 CURVE",
"387 522 LINE",
"370 522 LINE SMOOTH",
"287 522 OFFCURVE",
"236 494 OFFCURVE",
"202 465 CURVE SMOOTH",
"192 455 OFFCURVE",
"185 456 OFFCURVE",
"178 466 CURVE SMOOTH",
"140 522 LINE",
"20 443 LINE",
"80 355 LINE",
"80 0 LINE"
);
}
);
width = 407;
},
{
anchors = (
{
name = bottom;
position = "{176, 0}";
},
{
name = top;
position = "{176, 500}";
}
);
layerId = "6DBC133B-A4A9-4EFF-965F-6B79E3B68C3E";
paths = (
{
closed = 1;
nodes = (
"170 0 LINE",
"170 318 LINE SMOOTH",
"170 386 OFFCURVE",
"226 430 OFFCURVE",
"341 430 CURVE",
"341 512 LINE",
"330 512 LINE SMOOTH",
"262 512 OFFCURVE",
"208 489 OFFCURVE",
"172 453 CURVE SMOOTH",
"162 443 OFFCURVE",
"155 442 OFFCURVE",
"146 455 CURVE SMOOTH",
"108 512 LINE",
"35 468 LINE",
"90 386 LINE",
"90 0 LINE"
);
}
);
width = 351;
}
);
leftKerningGroup = n;
rightKerningGroup = r;
unicode = 0072;
userData = {
com.schriftgestaltung.Glyphs.ColorIndex = 3;
};
},
{
color = 6;
glyphname = s;
lastChange = "2022-04-28 14:27:10 +0000";
layers = (
{
anchors = (
{
name = bottom;
position = "{238, 0}";
},
{
name = top;
position = "{238, 511}";
}
);
background = {
paths = (
{
closed = 1;
nodes = (
"246 523 CURVE SMOOTH",
"124 523 OFFCURVE",
"44 451 OFFCURVE",
"44 350 CURVE SMOOTH",
"44 256 OFFCURVE",
"113 203 OFFCURVE",
"209 198 CURVE SMOOTH",
"263 195 LINE SMOOTH",
"298 193 OFFCURVE",
"309 176 OFFCURVE",
"309 155 CURVE SMOOTH",
"309 127 OFFCURVE",
"289 109 OFFCURVE",
"239 109 CURVE SMOOTH",
"187 109 OFFCURVE",
"153 111 OFFCURVE",
"86 154 CURVE",
"44 46 LINE",
"122 -1 OFFCURVE",
"159 -11 OFFCURVE",
"238 -11 CURVE SMOOTH",
"360 -11 OFFCURVE",
"440 59 OFFCURVE",
"440 165 CURVE SMOOTH",
"440 259 OFFCURVE",
"373 316 OFFCURVE",
"275 321 CURVE SMOOTH",
"220 324 LINE SMOOTH",
"188 326 OFFCURVE",
"175 339 OFFCURVE",
"175 360 CURVE SMOOTH",
"175 385 OFFCURVE",
"197 403 OFFCURVE",
"247 403 CURVE SMOOTH",
"302 403 OFFCURVE",
"341 396 OFFCURVE",
"384 368 CURVE",
"426 476 LINE",
"373 510 OFFCURVE",
"322 523 OFFCURVE"
);
}
);
};
layerId = "BE73C5E5-17BA-4B8B-9704-EF1C804AF4CB";
paths = (
{
closed = 1;
nodes = (
"356 -11 OFFCURVE",
"436 49 OFFCURVE",
"436 166 CURVE SMOOTH",
"436 269 OFFCURVE",
"369 316 OFFCURVE",
"271 321 CURVE SMOOTH",
"216 324 LINE SMOOTH",
"185 326 OFFCURVE",
"170 339 OFFCURVE",
"170 360 CURVE SMOOTH",
"170 384 OFFCURVE",
"193 403 OFFCURVE",
"243 403 CURVE SMOOTH",
"298 403 OFFCURVE",
"337 396 OFFCURVE",
"380 368 CURVE",
"422 476 LINE",
"369 510 OFFCURVE",
"318 522 OFFCURVE",
"242 522 CURVE SMOOTH",
"120 522 OFFCURVE",
"40 461 OFFCURVE",
"40 350 CURVE SMOOTH",
"40 246 OFFCURVE",
"109 203 OFFCURVE",
"205 198 CURVE SMOOTH",
"259 195 LINE SMOOTH",
"293 193 OFFCURVE",
"305 176 OFFCURVE",
"305 155 CURVE SMOOTH",
"305 129 OFFCURVE",
"285 109 OFFCURVE",
"235 109 CURVE SMOOTH",
"183 109 OFFCURVE",
"149 111 OFFCURVE",
"82 154 CURVE",
"40 46 LINE",
"105 6 OFFCURVE",
"155 -11 OFFCURVE",
"234 -11 CURVE SMOOTH"
);
}
);
width = 476;
},
{
anchors = (
{
name = bottom;
position = "{226, 0}";
},
{
name = top;
position = "{226, 500}";
}
);
background = {
paths = (
{
closed = 1;
nodes = (
"246 523 CURVE SMOOTH",
"124 523 OFFCURVE",
"44 451 OFFCURVE",
"44 350 CURVE SMOOTH",
"44 256 OFFCURVE",
"113 203 OFFCURVE",
"209 198 CURVE SMOOTH",
"263 195 LINE SMOOTH",
"298 193 OFFCURVE",
"309 176 OFFCURVE",
"309 155 CURVE SMOOTH",
"309 127 OFFCURVE",
"289 109 OFFCURVE",
"239 109 CURVE SMOOTH",
"187 109 OFFCURVE",
"153 111 OFFCURVE",
"86 154 CURVE",
"44 46 LINE",
"122 -1 OFFCURVE",
"159 -11 OFFCURVE",
"238 -11 CURVE SMOOTH",
"360 -11 OFFCURVE",
"440 59 OFFCURVE",
"440 165 CURVE SMOOTH",
"440 259 OFFCURVE",
"373 316 OFFCURVE",
"275 321 CURVE SMOOTH",
"220 324 LINE SMOOTH",
"188 326 OFFCURVE",
"175 339 OFFCURVE",
"175 360 CURVE SMOOTH",
"175 385 OFFCURVE",
"197 403 OFFCURVE",
"247 403 CURVE SMOOTH",
"302 403 OFFCURVE",
"341 396 OFFCURVE",
"384 368 CURVE",
"426 476 LINE",
"373 510 OFFCURVE",
"322 523 OFFCURVE"
);
}
);
};
layerId = "6DBC133B-A4A9-4EFF-965F-6B79E3B68C3E";
paths = (
{
closed = 1;
nodes = (
"345 -12 OFFCURVE",
"412 57 OFFCURVE",
"412 146 CURVE SMOOTH",
"412 228 OFFCURVE",
"358 285 OFFCURVE",
"259 292 CURVE SMOOTH",
"201 296 LINE SMOOTH",
"161 299 OFFCURVE",
"131 320 OFFCURVE",
"131 360 CURVE SMOOTH",
"131 412 OFFCURVE",
"168 440 OFFCURVE",
"236 440 CURVE SMOOTH",
"291 440 OFFCURVE",
"335 424 OFFCURVE",
"366 403 CURVE",
"392 468 LINE",
"347 498 OFFCURVE",
"292 512 OFFCURVE",
"236 512 CURVE SMOOTH",
"125 512 OFFCURVE",
"55 449 OFFCURVE",
"55 357 CURVE SMOOTH",
"55 271 OFFCURVE",
"114 229 OFFCURVE",
"192 224 CURVE SMOOTH",
"251 220 LINE SMOOTH",
"304 216 OFFCURVE",
"336 186 OFFCURVE",
"336 146 CURVE SMOOTH",
"336 92 OFFCURVE",
"299 60 OFFCURVE",
"229 60 CURVE SMOOTH",
"175 60 OFFCURVE",
"130 78 OFFCURVE",
"82 112 CURVE",
"55 44 LINE",
"104 9 OFFCURVE",
"165 -12 OFFCURVE",
"229 -12 CURVE SMOOTH"
);
}
);
width = 452;
}
);
leftKerningGroup = s;
rightKerningGroup = s;
unicode = 0073;
userData = {
com.schriftgestaltung.Glyphs.ColorIndex = 3;
com.typemytype.robofont.layerData = {
background = {
anchors = (
);
components = (
);
contours = (
{
points = (
{
segmentType = curve;
smooth = 1;
x = 246;
y = 523;
},
{
smooth = 0;
x = 124;
y = 523;
},
{
smooth = 0;
x = 44;
y = 451;
},
{
segmentType = curve;
smooth = 1;
x = 44;
y = 350;
},
{
smooth = 0;
x = 44;
y = 256;
},
{
smooth = 0;
x = 113;
y = 203;
},
{
segmentType = curve;
smooth = 1;
x = 209;
y = 198;
},
{
segmentType = line;
smooth = 1;
x = 263;
y = 195;
},
{
smooth = 0;
x = 298;
y = 193;
},
{
smooth = 0;
x = 309;
y = 176;
},
{
segmentType = curve;
smooth = 1;
x = 309;
y = 155;
},
{
smooth = 0;
x = 309;
y = 127;
},
{
smooth = 0;
x = 289;
y = 109;
},
{
segmentType = curve;
smooth = 1;
x = 239;
y = 109;
},
{
smooth = 0;
x = 187;
y = 109;
},
{
smooth = 0;
x = 153;
y = 111;
},
{
segmentType = curve;
smooth = 0;
x = 86;
y = 154;
},
{
segmentType = line;
smooth = 0;
x = 44;
y = 46;
},
{
smooth = 0;
x = 122;
y = -1;
},
{
smooth = 0;
x = 159;
y = -11;
},
{
segmentType = curve;
smooth = 1;
x = 238;
y = -11;
},
{
smooth = 0;
x = 360;
y = -11;
},
{
smooth = 0;
x = 440;
y = 59;
},
{
segmentType = curve;
smooth = 1;
x = 440;
y = 165;
},
{
smooth = 0;
x = 440;
y = 259;
},
{
smooth = 0;
x = 373;
y = 316;
},
{
segmentType = curve;
smooth = 1;
x = 275;
y = 321;
},
{
segmentType = line;
smooth = 1;
x = 220;
y = 324;
},
{
smooth = 0;
x = 188;
y = 326;
},
{
smooth = 0;
x = 175;
y = 339;
},
{
segmentType = curve;
smooth = 1;
x = 175;
y = 360;
},
{
smooth = 0;
x = 175;
y = 385;
},
{
smooth = 0;
x = 197;
y = 403;
},
{
segmentType = curve;
smooth = 1;
x = 247;
y = 403;
},
{
smooth = 0;
x = 302;
y = 403;
},
{
smooth = 0;
x = 341;
y = 396;
},
{
segmentType = curve;
smooth = 0;
x = 384;
y = 368;
},
{
segmentType = line;
smooth = 0;
x = 426;
y = 476;
},
{
smooth = 0;
x = 373;
y = 510;
},
{
smooth = 0;
x = 322;
y = 523;
}
);
}
);
lib = {
};
name = s;
unicodes = (
);
width = 452;
};
};
};
},
{
color = 6;
glyphname = germandbls;
lastChange = "2022-04-28 14:27:10 +0000";
layers = (
{
anchors = (
{
name = bottom;
position = "{368, 0}";
},
{
name = top;
position = "{368, 510}";
}
);
layerId = "BE73C5E5-17BA-4B8B-9704-EF1C804AF4CB";
paths = (
{
closed = 1;
nodes = (
"615 -11 OFFCURVE",
"695 49 OFFCURVE",
"695 166 CURVE SMOOTH",
"695 269 OFFCURVE",
"628 315 OFFCURVE",
"530 321 CURVE SMOOTH",
"478 324 LINE SMOOTH",
"450 326 OFFCURVE",
"437 339 OFFCURVE",
"437 360 CURVE SMOOTH",
"437 376 OFFCURVE",
"447 390 OFFCURVE",
"468 396 CURVE SMOOTH",
"502 406 LINE SMOOTH",
"584 430 OFFCURVE",
"634 477 OFFCURVE",
"634 561 CURVE SMOOTH",
"634 653 OFFCURVE",
"552 753 OFFCURVE",
"364 753 CURVE SMOOTH",
"183 753 OFFCURVE",
"65 662 OFFCURVE",
"65 506 CURVE SMOOTH",
"65 0 LINE",
"225 0 LINE",
"225 506 LINE SMOOTH",
"225 572 OFFCURVE",
"262 617 OFFCURVE",
"368 617 CURVE SMOOTH",
"458 617 OFFCURVE",
"494 590 OFFCURVE",
"494 560 CURVE SMOOTH",
"494 541 OFFCURVE",
"485 527 OFFCURVE",
"464 521 CURVE SMOOTH",
"429 511 LINE SMOOTH",
"347 487 OFFCURVE",
"299 437 OFFCURVE",
"299 350 CURVE SMOOTH",
"299 246 OFFCURVE",
"368 204 OFFCURVE",
"464 198 CURVE SMOOTH",
"512 195 LINE SMOOTH",
"546 193 OFFCURVE",
"558 176 OFFCURVE",
"558 155 CURVE SMOOTH",
"558 129 OFFCURVE",
"538 109 OFFCURVE",
"488 109 CURVE SMOOTH",
"436 109 OFFCURVE",
"408 111 OFFCURVE",
"341 154 CURVE",
"299 46 LINE",
"364 6 OFFCURVE",
"414 -11 OFFCURVE",
"493 -11 CURVE SMOOTH"
);
}
);
width = 735;
},
{
anchors = (
{
name = bottom;
position = "{326, 0}";
},
{
name = top;
position = "{326, 500}";
}
);
layerId = "6DBC133B-A4A9-4EFF-965F-6B79E3B68C3E";
paths = (
{
closed = 1;
nodes = (
"545 -12 OFFCURVE",
"612 57 OFFCURVE",
"612 146 CURVE SMOOTH",
"612 228 OFFCURVE",
"558 285 OFFCURVE",
"459 292 CURVE SMOOTH",
"405 296 LINE SMOOTH",
"361 299 OFFCURVE",
"331 321 OFFCURVE",
"331 361 CURVE SMOOTH",
"331 399 OFFCURVE",
"352 420 OFFCURVE",
"401 436 CURVE SMOOTH",
"440 449 LINE SMOOTH",
"516 474 OFFCURVE",
"557 530 OFFCURVE",
"557 593 CURVE SMOOTH",
"557 678 OFFCURVE",
"487 753 OFFCURVE",
"333 753 CURVE SMOOTH",
"159 753 OFFCURVE",
"85 652 OFFCURVE",
"85 542 CURVE SMOOTH",
"85 0 LINE",
"162 0 LINE",
"162 545 LINE SMOOTH",
"162 632 OFFCURVE",
"226 684 OFFCURVE",
"332 684 CURVE SMOOTH",
"436 684 OFFCURVE",
"479 634 OFFCURVE",
"479 589 CURVE SMOOTH",
"479 555 OFFCURVE",
"461 528 OFFCURVE",
"414 514 CURVE SMOOTH",
"380 504 LINE SMOOTH",
"300 480 OFFCURVE",
"255 431 OFFCURVE",
"255 358 CURVE SMOOTH",
"255 272 OFFCURVE",
"314 229 OFFCURVE",
"396 224 CURVE SMOOTH",
"451 220 LINE SMOOTH",
"504 216 OFFCURVE",
"536 186 OFFCURVE",
"536 146 CURVE SMOOTH",
"536 92 OFFCURVE",
"499 60 OFFCURVE",
"429 60 CURVE SMOOTH",
"375 60 OFFCURVE",
"330 78 OFFCURVE",
"282 112 CURVE",
"255 44 LINE",
"304 9 OFFCURVE",
"365 -12 OFFCURVE",
"429 -12 CURVE SMOOTH"
);
}
);
width = 652;
}
);
leftKerningGroup = h;
leftMetricsKey = l;
rightKerningGroup = germandbls;
rightMetricsKey = s;
unicode = 00DF;
userData = {
com.schriftgestaltung.Glyphs.leftMetricsKey = l;
com.schriftgestaltung.Glyphs.rightMetricsKey = s;
};
},
{
color = 6;
glyphname = t;
lastChange = "2022-04-28 14:27:10 +0000";
layers = (
{
anchors = (
{
name = bottom;
position = "{189, 0}";
},
{
name = center;
position = "{189, 255}";
},
{
name = top;
position = "{189, 510}";
},
{
name = topright;
position = "{357, 510}";
}
);
layerId = "BE73C5E5-17BA-4B8B-9704-EF1C804AF4CB";
paths = (
{
closed = 1;
nodes = (
"337 1 LINE",
"337 130 LINE",
"261 130 LINE SMOOTH",
"252 130 OFFCURVE",
"245 137 OFFCURVE",
"245 146 CURVE SMOOTH",
"245 390 LINE",
"328 390 LINE",
"328 510 LINE",
"245 510 LINE",
"245 630 LINE",
"123 630 LINE",
"117 596 LINE SMOOTH",
"102 519 OFFCURVE",
"102 510 OFFCURVE",
"83 510 CURVE SMOOTH",
"20 510 LINE",
"20 390 LINE",
"99 390 LINE",
"99 120 LINE SMOOTH",
"99 50 OFFCURVE",
"149 -1 OFFCURVE",
"219 1 CURVE SMOOTH"
);
}
);
width = 377;
},
{
anchors = (
{
name = bottom;
position = "{170, 0}";
},
{
name = center;
position = "{170, 250}";
},
{
name = top;
position = "{170, 500}";
},
{
name = topright;
position = "{320, 500}";
}
);
layerId = "6DBC133B-A4A9-4EFF-965F-6B79E3B68C3E";
paths = (
{
closed = 1;
nodes = (
"300 0 LINE",
"300 70 LINE",
"211 70 LINE SMOOTH",
"190 70 OFFCURVE",
"177 85 OFFCURVE",
"177 108 CURVE SMOOTH",
"177 430 LINE",
"300 430 LINE",
"300 500 LINE",
"177 500 LINE",
"177 630 LINE",
"129 630 LINE",
"126 613 LINE SMOOTH",
"106 507 OFFCURVE",
"104 500 OFFCURVE",
"86 500 CURVE SMOOTH",
"10 500 LINE",
"10 430 LINE",
"97 430 LINE",
"97 108 LINE SMOOTH",
"97 42 OFFCURVE",
"142 0 OFFCURVE",
"211 0 CURVE SMOOTH"
);
}
);
width = 340;
}
);
leftKerningGroup = t;
rightKerningGroup = t;
unicode = 0074;
userData = {
com.schriftgestaltung.Glyphs.ColorIndex = 3;
};
},
{
color = 6;
glyphname = u;
lastChange = "2022-04-28 14:27:10 +0000";
layers = (
{
anchors = (
{
name = bottom;
position = "{286, 0}";
},
{
name = ogonek;
position = "{515, 10}";
},
{
name = top;
position = "{286, 510}";
},
{
name = topright;
position = "{552, 510}";
}
);
layerId = "BE73C5E5-17BA-4B8B-9704-EF1C804AF4CB";
rightMetricsKey = "=i";
paths = (
{
closed = 1;
nodes = (
"243 -10 OFFCURVE",
"254 -9 OFFCURVE",
"265 -6 CURVE",
"329 31 LINE SMOOTH",
"343 39 OFFCURVE",
"350 34 OFFCURVE",
"350 23 CURVE SMOOTH",
"350 0 LINE",
"502 0 LINE",
"502 511 LINE",
"352 511 LINE",
"352 197 LINE SMOOTH",
"352 147 OFFCURVE",
"333 125 OFFCURVE",
"279 125 CURVE SMOOTH",
"224 125 OFFCURVE",
"210 147 OFFCURVE",
"210 197 CURVE SMOOTH",
"210 511 LINE",
"60 511 LINE",
"60 145 LINE SMOOTH",
"60 41 OFFCURVE",
"142 -10 OFFCURVE",
"231 -10 CURVE SMOOTH"
);
}
);
width = 567;
},
{
anchors = (
{
name = bottom;
position = "{264, 0}";
},
{
name = ogonek;
position = "{478, 10}";
},
{
name = top;
position = "{264, 500}";
},
{
name = topright;
position = "{512, 500}";
}
);
layerId = "6DBC133B-A4A9-4EFF-965F-6B79E3B68C3E";
paths = (
{
closed = 1;
nodes = (
"257 -12 OFFCURVE",
"275 -10 OFFCURVE",
"291 -5 CURVE",
"342 27 LINE SMOOTH",
"353 34 OFFCURVE",
"362 31 OFFCURVE",
"362 18 CURVE SMOOTH",
"362 0 LINE",
"442 0 LINE",
"442 500 LINE",
"362 500 LINE",
"362 152 LINE SMOOTH",
"362 96 OFFCURVE",
"323 60 OFFCURVE",
"255 60 CURVE SMOOTH",
"186 60 OFFCURVE",
"150 96 OFFCURVE",
"150 152 CURVE SMOOTH",
"150 500 LINE",
"70 500 LINE",
"70 143 LINE SMOOTH",
"70 49 OFFCURVE",
"131 -12 OFFCURVE",
"233 -12 CURVE SMOOTH"
);
}
);
width = 527;
}
);
leftKerningGroup = u;
rightKerningGroup = u;
rightMetricsKey = i;
unicode = 0075;
userData = {
com.schriftgestaltung.Glyphs.ColorIndex = 3;
com.schriftgestaltung.Glyphs.rightMetricsKey = i;
};
},
{
color = 6;
glyphname = v;
lastChange = "2022-04-28 14:27:10 +0000";
layers = (
{
anchors = (
{
name = bottom;
position = "{247, 0}";
},
{
name = top;
position = "{247, 510}";
}
);
layerId = "BE73C5E5-17BA-4B8B-9704-EF1C804AF4CB";
paths = (
{
closed = 1;
nodes = (
"353 0 LINE",
"474 510 LINE",
"327 510 LINE",
"263 192 LINE",
"255 114 LINE SMOOTH",
"254 102 OFFCURVE",
"239 102 OFFCURVE",
"238 114 CURVE SMOOTH",
"230 192 LINE",
"167 510 LINE",
"20 510 LINE",
"140 0 LINE"
);
}
);
width = 494;
},
{
anchors = (
{
name = bottom;
position = "{235, 0}";
},
{
name = top;
position = "{235, 500}";
}
);
layerId = "6DBC133B-A4A9-4EFF-965F-6B79E3B68C3E";
paths = (
{
closed = 1;
nodes = (
"290 0 LINE",
"440 500 LINE",
"357 500 LINE",
"248 120 LINE",
"240 71 LINE SMOOTH",
"238 60 OFFCURVE",
"230 60 OFFCURVE",
"228 71 CURVE SMOOTH",
"221 120 LINE",
"114 500 LINE",
"30 500 LINE",
"177 0 LINE"
);
}
);
width = 470;
}
);
leftKerningGroup = v;
rightKerningGroup = v;
unicode = 0076;
userData = {
com.schriftgestaltung.Glyphs.ColorIndex = 3;
};
},
{
color = 6;
glyphname = w;
lastChange = "2022-04-28 14:27:10 +0000";
layers = (
{
anchors = (
{
name = bottom;
position = "{340, 0}";
},
{
name = top;
position = "{340, 510}";
}
);
layerId = "BE73C5E5-17BA-4B8B-9704-EF1C804AF4CB";
paths = (
{
closed = 1;
nodes = (
"255 0 LINE",
"331 237 LINE SMOOTH",
"334 247 OFFCURVE",
"346 247 OFFCURVE",
"349 237 CURVE SMOOTH",
"425 0 LINE",
"560 0 LINE",
"640 510 LINE",
"500 510 LINE",
"470 290 LINE",
"470 202 LINE SMOOTH",
"470 186 OFFCURVE",
"456 188 OFFCURVE",
"453 198 CURVE SMOOTH",
"376 510 LINE",
"304 510 LINE",
"227 198 LINE SMOOTH",
"224 188 OFFCURVE",
"210 187 OFFCURVE",
"210 202 CURVE SMOOTH",
"210 290 LINE",
"180 510 LINE",
"40 510 LINE",
"120 0 LINE"
);
}
);
width = 680;
},
{
anchors = (
{
name = bottom;
position = "{290, 0}";
},
{
name = top;
position = "{290, 500}";
}
);
layerId = "6DBC133B-A4A9-4EFF-965F-6B79E3B68C3E";
paths = (
{
closed = 1;
nodes = (
"197 3 LINE",
"280 329 LINE SMOOTH",
"284 345 OFFCURVE",
"296 345 OFFCURVE",
"300 329 CURVE SMOOTH",
"382 3 LINE",
"460 3 LINE",
"540 500 LINE",
"469 500 LINE",
"419 199 LINE",
"416 146 LINE SMOOTH",
"415 134 OFFCURVE",
"405 133 OFFCURVE",
"402 146 CURVE SMOOTH",
"318 500 LINE",
"261 500 LINE",
"177 146 LINE SMOOTH",
"174 133 OFFCURVE",
"164 134 OFFCURVE",
"163 146 CURVE SMOOTH",
"160 199 LINE",
"112 500 LINE",
"40 500 LINE",
"119 3 LINE"
);
}
);
width = 580;
}
);
leftKerningGroup = w;
rightKerningGroup = w;
unicode = 0077;
userData = {
com.schriftgestaltung.Glyphs.ColorIndex = 3;
};
},
{
color = 6;
glyphname = x;
lastChange = "2022-04-28 14:27:10 +0000";
layers = (
{
anchors = (
{
name = bottom;
position = "{254, 0}";
},
{
name = top;
position = "{254, 510}";
}
);
guideLines = (
{
position = "{200, 346}";
}
);
layerId = "BE73C5E5-17BA-4B8B-9704-EF1C804AF4CB";
leftMetricsKey = "=v";
rightMetricsKey = "=v";
paths = (
{
closed = 1;
nodes = (
"176 0 LINE",
"235 140 LINE",
"246 188 LINE SMOOTH",
"249 200 OFFCURVE",
"259 200 OFFCURVE",
"263 188 CURVE",
"275 140 LINE",
"334 0 LINE",
"488 0 LINE",
"365 255 LINE",
"488 510 LINE",
"334 510 LINE",
"275 370 LINE",
"263 322 LINE",
"259 310 OFFCURVE",
"249 310 OFFCURVE",
"246 322 CURVE SMOOTH",
"235 370 LINE",
"176 510 LINE",
"20 510 LINE",
"143 255 LINE",
"20 0 LINE"
);
}
);
width = 508;
},
{
anchors = (
{
name = bottom;
position = "{236, 0}";
},
{
name = top;
position = "{236, 500}";
}
);
guideLines = (
{
position = "{200, 346}";
}
);
layerId = "6DBC133B-A4A9-4EFF-965F-6B79E3B68C3E";
leftMetricsKey = "=v";
rightMetricsKey = "=v";
paths = (
{
closed = 1;
nodes = (
"124 0 LINE",
"212 152 LINE",
"230 196 LINE SMOOTH",
"233 203 OFFCURVE",
"241 203 OFFCURVE",
"244 196 CURVE SMOOTH",
"262 152 LINE",
"348 0 LINE",
"442 0 LINE",
"286 250 LINE",
"442 500 LINE",
"348 500 LINE",
"262 348 LINE",
"244 304 LINE SMOOTH",
"241 297 OFFCURVE",
"233 297 OFFCURVE",
"230 304 CURVE SMOOTH",
"212 348 LINE",
"124 500 LINE",
"30 500 LINE",
"188 250 LINE",
"30 0 LINE"
);
}
);
width = 472;
}
);
leftKerningGroup = x;
leftMetricsKey = V;
rightKerningGroup = x;
rightMetricsKey = V;
unicode = 0078;
userData = {
com.schriftgestaltung.Glyphs.ColorIndex = 3;
com.schriftgestaltung.Glyphs.layer.leftMetricsKey = "==v";
com.schriftgestaltung.Glyphs.layer.rightMetricsKey = "==v";
com.schriftgestaltung.Glyphs.leftMetricsKey = V;
com.schriftgestaltung.Glyphs.rightMetricsKey = V;
com.typemytype.robofont.guides = (
{
angle = 0;
isGlobal = 0;
x = 200;
y = 346;
}
);
};
},
{
color = 6;
glyphname = y;
lastChange = "2022-04-28 14:27:10 +0000";
layers = (
{
anchors = (
{
name = bottom;
position = "{242, 0}";
},
{
name = top;
position = "{242, 510}";
}
);
layerId = "BE73C5E5-17BA-4B8B-9704-EF1C804AF4CB";
rightMetricsKey = "=v";
paths = (
{
closed = 1;
nodes = (
"183 -210 OFFCURVE",
"270 -142 OFFCURVE",
"298 -43 CURVE SMOOTH",
"463 510 LINE",
"313 510 LINE",
"263 293 LINE",
"252 200 LINE SMOOTH",
"251 188 OFFCURVE",
"236 188 OFFCURVE",
"235 200 CURVE SMOOTH",
"225 293 LINE",
"163 510 LINE",
"10 510 LINE",
"177 56 LINE",
"162 2 LINE SMOOTH",
"149 -46 OFFCURVE",
"102 -80 OFFCURVE",
"32 -87 CURVE",
"68 -214 LINE"
);
}
);
width = 483;
},
{
anchors = (
{
name = bottom;
position = "{235, 0}";
},
{
name = top;
position = "{235, 500}";
}
);
layerId = "6DBC133B-A4A9-4EFF-965F-6B79E3B68C3E";
rightMetricsKey = "=v";
paths = (
{
closed = 1;
nodes = (
"182 -191 OFFCURVE",
"235 -131 OFFCURVE",
"262 -48 CURVE SMOOTH",
"439 500 LINE",
"356 500 LINE",
"259 185 LINE",
"247 131 LINE SMOOTH",
"245 120 OFFCURVE",
"235 120 OFFCURVE",
"233 131 CURVE SMOOTH",
"224 185 LINE",
"104 500 LINE",
"20 500 LINE",
"200 27 LINE",
"187 -16 LINE SMOOTH",
"167 -82 OFFCURVE",
"141 -128 OFFCURVE",
"72 -148 CURVE",
"101 -220 LINE"
);
}
);
width = 469;
}
);
leftKerningGroup = y;
rightKerningGroup = y;
rightMetricsKey = v;
unicode = 0079;
userData = {
com.schriftgestaltung.Glyphs.ColorIndex = 3;
com.schriftgestaltung.Glyphs.layer.rightMetricsKey = "==v";
com.schriftgestaltung.Glyphs.rightMetricsKey = v;
};
},
{
color = 6;
glyphname = z;
lastChange = "2022-04-28 14:27:10 +0000";
layers = (
{
anchors = (
{
name = bottom;
position = "{240, 0}";
},
{
name = top;
position = "{240, 510}";
}
);
layerId = "BE73C5E5-17BA-4B8B-9704-EF1C804AF4CB";
paths = (
{
closed = 1;
nodes = (
"434 0 LINE",
"434 120 LINE",
"218 120 LINE SMOOTH",
"209 120 OFFCURVE",
"204 127 OFFCURVE",
"215 136 CURVE SMOOTH",
"248 164 LINE",
"434 407 LINE",
"434 510 LINE",
"45 510 LINE",
"45 390 LINE",
"260 390 LINE SMOOTH",
"269 390 OFFCURVE",
"274 383 OFFCURVE",
"263 374 CURVE SMOOTH",
"230 346 LINE",
"45 104 LINE",
"45 0 LINE"
);
}
);
width = 479;
},
{
anchors = (
{
name = bottom;
position = "{223, 0}";
},
{
name = top;
position = "{223, 500}";
}
);
layerId = "6DBC133B-A4A9-4EFF-965F-6B79E3B68C3E";
paths = (
{
closed = 1;
nodes = (
"395 0 LINE",
"395 70 LINE",
"155 70 LINE SMOOTH",
"149 70 OFFCURVE",
"140 74 OFFCURVE",
"152 86 CURVE SMOOTH",
"184 119 LINE",
"395 452 LINE",
"395 500 LINE",
"50 500 LINE",
"50 430 LINE",
"290 430 LINE SMOOTH",
"296 430 OFFCURVE",
"306 427 OFFCURVE",
"293 414 CURVE SMOOTH",
"261 381 LINE",
"50 48 LINE",
"50 0 LINE"
);
}
);
width = 445;
}
);
leftKerningGroup = z;
rightKerningGroup = z;
unicode = 007A;
userData = {
com.schriftgestaltung.Glyphs.ColorIndex = 3;
};
},
{
color = 6;
glyphname = i.ss01;
lastChange = "2022-04-28 14:27:10 +0000";
layers = (
{
anchors = (
{
name = bottom;
position = "{138, 0}";
}
);
layerId = "BE73C5E5-17BA-4B8B-9704-EF1C804AF4CB";
rightMetricsKey = "=i";
paths = (
{
closed = 1;
nodes = (
"211 0 LINE",
"211 511 LINE",
"65 511 LINE",
"65 0 LINE"
);
},
{
closed = 1;
nodes = (
"211 578 LINE",
"211 700 LINE",
"65 700 LINE",
"65 578 LINE"
);
}
);
width = 276;
},
{
anchors = (
{
name = bottom;
position = "{125, 0}";
}
);
layerId = "6DBC133B-A4A9-4EFF-965F-6B79E3B68C3E";
rightMetricsKey = "=i";
paths = (
{
closed = 1;
nodes = (
"165 0 LINE",
"165 500 LINE",
"85 500 LINE",
"85 0 LINE"
);
},
{
closed = 1;
nodes = (
"165 600 LINE",
"165 700 LINE",
"85 700 LINE",
"85 600 LINE"
);
}
);
width = 250;
}
);
leftKerningGroup = i.ss01;
leftMetricsKey = "=n";
rightKerningGroup = i.ss01;
rightMetricsKey = i;
userData = {
com.schriftgestaltung.Glyphs.layer.rightMetricsKey = "==i";
com.schriftgestaltung.Glyphs.leftMetricsKey = "=n";
com.schriftgestaltung.Glyphs.rightMetricsKey = i;
};
},
{
color = 6;
glyphname = idotless.ss01;
lastChange = "2022-04-28 14:27:10 +0000";
layers = (
{
anchors = (
{
name = bottom;
position = "{140, 0}";
},
{
name = ogonek;
position = "{215, 0}";
},
{
name = top;
position = "{140, 510}";
}
);
layerId = "BE73C5E5-17BA-4B8B-9704-EF1C804AF4CB";
paths = (
{
closed = 1;
nodes = (
"215 0 LINE",
"215 510 LINE",
"65 510 LINE",
"65 0 LINE"
);
}
);
width = 280;
},
{
anchors = (
{
name = bottom;
position = "{125, 0}";
},
{
name = ogonek;
position = "{165, 0}";
},
{
name = top;
position = "{125, 500}";
}
);
layerId = "6DBC133B-A4A9-4EFF-965F-6B79E3B68C3E";
paths = (
{
closed = 1;
nodes = (
"165 0 LINE",
"165 500 LINE",
"85 500 LINE",
"85 0 LINE"
);
}
);
width = 250;
}
);
leftKerningGroup = i;
rightKerningGroup = i;
},
{
color = 6;
glyphname = j.ss01;
lastChange = "2022-04-28 14:27:10 +0000";
layers = (
{
layerId = "BE73C5E5-17BA-4B8B-9704-EF1C804AF4CB";
paths = (
{
closed = 1;
nodes = (
"132 -255 OFFCURVE",
"247 -175 OFFCURVE",
"247 14 CURVE SMOOTH",
"247 511 LINE",
"100 511 LINE",
"100 8 LINE SMOOTH",
"100 -84 OFFCURVE",
"52 -128 OFFCURVE",
"-4 -135 CURVE",
"26 -262 LINE"
);
},
{
closed = 1;
nodes = (
"246 578 LINE",
"246 700 LINE",
"100 700 LINE",
"100 578 LINE"
);
}
);
width = 337;
},
{
layerId = "6DBC133B-A4A9-4EFF-965F-6B79E3B68C3E";
paths = (
{
closed = 1;
nodes = (
"127 -229 OFFCURVE",
"180 -162 OFFCURVE",
"181 -35 CURVE SMOOTH",
"182 500 LINE",
"101 500 LINE",
"101 -35 LINE SMOOTH",
"101 -124 OFFCURVE",
"65 -177 OFFCURVE",
"10 -194 CURVE",
"39 -262 LINE"
);
},
{
closed = 1;
nodes = (
"181 600 LINE",
"181 700 LINE",
"101 700 LINE",
"101 600 LINE"
);
}
);
width = 267;
}
);
leftKerningGroup = j.ss01;
rightKerningGroup = j.ss01;
},
{
color = 6;
glyphname = f_f;
lastChange = "2022-04-28 14:27:10 +0000";
layers = (
{
anchors = (
{
name = caret_1;
position = "{365, 0}";
}
);
layerId = "BE73C5E5-17BA-4B8B-9704-EF1C804AF4CB";
rightMetricsKey = "=f";
paths = (
{
closed = 1;
nodes = (
"256 0 LINE",
"256 386 LINE",
"360 386 LINE",
"360 510 LINE",
"256 510 LINE",
"256 566 LINE SMOOTH",
"256 602 OFFCURVE",
"280 627 OFFCURVE",
"349 627 CURVE SMOOTH",
"380 627 OFFCURVE",
"419 616 OFFCURVE",
"453 588 CURVE",
"500 690 LINE",
"459 723 OFFCURVE",
"396 743 OFFCURVE",
"327 743 CURVE SMOOTH",
"193 743 OFFCURVE",
"106 674 OFFCURVE",
"106 556 CURVE SMOOTH",
"106 510 LINE",
"20 510 LINE",
"20 386 LINE",
"106 386 LINE",
"106 0 LINE"
);
},
{
closed = 1;
nodes = (
"596 0 LINE",
"596 386 LINE",
"700 386 LINE",
"700 510 LINE",
"596 510 LINE",
"596 576 LINE SMOOTH",
"596 612 OFFCURVE",
"620 637 OFFCURVE",
"689 637 CURVE SMOOTH",
"717 637 OFFCURVE",
"752 629 OFFCURVE",
"783 608 CURVE",
"830 700 LINE",
"791 733 OFFCURVE",
"732 753 OFFCURVE",
"667 753 CURVE SMOOTH",
"533 753 OFFCURVE",
"446 688 OFFCURVE",
"446 576 CURVE SMOOTH",
"446 510 LINE",
"360 510 LINE",
"360 386 LINE",
"446 386 LINE",
"446 0 LINE"
);
}
);
width = 730;
},
{
anchors = (
{
name = caret_1;
position = "{333, 0}";
}
);
layerId = "6DBC133B-A4A9-4EFF-965F-6B79E3B68C3E";
rightMetricsKey = "=f";
paths = (
{
closed = 1;
nodes = (
"509 0 LINE",
"509 430 LINE",
"630 430 LINE",
"630 500 LINE",
"509 500 LINE",
"509 585 LINE SMOOTH",
"509 647 OFFCURVE",
"556 684 OFFCURVE",
"634 684 CURVE SMOOTH",
"679 684 OFFCURVE",
"716 669 OFFCURVE",
"746 640 CURVE",
"780 703 LINE",
"745 732 OFFCURVE",
"692 753 OFFCURVE",
"630 753 CURVE SMOOTH",
"491 753 OFFCURVE",
"432 671 OFFCURVE",
"432 585 CURVE SMOOTH",
"432 500 LINE",
"330 500 LINE",
"330 430 LINE",
"432 430 LINE",
"432 0 LINE"
);
},
{
closed = 1;
nodes = (
"209 0 LINE",
"209 430 LINE",
"330 430 LINE",
"330 500 LINE",
"209 500 LINE",
"209 575 LINE SMOOTH",
"209 637 OFFCURVE",
"256 674 OFFCURVE",
"334 674 CURVE SMOOTH",
"383 674 OFFCURVE",
"423 656 OFFCURVE",
"456 620 CURVE",
"480 693 LINE",
"445 722 OFFCURVE",
"392 743 OFFCURVE",
"330 743 CURVE SMOOTH",
"191 743 OFFCURVE",
"132 661 OFFCURVE",
"132 575 CURVE SMOOTH",
"132 500 LINE",
"30 500 LINE",
"30 430 LINE",
"132 430 LINE",
"132 0 LINE"
);
}
);
width = 665;
}
);
leftKerningGroup = f;
leftMetricsKey = f;
rightKerningGroup = f;
rightMetricsKey = f;
userData = {
com.schriftgestaltung.Glyphs.layer.rightMetricsKey = "==f";
com.schriftgestaltung.Glyphs.leftMetricsKey = f;
com.schriftgestaltung.Glyphs.rightMetricsKey = f;
};
},
{
color = 6;
glyphname = f_f_i;
lastChange = "2022-04-28 14:27:10 +0000";
layers = (
{
anchors = (
{
name = caret_1;
position = "{329, 0}";
},
{
name = caret_2;
position = "{657, 0}";
}
);
layerId = "BE73C5E5-17BA-4B8B-9704-EF1C804AF4CB";
rightMetricsKey = "=i";
paths = (
{
closed = 1;
nodes = (
"256 0 LINE",
"256 386 LINE",
"360 386 LINE",
"360 510 LINE",
"256 510 LINE",
"256 566 LINE SMOOTH",
"256 602 OFFCURVE",
"280 627 OFFCURVE",
"349 627 CURVE SMOOTH",
"380 627 OFFCURVE",
"419 616 OFFCURVE",
"453 588 CURVE",
"500 690 LINE",
"459 723 OFFCURVE",
"396 743 OFFCURVE",
"327 743 CURVE SMOOTH",
"193 743 OFFCURVE",
"106 674 OFFCURVE",
"106 556 CURVE SMOOTH",
"106 510 LINE",
"20 510 LINE",
"20 386 LINE",
"106 386 LINE",
"106 0 LINE"
);
},
{
closed = 1;
nodes = (
"596 0 LINE",
"596 386 LINE",
"700 386 LINE",
"700 510 LINE",
"596 510 LINE",
"596 576 LINE SMOOTH",
"596 612 OFFCURVE",
"620 637 OFFCURVE",
"689 637 CURVE SMOOTH",
"717 637 OFFCURVE",
"752 629 OFFCURVE",
"783 608 CURVE",
"830 700 LINE",
"791 733 OFFCURVE",
"732 753 OFFCURVE",
"667 753 CURVE SMOOTH",
"533 753 OFFCURVE",
"446 694 OFFCURVE",
"446 576 CURVE SMOOTH",
"446 510 LINE",
"360 510 LINE",
"360 386 LINE",
"446 386 LINE",
"446 0 LINE"
);
},
{
closed = 1;
nodes = (
"916 0 LINE",
"916 510 LINE",
"676 510 LINE",
"676 386 LINE",
"766 386 LINE",
"766 0 LINE"
);
},
{
closed = 1;
nodes = (
"916 578 LINE",
"916 700 LINE",
"766 700 LINE",
"766 578 LINE"
);
}
);
width = 981;
},
{
anchors = (
{
name = caret_1;
position = "{297, 0}";
},
{
name = caret_2;
position = "{595, 0}";
}
);
layerId = "6DBC133B-A4A9-4EFF-965F-6B79E3B68C3E";
rightMetricsKey = "=i";
paths = (
{
closed = 1;
nodes = (
"209 0 LINE",
"209 430 LINE",
"330 430 LINE",
"330 500 LINE",
"209 500 LINE",
"209 575 LINE SMOOTH",
"209 637 OFFCURVE",
"256 674 OFFCURVE",
"334 674 CURVE SMOOTH",
"383 674 OFFCURVE",
"423 656 OFFCURVE",
"456 620 CURVE",
"480 693 LINE",
"445 722 OFFCURVE",
"392 743 OFFCURVE",
"330 743 CURVE SMOOTH",
"191 743 OFFCURVE",
"132 661 OFFCURVE",
"132 575 CURVE SMOOTH",
"132 500 LINE",
"30 500 LINE",
"30 430 LINE",
"132 430 LINE",
"132 0 LINE"
);
},
{
closed = 1;
nodes = (
"509 0 LINE",
"509 430 LINE",
"630 430 LINE",
"630 500 LINE",
"509 500 LINE",
"509 585 LINE SMOOTH",
"509 647 OFFCURVE",
"556 684 OFFCURVE",
"634 684 CURVE SMOOTH",
"675 684 OFFCURVE",
"709 669 OFFCURVE",
"736 640 CURVE",
"770 700 LINE",
"737 732 OFFCURVE",
"688 753 OFFCURVE",
"630 753 CURVE SMOOTH",
"491 753 OFFCURVE",
"432 671 OFFCURVE",
"432 585 CURVE SMOOTH",
"432 500 LINE",
"330 500 LINE",
"330 430 LINE",
"432 430 LINE",
"432 0 LINE"
);
},
{
closed = 1;
nodes = (
"802 0 LINE",
"802 500 LINE",
"602 500 LINE",
"602 430 LINE",
"722 430 LINE",
"722 0 LINE"
);
},
{
closed = 1;
nodes = (
"802 600 LINE",
"802 700 LINE",
"722 700 LINE",
"722 600 LINE"
);
}
);
width = 887;
}
);
leftKerningGroup = f;
leftMetricsKey = f;
rightKerningGroup = i;
rightMetricsKey = i;
userData = {
com.schriftgestaltung.Glyphs.layer.rightMetricsKey = "==i";
com.schriftgestaltung.Glyphs.leftMetricsKey = f;
com.schriftgestaltung.Glyphs.rightMetricsKey = i;
};
},
{
color = 6;
glyphname = f_f_l;
lastChange = "2022-04-28 14:27:10 +0000";
layers = (
{
anchors = (
{
name = caret_1;
position = "{340, 0}";
},
{
name = caret_2;
position = "{681, 0}";
}
);
layerId = "BE73C5E5-17BA-4B8B-9704-EF1C804AF4CB";
leftMetricsKey = "=f";
paths = (
{
closed = 1;
nodes = (
"256 0 LINE",
"256 386 LINE",
"360 386 LINE",
"360 510 LINE",
"256 510 LINE",
"256 566 LINE SMOOTH",
"256 602 OFFCURVE",
"280 627 OFFCURVE",
"349 627 CURVE SMOOTH",
"380 627 OFFCURVE",
"419 616 OFFCURVE",
"453 588 CURVE",
"500 690 LINE",
"459 723 OFFCURVE",
"396 743 OFFCURVE",
"327 743 CURVE SMOOTH",
"193 743 OFFCURVE",
"106 674 OFFCURVE",
"106 556 CURVE SMOOTH",
"106 510 LINE",
"20 510 LINE",
"20 386 LINE",
"106 386 LINE",
"106 0 LINE"
);
},
{
closed = 1;
nodes = (
"596 0 LINE",
"596 386 LINE",
"720 386 LINE",
"720 510 LINE",
"596 510 LINE",
"596 576 LINE SMOOTH",
"596 612 OFFCURVE",
"614 637 OFFCURVE",
"669 637 CURVE SMOOTH",
"703 637 OFFCURVE",
"746 626 OFFCURVE",
"783 598 CURVE",
"820 690 LINE",
"781 729 OFFCURVE",
"719 753 OFFCURVE",
"654 753 CURVE SMOOTH",
"529 753 OFFCURVE",
"446 694 OFFCURVE",
"446 576 CURVE SMOOTH",
"446 510 LINE",
"360 510 LINE",
"360 386 LINE",
"446 386 LINE",
"446 0 LINE"
);
},
{
closed = 1;
nodes = (
"991 1 LINE",
"991 130 LINE",
"937 130 LINE SMOOTH",
"928 130 OFFCURVE",
"921 137 OFFCURVE",
"921 146 CURVE SMOOTH",
"921 750 LINE",
"775 750 LINE",
"775 120 LINE SMOOTH",
"775 50 OFFCURVE",
"825 1 OFFCURVE",
"895 1 CURVE SMOOTH"
);
}
);
width = 1016;
},
{
anchors = (
{
name = caret_1;
position = "{298, 0}";
},
{
name = caret_2;
position = "{597, 0}";
}
);
layerId = "6DBC133B-A4A9-4EFF-965F-6B79E3B68C3E";
paths = (
{
closed = 1;
nodes = (
"209 0 LINE",
"209 430 LINE",
"330 430 LINE",
"330 500 LINE",
"209 500 LINE",
"209 575 LINE SMOOTH",
"209 637 OFFCURVE",
"256 674 OFFCURVE",
"334 674 CURVE SMOOTH",
"383 674 OFFCURVE",
"423 656 OFFCURVE",
"456 620 CURVE",
"480 693 LINE",
"445 722 OFFCURVE",
"392 743 OFFCURVE",
"330 743 CURVE SMOOTH",
"191 743 OFFCURVE",
"132 661 OFFCURVE",
"132 575 CURVE SMOOTH",
"132 500 LINE",
"30 500 LINE",
"30 430 LINE",
"132 430 LINE",
"132 0 LINE"
);
},
{
closed = 1;
nodes = (
"509 0 LINE",
"509 430 LINE",
"630 430 LINE",
"630 500 LINE",
"509 500 LINE",
"509 585 LINE SMOOTH",
"509 647 OFFCURVE",
"552 684 OFFCURVE",
"614 684 CURVE SMOOTH",
"651 684 OFFCURVE",
"691 669 OFFCURVE",
"716 628 CURVE",
"740 691 LINE",
"711 732 OFFCURVE",
"660 753 OFFCURVE",
"610 753 CURVE SMOOTH",
"488 753 OFFCURVE",
"432 671 OFFCURVE",
"432 585 CURVE SMOOTH",
"432 500 LINE",
"330 500 LINE",
"330 430 LINE",
"432 430 LINE",
"432 0 LINE"
);
},
{
closed = 1;
nodes = (
"860 0 LINE",
"860 70 LINE",
"819 70 LINE SMOOTH",
"798 70 OFFCURVE",
"785 85 OFFCURVE",
"785 108 CURVE SMOOTH",
"785 750 LINE",
"705 750 LINE",
"705 108 LINE SMOOTH",
"705 42 OFFCURVE",
"750 0 OFFCURVE",
"819 0 CURVE SMOOTH"
);
}
);
width = 895;
}
);
leftKerningGroup = f;
leftMetricsKey = f;
rightKerningGroup = l;
rightMetricsKey = l;
userData = {
com.schriftgestaltung.Glyphs.leftMetricsKey = f;
com.schriftgestaltung.Glyphs.rightMetricsKey = l;
};
},
{
color = 6;
glyphname = fi;
lastChange = "2022-04-28 14:27:10 +0000";
layers = (
{
anchors = (
{
name = caret_1;
position = "{325, 0}";
}
);
layerId = "BE73C5E5-17BA-4B8B-9704-EF1C804AF4CB";
paths = (
{
closed = 1;
nodes = (
"256 0 LINE",
"256 386 LINE",
"360 386 LINE",
"360 510 LINE",
"256 510 LINE",
"256 576 LINE SMOOTH",
"256 612 OFFCURVE",
"280 637 OFFCURVE",
"349 637 CURVE SMOOTH",
"374 637 OFFCURVE",
"406 627 OFFCURVE",
"434 601 CURVE",
"490 700 LINE",
"451 733 OFFCURVE",
"392 753 OFFCURVE",
"327 753 CURVE SMOOTH",
"193 753 OFFCURVE",
"106 684 OFFCURVE",
"106 566 CURVE SMOOTH",
"106 510 LINE",
"20 510 LINE",
"20 386 LINE",
"106 386 LINE",
"106 0 LINE"
);
},
{
closed = 1;
nodes = (
"580 0 LINE",
"580 510 LINE",
"340 510 LINE",
"340 386 LINE",
"430 386 LINE",
"430 0 LINE"
);
},
{
closed = 1;
nodes = (
"580 578 LINE",
"580 700 LINE",
"430 700 LINE",
"430 578 LINE"
);
}
);
width = 645;
},
{
anchors = (
{
name = caret_1;
position = "{301, 0}";
}
);
layerId = "6DBC133B-A4A9-4EFF-965F-6B79E3B68C3E";
paths = (
{
closed = 1;
nodes = (
"209 0 LINE",
"209 430 LINE",
"330 430 LINE",
"330 500 LINE",
"209 500 LINE",
"209 585 LINE SMOOTH",
"209 647 OFFCURVE",
"256 684 OFFCURVE",
"334 684 CURVE SMOOTH",
"375 684 OFFCURVE",
"409 669 OFFCURVE",
"436 637 CURVE",
"470 700 LINE",
"437 732 OFFCURVE",
"388 753 OFFCURVE",
"330 753 CURVE SMOOTH",
"191 753 OFFCURVE",
"132 671 OFFCURVE",
"132 585 CURVE SMOOTH",
"132 500 LINE",
"30 500 LINE",
"30 430 LINE",
"132 430 LINE",
"132 0 LINE"
);
},
{
closed = 1;
nodes = (
"512 0 LINE",
"512 500 LINE",
"312 500 LINE",
"312 430 LINE",
"432 430 LINE",
"432 0 LINE"
);
},
{
closed = 1;
nodes = (
"512 600 LINE",
"512 700 LINE",
"432 700 LINE",
"432 600 LINE"
);
}
);
width = 597;
}
);
leftKerningGroup = f;
leftMetricsKey = f;
rightKerningGroup = i;
rightMetricsKey = i;
unicode = FB01;
userData = {
com.schriftgestaltung.Glyphs.leftMetricsKey = f;
com.schriftgestaltung.Glyphs.rightMetricsKey = i;
};
},
{
color = 6;
glyphname = fl;
lastChange = "2022-04-28 14:27:10 +0000";
layers = (
{
anchors = (
{
name = caret_1;
position = "{341, 0}";
}
);
layerId = "BE73C5E5-17BA-4B8B-9704-EF1C804AF4CB";
paths = (
{
closed = 1;
nodes = (
"256 0 LINE",
"256 386 LINE",
"360 386 LINE",
"360 510 LINE",
"256 510 LINE",
"256 576 LINE SMOOTH",
"256 612 OFFCURVE",
"274 637 OFFCURVE",
"329 637 CURVE SMOOTH",
"363 637 OFFCURVE",
"406 626 OFFCURVE",
"443 598 CURVE",
"480 690 LINE",
"441 729 OFFCURVE",
"379 753 OFFCURVE",
"314 753 CURVE SMOOTH",
"189 753 OFFCURVE",
"106 684 OFFCURVE",
"106 566 CURVE SMOOTH",
"106 510 LINE",
"20 510 LINE",
"20 386 LINE",
"106 386 LINE",
"106 0 LINE"
);
},
{
closed = 1;
nodes = (
"651 1 LINE",
"651 130 LINE",
"597 130 LINE SMOOTH",
"588 130 OFFCURVE",
"581 137 OFFCURVE",
"581 146 CURVE SMOOTH",
"581 750 LINE",
"435 750 LINE",
"435 120 LINE SMOOTH",
"435 50 OFFCURVE",
"485 1 OFFCURVE",
"555 1 CURVE SMOOTH"
);
}
);
width = 676;
},
{
anchors = (
{
name = caret_1;
position = "{308, 0}";
}
);
layerId = "6DBC133B-A4A9-4EFF-965F-6B79E3B68C3E";
paths = (
{
closed = 1;
nodes = (
"209 0 LINE",
"209 430 LINE",
"340 430 LINE",
"340 500 LINE",
"209 500 LINE",
"209 585 LINE SMOOTH",
"209 647 OFFCURVE",
"252 684 OFFCURVE",
"314 684 CURVE SMOOTH",
"355 684 OFFCURVE",
"399 669 OFFCURVE",
"426 625 CURVE",
"450 688 LINE",
"419 734 OFFCURVE",
"364 755 OFFCURVE",
"310 755 CURVE SMOOTH",
"188 755 OFFCURVE",
"132 673 OFFCURVE",
"132 585 CURVE SMOOTH",
"132 500 LINE",
"30 500 LINE",
"30 430 LINE",
"132 430 LINE",
"132 0 LINE"
);
},
{
closed = 1;
nodes = (
"580 0 LINE",
"580 70 LINE",
"539 70 LINE SMOOTH",
"518 70 OFFCURVE",
"505 85 OFFCURVE",
"505 108 CURVE SMOOTH",
"505 750 LINE",
"425 750 LINE",
"425 108 LINE SMOOTH",
"425 42 OFFCURVE",
"470 0 OFFCURVE",
"539 0 CURVE SMOOTH"
);
}
);
width = 615;
}
);
leftKerningGroup = f;
leftMetricsKey = f;
rightKerningGroup = l;
rightMetricsKey = l;
unicode = FB02;
userData = {
com.schriftgestaltung.Glyphs.leftMetricsKey = f;
com.schriftgestaltung.Glyphs.rightMetricsKey = l;
};
},
{
color = 6;
glyphname = ordfeminine;
lastChange = "2022-04-28 14:27:10 +0000";
layers = (
{
layerId = "BE73C5E5-17BA-4B8B-9704-EF1C804AF4CB";
paths = (
{
closed = 1;
nodes = (
"426 407 LINE",
"384 476 LINE",
"384 649 LINE SMOOTH",
"384 742 OFFCURVE",
"325 810 OFFCURVE",
"198 810 CURVE SMOOTH",
"140 810 OFFCURVE",
"88 793 OFFCURVE",
"43 768 CURVE",
"81 665 LINE",
"115 684 OFFCURVE",
"151 698 OFFCURVE",
"187 698 CURVE SMOOTH",
"235 698 OFFCURVE",
"259 682 OFFCURVE",
"259 649 CURVE SMOOTH",
"259 611 LINE",
"192 611 LINE SMOOTH",
"108 611 OFFCURVE",
"40 567 OFFCURVE",
"40 484 CURVE SMOOTH",
"40 409 OFFCURVE",
"90 354 OFFCURVE",
"173 354 CURVE SMOOTH",
"218 354 OFFCURVE",
"251 369 OFFCURVE",
"277 389 CURVE SMOOTH",
"285 395 OFFCURVE",
"292 394 OFFCURVE",
"298 386 CURVE SMOOTH",
"325 350 LINE"
);
},
{
closed = 1;
nodes = (
"179 450 OFFCURVE",
"160 466 OFFCURVE",
"160 485 CURVE SMOOTH",
"160 504 OFFCURVE",
"170 515 OFFCURVE",
"193 515 CURVE SMOOTH",
"218 515 LINE",
"244 524 LINE SMOOTH",
"253 527 OFFCURVE",
"259 525 OFFCURVE",
"259 519 CURVE SMOOTH",
"259 513 LINE SMOOTH",
"259 476 OFFCURVE",
"239 450 OFFCURVE",
"205 450 CURVE SMOOTH"
);
}
);
width = 451;
},
{
layerId = "6DBC133B-A4A9-4EFF-965F-6B79E3B68C3E";
paths = (
{
closed = 1;
nodes = (
"393 397 LINE",
"360 451 LINE",
"360 662 LINE SMOOTH",
"360 741 OFFCURVE",
"309 800 OFFCURVE",
"207 800 CURVE SMOOTH",
"152 800 OFFCURVE",
"109 787 OFFCURVE",
"65 756 CURVE",
"89 692 LINE",
"126 719 OFFCURVE",
"157 731 OFFCURVE",
"201 731 CURVE SMOOTH",
"261 731 OFFCURVE",
"288 702 OFFCURVE",
"288 656 CURVE SMOOTH",
"288 599 LINE",
"192 599 LINE SMOOTH",
"109 599 OFFCURVE",
"55 556 OFFCURVE",
"55 480 CURVE SMOOTH",
"55 409 OFFCURVE",
"106 361 OFFCURVE",
"187 361 CURVE SMOOTH",
"235 361 OFFCURVE",
"262 379 OFFCURVE",
"289 402 CURVE SMOOTH",
"294 406 OFFCURVE",
"299 405 OFFCURVE",
"303 400 CURVE SMOOTH",
"330 360 LINE"
);
},
{
closed = 1;
nodes = (
"155 424 OFFCURVE",
"129 448 OFFCURVE",
"129 482 CURVE SMOOTH",
"129 516 OFFCURVE",
"154 536 OFFCURVE",
"196 536 CURVE SMOOTH",
"226 536 LINE",
"272 546 LINE SMOOTH",
"282 548 OFFCURVE",
"288 544 OFFCURVE",
"288 534 CURVE SMOOTH",
"288 501 LINE SMOOTH",
"288 454 OFFCURVE",
"252 424 OFFCURVE",
"193 424 CURVE SMOOTH"
);
}
);
width = 443;
}
);
leftKerningGroup = ordfeminine;
rightKerningGroup = ordfeminine;
unicode = 00AA;
},
{
color = 6;
glyphname = ordmasculine;
lastChange = "2022-04-28 14:27:10 +0000";
layers = (
{
layerId = "BE73C5E5-17BA-4B8B-9704-EF1C804AF4CB";
paths = (
{
closed = 1;
nodes = (
"346 344 OFFCURVE",
"413 413 OFFCURVE",
"425 499 CURVE SMOOTH",
"429 527 OFFCURVE",
"429 553 OFFCURVE",
"429 577 CURVE SMOOTH",
"429 604 OFFCURVE",
"427 629 OFFCURVE",
"425 657 CURVE SMOOTH",
"419 747 OFFCURVE",
"346 813 OFFCURVE",
"237 813 CURVE SMOOTH",
"127 813 OFFCURVE",
"61 746 OFFCURVE",
"49 657 CURVE SMOOTH",
"46 628 OFFCURVE",
"45 604 OFFCURVE",
"45 577 CURVE SMOOTH",
"45 553 OFFCURVE",
"47 527 OFFCURVE",
"49 499 CURVE SMOOTH",
"56 410 OFFCURVE",
"127 344 OFFCURVE",
"237 344 CURVE SMOOTH"
);
},
{
closed = 1;
nodes = (
"204 462 OFFCURVE",
"187 489 OFFCURVE",
"185 524 CURVE SMOOTH",
"183 564 OFFCURVE",
"180 594 OFFCURVE",
"184 635 CURVE SMOOTH",
"188 669 OFFCURVE",
"204 698 OFFCURVE",
"237 698 CURVE SMOOTH",
"270 698 OFFCURVE",
"287 670 OFFCURVE",
"290 635 CURVE SMOOTH",
"294 594 OFFCURVE",
"295 564 OFFCURVE",
"289 523 CURVE SMOOTH",
"285 491 OFFCURVE",
"270 462 OFFCURVE",
"237 462 CURVE SMOOTH"
);
}
);
width = 474;
},
{
layerId = "6DBC133B-A4A9-4EFF-965F-6B79E3B68C3E";
paths = (
{
closed = 1;
nodes = (
"329 354 OFFCURVE",
"386 419 OFFCURVE",
"397 503 CURVE SMOOTH",
"401 530 OFFCURVE",
"402 553 OFFCURVE",
"402 577 CURVE SMOOTH",
"402 602 OFFCURVE",
"400 628 OFFCURVE",
"397 654 CURVE SMOOTH",
"388 740 OFFCURVE",
"329 802 OFFCURVE",
"229 802 CURVE SMOOTH",
"128 802 OFFCURVE",
"70 741 OFFCURVE",
"60 654 CURVE SMOOTH",
"57 626 OFFCURVE",
"55 602 OFFCURVE",
"55 577 CURVE SMOOTH",
"55 553 OFFCURVE",
"56 531 OFFCURVE",
"60 503 CURVE SMOOTH",
"72 418 OFFCURVE",
"128 354 OFFCURVE",
"229 354 CURVE SMOOTH"
);
},
{
closed = 1;
nodes = (
"169 420 OFFCURVE",
"138 459 OFFCURVE",
"133 508 CURVE SMOOTH",
"128 558 OFFCURVE",
"128 596 OFFCURVE",
"132 648 CURVE SMOOTH",
"136 696 OFFCURVE",
"169 737 OFFCURVE",
"229 737 CURVE SMOOTH",
"288 737 OFFCURVE",
"320 696 OFFCURVE",
"324 648 CURVE SMOOTH",
"329 596 OFFCURVE",
"327 558 OFFCURVE",
"323 507 CURVE SMOOTH",
"320 459 OFFCURVE",
"288 420 OFFCURVE",
"229 420 CURVE SMOOTH"
);
}
);
width = 457;
}
);
leftKerningGroup = ordmasculine;
rightKerningGroup = ordmasculine;
unicode = 00BA;
},
{
color = 6;
glyphname = "Be-cy";
lastChange = "2022-04-28 14:27:10 +0000";
layers = (
{
background = {
paths = (
{
closed = 1;
nodes = (
"70 700 LINE",
"70 0 LINE",
"329 0 LINE SMOOTH",
"471 0 OFFCURVE",
"552 72 OFFCURVE",
"552 198 CURVE SMOOTH",
"552 281 OFFCURVE",
"513 341 OFFCURVE",
"445 362 CURVE",
"501 389 OFFCURVE",
"533 442 OFFCURVE",
"533 509 CURVE SMOOTH",
"533 631 OFFCURVE",
"451 700 OFFCURVE",
"309 700 CURVE SMOOTH"
);
},
{
closed = 1;
nodes = (
"379 285 OFFCURVE",
"407 252 OFFCURVE",
"407 205 CURVE SMOOTH",
"407 156 OFFCURVE",
"379 130 OFFCURVE",
"329 130 CURVE SMOOTH",
"215 130 LINE",
"215 285 LINE",
"329 285 LINE SMOOTH"
);
},
{
closed = 1;
nodes = (
"360 570 OFFCURVE",
"389 543 OFFCURVE",
"389 495 CURVE SMOOTH",
"389 448 OFFCURVE",
"360 415 OFFCURVE",
"309 415 CURVE SMOOTH",
"215 415 LINE",
"215 570 LINE",
"309 570 LINE SMOOTH"
);
}
);
};
layerId = "BE73C5E5-17BA-4B8B-9704-EF1C804AF4CB";
paths = (
{
closed = 1;
nodes = (
"319 0 LINE SMOOTH",
"467 0 OFFCURVE",
"552 76 OFFCURVE",
"552 218 CURVE SMOOTH",
"552 340 OFFCURVE",
"486 435 OFFCURVE",
"319 435 CURVE SMOOTH",
"215 435 LINE",
"215 560 LINE",
"509 560 LINE",
"509 700 LINE",
"70 700 LINE",
"70 0 LINE"
);
},
{
closed = 1;
nodes = (
"215 305 LINE",
"319 305 LINE SMOOTH",
"375 305 OFFCURVE",
"407 268 OFFCURVE",
"407 215 CURVE SMOOTH",
"407 159 OFFCURVE",
"375 130 OFFCURVE",
"319 130 CURVE SMOOTH",
"215 130 LINE"
);
}
);
width = 592;
},
{
background = {
anchors = (
{
name = bottom;
position = "{282, 0}";
},
{
name = center;
position = "{310, 530}";
},
{
name = top;
position = "{282, 670}";
},
{
name = topleft;
position = "{20, 700}";
}
);
paths = (
{
closed = 1;
nodes = (
"90 700 LINE",
"90 0 LINE",
"307 0 LINE SMOOTH",
"437 0 OFFCURVE",
"513 69 OFFCURVE",
"513 190 CURVE SMOOTH",
"513 269 OFFCURVE",
"471 331 OFFCURVE",
"404 355 CURVE",
"462 382 OFFCURVE",
"499 436 OFFCURVE",
"499 510 CURVE SMOOTH",
"499 631 OFFCURVE",
"428 700 OFFCURVE",
"307 700 CURVE SMOOTH"
);
},
{
closed = 1;
nodes = (
"389 316 OFFCURVE",
"435 269 OFFCURVE",
"435 190 CURVE SMOOTH",
"435 115 OFFCURVE",
"389 70 OFFCURVE",
"308 70 CURVE SMOOTH",
"168 70 LINE",
"168 316 LINE",
"308 316 LINE SMOOTH"
);
},
{
closed = 1;
nodes = (
"380 630 OFFCURVE",
"421 584 OFFCURVE",
"421 510 CURVE SMOOTH",
"421 432 OFFCURVE",
"380 386 OFFCURVE",
"308 386 CURVE SMOOTH",
"168 386 LINE",
"168 630 LINE",
"308 630 LINE SMOOTH"
);
}
);
};
layerId = "6DBC133B-A4A9-4EFF-965F-6B79E3B68C3E";
paths = (
{
closed = 1;
nodes = (
"297 0 LINE SMOOTH",
"427 0 OFFCURVE",
"513 69 OFFCURVE",
"513 200 CURVE SMOOTH",
"513 325 OFFCURVE",
"438 406 OFFCURVE",
"298 406 CURVE SMOOTH",
"168 406 LINE",
"168 622 LINE",
"462 622 LINE",
"462 700 LINE",
"90 700 LINE",
"90 0 LINE"
);
},
{
closed = 1;
nodes = (
"168 336 LINE",
"298 336 LINE SMOOTH",
"379 336 OFFCURVE",
"435 289 OFFCURVE",
"435 200 CURVE SMOOTH",
"435 115 OFFCURVE",
"379 70 OFFCURVE",
"298 70 CURVE SMOOTH",
"168 70 LINE"
);
}
);
width = 563;
}
);
leftKerningGroup = H;
leftMetricsKey = H;
rightKerningGroup = B;
rightMetricsKey = B;
unicode = 0411;
userData = {
com.schriftgestaltung.Glyphs.ColorIndex = 4;
com.schriftgestaltung.Glyphs.leftMetricsKey = H;
com.schriftgestaltung.Glyphs.rightMetricsKey = B;
com.typemytype.robofont.layerData = {
background = {
anchors = (
{
name = bottom;
x = 282;
y = 0;
},
{
name = top;
x = 282;
y = 670;
},
{
name = topleft;
x = 20;
y = 700;
},
{
name = center;
x = 310;
y = 530;
}
);
components = (
);
contours = (
{
points = (
{
segmentType = line;
smooth = 0;
x = 90;
y = 700;
},
{
segmentType = line;
smooth = 0;
x = 90;
y = 0;
},
{
segmentType = line;
smooth = 1;
x = 307;
y = 0;
},
{
smooth = 0;
x = 437;
y = 0;
},
{
smooth = 0;
x = 513;
y = 69;
},
{
segmentType = curve;
smooth = 1;
x = 513;
y = 190;
},
{
smooth = 0;
x = 513;
y = 269;
},
{
smooth = 0;
x = 471;
y = 331;
},
{
segmentType = curve;
smooth = 0;
x = 404;
y = 355;
},
{
smooth = 0;
x = 462;
y = 382;
},
{
smooth = 0;
x = 499;
y = 436;
},
{
segmentType = curve;
smooth = 1;
x = 499;
y = 510;
},
{
smooth = 0;
x = 499;
y = 631;
},
{
smooth = 0;
x = 428;
y = 700;
},
{
segmentType = curve;
smooth = 1;
x = 307;
y = 700;
}
);
},
{
points = (
{
smooth = 0;
x = 389;
y = 316;
},
{
smooth = 0;
x = 435;
y = 269;
},
{
segmentType = curve;
smooth = 1;
x = 435;
y = 190;
},
{
smooth = 0;
x = 435;
y = 115;
},
{
smooth = 0;
x = 389;
y = 70;
},
{
segmentType = curve;
smooth = 1;
x = 308;
y = 70;
},
{
segmentType = line;
smooth = 0;
x = 168;
y = 70;
},
{
segmentType = line;
smooth = 0;
x = 168;
y = 316;
},
{
segmentType = line;
smooth = 1;
x = 308;
y = 316;
}
);
},
{
points = (
{
smooth = 0;
x = 380;
y = 630;
},
{
smooth = 0;
x = 421;
y = 584;
},
{
segmentType = curve;
smooth = 1;
x = 421;
y = 510;
},
{
smooth = 0;
x = 421;
y = 432;
},
{
smooth = 0;
x = 380;
y = 386;
},
{
segmentType = curve;
smooth = 1;
x = 308;
y = 386;
},
{
segmentType = line;
smooth = 0;
x = 168;
y = 386;
},
{
segmentType = line;
smooth = 0;
x = 168;
y = 630;
},
{
segmentType = line;
smooth = 1;
x = 308;
y = 630;
}
);
}
);
lib = {
};
name = "Be-cy";
unicodes = (
);
width = 563;
};
};
public.markColor = "0.67,0.95,0.38,1";
};
},
{
color = 6;
glyphname = "Ge-cy";
lastChange = "2022-04-28 14:27:10 +0000";
layers = (
{
anchors = (
{
name = bottomright;
position = "{464, 0}";
},
{
name = center;
position = "{71, 352}";
},
{
name = top;
position = "{242, 700}";
}
);
layerId = "BE73C5E5-17BA-4B8B-9704-EF1C804AF4CB";
paths = (
{
closed = 1;
nodes = (
"230 0 LINE",
"230 560 LINE",
"454 560 LINE",
"454 700 LINE",
"70 700 LINE",
"70 0 LINE"
);
}
);
width = 474;
},
{
anchors = (
{
name = bottomright;
position = "{432, 0}";
},
{
name = center;
position = "{161, 352}";
},
{
name = top;
position = "{226, 700}";
}
);
layerId = "6DBC133B-A4A9-4EFF-965F-6B79E3B68C3E";
paths = (
{
closed = 1;
nodes = (
"173 0 LINE",
"173 622 LINE",
"422 622 LINE",
"422 700 LINE",
"90 700 LINE",
"90 0 LINE"
);
}
);
width = 432;
}
);
leftKerningGroup = H;
rightKerningGroup = "Ge-cy";
unicode = 0413;
userData = {
com.schriftgestaltung.Glyphs.ColorIndex = 4;
public.markColor = "0.67,0.95,0.38,1";
};
},
{
color = 6;
glyphname = "Gheupturn-cy";
lastChange = "2022-04-28 14:27:10 +0000";
layers = (
{
layerId = "BE73C5E5-17BA-4B8B-9704-EF1C804AF4CB";
paths = (
{
closed = 1;
nodes = (
"230 0 LINE",
"230 560 LINE",
"454 560 LINE",
"454 840 LINE",
"304 840 LINE",
"304 700 LINE",
"70 700 LINE",
"70 0 LINE"
);
}
);
width = 474;
},
{
layerId = "6DBC133B-A4A9-4EFF-965F-6B79E3B68C3E";
paths = (
{
closed = 1;
nodes = (
"173 0 LINE",
"173 622 LINE",
"422 622 LINE",
"422 840 LINE",
"349 840 LINE",
"349 700 LINE",
"90 700 LINE",
"90 0 LINE"
);
}
);
width = 432;
}
);
leftKerningGroup = H;
leftMetricsKey = H;
rightKerningGroup = "Ge-cy";
rightMetricsKey = "Ge-cy";
unicode = 0490;
userData = {
com.schriftgestaltung.Glyphs.ColorIndex = 6;
com.schriftgestaltung.Glyphs.layer.rightMetricsKey = "==L";
com.schriftgestaltung.Glyphs.leftMetricsKey = H;
com.schriftgestaltung.Glyphs.rightMetricsKey = "Ge-cy";
public.markColor = "0,0.67,0.91,1";
};
},
{
color = 3;
glyphname = "Ghestroke-cy";
lastChange = "2022-04-28 14:27:10 +0000";
layers = (
{
background = {
paths = (
{
closed = 1;
nodes = (
"370 296 LINE",
"370 410 LINE",
"10 410 LINE",
"10 296 LINE"
);
}
);
};
components = (
{
name = "Ge-cy";
transform = "{1, 0, 0, 1, 10, 0}";
}
);
layerId = "BE73C5E5-17BA-4B8B-9704-EF1C804AF4CB";
paths = (
{
closed = 1;
nodes = (
"340 295 LINE",
"340 409 LINE",
"0 409 LINE",
"0 295 LINE"
);
}
);
width = 484;
},
{
components = (
{
alignment = -1;
name = "Ge-cy";
}
);
layerId = "6DBC133B-A4A9-4EFF-965F-6B79E3B68C3E";
paths = (
{
closed = 1;
nodes = (
"306 317 LINE",
"306 386 LINE",
"15 386 LINE",
"15 317 LINE"
);
}
);
width = 432;
}
);
leftKerningGroup = "Ghestroke-cy";
rightKerningGroup = "Ge-cy";
rightMetricsKey = "Ge-cy";
unicode = 0492;
userData = {
com.schriftgestaltung.Glyphs.ColorIndex = 3;
com.schriftgestaltung.Glyphs.rightMetricsKey = "Ge-cy";
public.markColor = "0.97,1,0,1";
};
},
{
color = 6;
glyphname = "Ghemiddlehook-cy";
lastChange = "2022-04-28 14:27:10 +0000";
layers = (
{
background = {
components = (
{
name = "Be-cy";
}
);
};
layerId = "BE73C5E5-17BA-4B8B-9704-EF1C804AF4CB";
paths = (
{
closed = 1;
nodes = (
"499 -149 OFFCURVE",
"571 -24 OFFCURVE",
"571 142 CURVE SMOOTH",
"571 332 OFFCURVE",
"478 411 OFFCURVE",
"360 411 CURVE SMOOTH",
"342 411 OFFCURVE",
"325 410 OFFCURVE",
"308 407 CURVE",
"250 381 LINE SMOOTH",
"236 375 OFFCURVE",
"230 380 OFFCURVE",
"230 391 CURVE SMOOTH",
"230 560 LINE",
"539 560 LINE",
"539 700 LINE",
"70 700 LINE",
"70 0 LINE",
"230 0 LINE",
"230 260 LINE",
"247 267 OFFCURVE",
"279 276 OFFCURVE",
"313 276 CURVE SMOOTH",
"371 276 OFFCURVE",
"409 233 OFFCURVE",
"409 142 CURVE SMOOTH",
"409 57 OFFCURVE",
"389 -19 OFFCURVE",
"339 -19 CURVE SMOOTH",
"329 -19 OFFCURVE",
"315 -17 OFFCURVE",
"306 -14 CURVE",
"278 -139 LINE",
"298 -144 OFFCURVE",
"331 -149 OFFCURVE",
"361 -149 CURVE SMOOTH"
);
}
);
width = 611;
},
{
background = {
components = (
{
name = "Be-cy";
}
);
};
layerId = "6DBC133B-A4A9-4EFF-965F-6B79E3B68C3E";
paths = (
{
closed = 1;
nodes = (
"459 -149 OFFCURVE",
"518 -20 OFFCURVE",
"518 141 CURVE SMOOTH",
"518 329 OFFCURVE",
"417 395 OFFCURVE",
"319 395 CURVE SMOOTH",
"297 395 OFFCURVE",
"263 391 OFFCURVE",
"244 386 CURVE",
"193 364 LINE SMOOTH",
"182 359 OFFCURVE",
"173 363 OFFCURVE",
"173 376 CURVE SMOOTH",
"173 622 LINE",
"496 622 LINE",
"496 700 LINE",
"90 700 LINE",
"90 0 LINE",
"173 0 LINE",
"173 291 LINE",
"200 307 OFFCURVE",
"245 320 OFFCURVE",
"303 320 CURVE SMOOTH",
"384 320 OFFCURVE",
"435 267 OFFCURVE",
"435 141 CURVE SMOOTH",
"435 36 OFFCURVE",
"407 -78 OFFCURVE",
"307 -78 CURVE SMOOTH",
"297 -78 OFFCURVE",
"283 -76 OFFCURVE",
"274 -73 CURVE",
"254 -139 LINE",
"267 -144 OFFCURVE",
"287 -149 OFFCURVE",
"307 -149 CURVE SMOOTH"
);
}
);
width = 568;
}
);
leftKerningGroup = "Ghemiddlehook-cy";
leftMetricsKey = "En-cy";
rightKerningGroup = "Ghemiddlehook-cy";
rightMetricsKey = "Be-cy";
unicode = 0494;
userData = {
com.schriftgestaltung.Glyphs.ColorIndex = 3;
com.schriftgestaltung.Glyphs.leftMetricsKey = "En-cy";
com.schriftgestaltung.Glyphs.rightMetricsKey = "Be-cy";
com.typemytype.robofont.layerData = {
background = {
anchors = (
);
components = (
{
baseGlyph = "Be-cy";
transformation = (
1,
0,
0,
1,
0,
0
);
}
);
contours = (
);
lib = {
};
name = "Ghemiddlehook-cy";
unicodes = (
);
width = 568;
};
};
public.markColor = "0.97,1,0,1";
};
},
{
color = 3;
glyphname = "De-cy";
lastChange = "2022-04-28 14:27:10 +0000";
layers = (
{
background = {
anchors = (
{
name = bottom;
position = "{337, 0}";
},
{
name = center;
position = "{369, 350}";
},
{
name = top;
position = "{369, 700}";
}
);
paths = (
{
closed = 1;
nodes = (
"170 -140 LINE",
"170 0 LINE",
"516 0 LINE",
"516 -140 LINE",
"666 -140 LINE",
"666 140 LINE",
"596 140 LINE",
"596 700 LINE",
"159 700 LINE",
"156 610 LINE SMOOTH",
"150 431 OFFCURVE",
"125 256 OFFCURVE",
"70 140 CURVE",
"20 140 LINE",
"20 -140 LINE"
);
},
{
closed = 1;
nodes = (
"217 140 OFFCURVE",
"212 148 OFFCURVE",
"217 156 CURVE SMOOTH",
"246 203 LINE",
"281 297 OFFCURVE",
"299 427 OFFCURVE",
"303 560 CURVE",
"436 560 LINE",
"436 140 LINE",
"228 140 LINE SMOOTH"
);
}
);
};
components = (
{
name = Descender;
transform = "{1, 0, 0, 1, 447, 0}";
}
);
layerId = "BE73C5E5-17BA-4B8B-9704-EF1C804AF4CB";
paths = (
{
closed = 1;
nodes = (
"170 -140 LINE",
"170 0 LINE",
"581 0 LINE",
"581 700 LINE",
"144 700 LINE",
"142 521 OFFCURVE",
"137 394 OFFCURVE",
"129 308 CURVE SMOOTH",
"121 223 OFFCURVE",
"94 167 OFFCURVE",
"55 140 CURVE",
"20 140 LINE",
"20 -140 LINE"
);
},
{
closed = 1;
nodes = (
"227 140 OFFCURVE",
"223 148 OFFCURVE",
"229 158 CURVE SMOOTH",
"260 209 LINE",
"266 239 OFFCURVE",
"273 272 OFFCURVE",
"276 304 CURVE SMOOTH",
"281 353 OFFCURVE",
"288 438 OFFCURVE",
"290 560 CURVE",
"427 560 LINE",
"427 140 LINE",
"239 140 LINE"
);
}
);
width = 686;
},
{
background = {
components = (
{
name = "El-cy";
transform = "{1, 0, 0, 1, 10, 0}";
}
);
};
components = (
{
name = Descender;
transform = "{1, 0, 0, 1, 458, 0}";
}
);
layerId = "6DBC133B-A4A9-4EFF-965F-6B79E3B68C3E";
paths = (
{
closed = 1;
nodes = (
"93 -140 LINE",
"93 0 LINE",
"524 0 LINE",
"527 700 LINE",
"150 700 LINE",
"148 492 OFFCURVE",
"142 344 OFFCURVE",
"133 244 CURVE SMOOTH",
"125 159 OFFCURVE",
"98 103 OFFCURVE",
"59 76 CURVE",
"20 76 LINE",
"20 -140 LINE"
);
},
{
closed = 1;
nodes = (
"163 76 OFFCURVE",
"159 84 OFFCURVE",
"165 94 CURVE SMOOTH",
"196 145 LINE",
"202 175 OFFCURVE",
"209 208 OFFCURVE",
"212 240 CURVE SMOOTH",
"219 312 OFFCURVE",
"226 439 OFFCURVE",
"228 622 CURVE",
"444 622 LINE",
"444 76 LINE",
"175 76 LINE SMOOTH"
);
}
);
width = 627;
}
);
leftKerningGroup = "De-cy";
rightKerningGroup = "De-cy";
unicode = 0414;
userData = {
com.schriftgestaltung.Glyphs.ColorIndex = 4;
com.typemytype.robofont.layerData = {
background = {
anchors = (
);
components = (
{
baseGlyph = "El-cy";
transformation = (
1,
0,
0,
1,
10,
0
);
}
);
contours = (
);
lib = {
};
name = "De-cy";
unicodes = (
);
width = 627;
};
};
public.markColor = "0.67,0.95,0.38,1";
};
},
{
color = 6;
glyphname = "Zhe-cy";
lastChange = "2022-04-28 14:27:10 +0000";
layers = (
{
anchors = (
{
name = bottomright;
position = "{856, 0}";
},
{
name = top;
position = "{438, 700}";
}
);
layerId = "BE73C5E5-17BA-4B8B-9704-EF1C804AF4CB";
paths = (
{
closed = 1;
nodes = (
"192 0 LINE",
"303 285 LINE",
"360 285 LINE",
"360 0 LINE",
"516 0 LINE",
"516 285 LINE",
"573 285 LINE",
"684 0 LINE",
"851 0 LINE",
"708 360 LINE",
"856 700 LINE",
"687 700 LINE",
"573 415 LINE",
"516 415 LINE",
"516 700 LINE",
"360 700 LINE",
"360 415 LINE",
"303 415 LINE",
"189 700 LINE",
"20 700 LINE",
"168 360 LINE",
"25 0 LINE"
);
}
);
width = 876;
},
{
anchors = (
{
name = bottomright;
position = "{772, 0}";
},
{
name = top;
position = "{396, 670}";
}
);
layerId = "6DBC133B-A4A9-4EFF-965F-6B79E3B68C3E";
paths = (
{
closed = 1;
nodes = (
"118 0 LINE",
"279 312 LINE",
"354 312 LINE",
"354 0 LINE",
"436 0 LINE",
"436 312 LINE",
"511 312 LINE",
"672 0 LINE",
"762 0 LINE",
"577 356 LINE",
"755 700 LINE",
"670 700 LINE",
"511 387 LINE",
"436 387 LINE",
"436 700 LINE",
"354 700 LINE",
"354 387 LINE",
"279 387 LINE",
"120 700 LINE",
"30 700 LINE",
"213 353 LINE",
"30 0 LINE"
);
}
);
width = 792;
}
);
leftKerningGroup = X;
rightKerningGroup = X;
rightMetricsKey = K;
unicode = 0416;
userData = {
com.schriftgestaltung.Glyphs.ColorIndex = 6;
com.schriftgestaltung.Glyphs.rightMetricsKey = K;
public.markColor = "0,0.67,0.91,1";
};
},
{
color = 6;
glyphname = "Ze-cy";
lastChange = "2022-04-28 14:27:10 +0000";
layers = (
{
anchors = (
{
name = bottom;
position = "{270, 0}";
},
{
name = top;
position = "{250, 700}";
}
);
background = {
paths = (
{
closed = 1;
nodes = (
"360 -10 OFFCURVE",
"499 55 OFFCURVE",
"499 197 CURVE SMOOTH",
"499 282 OFFCURVE",
"458 330 OFFCURVE",
"404 357 CURVE",
"450 387 OFFCURVE",
"479 436 OFFCURVE",
"479 512 CURVE SMOOTH",
"479 656 OFFCURVE",
"349 712 OFFCURVE",
"240 712 CURVE SMOOTH",
"165 712 OFFCURVE",
"100 701 OFFCURVE",
"32 659 CURVE",
"75 541 LINE",
"125 568 OFFCURVE",
"180 578 OFFCURVE",
"231 578 CURVE SMOOTH",
"295 578 OFFCURVE",
"331 545 OFFCURVE",
"331 497 CURVE SMOOTH",
"331 450 OFFCURVE",
"305 422 OFFCURVE",
"247 422 CURVE SMOOTH",
"131 422 LINE",
"131 292 LINE",
"237 292 LINE SMOOTH",
"319 292 OFFCURVE",
"351 254 OFFCURVE",
"351 207 CURVE SMOOTH",
"351 156 OFFCURVE",
"313 127 OFFCURVE",
"244 127 CURVE SMOOTH",
"167 127 OFFCURVE",
"125 142 OFFCURVE",
"67 191 CURVE",
"20 64 LINE",
"91 7 OFFCURVE",
"162 -10 OFFCURVE",
"255 -10 CURVE SMOOTH"
);
}
);
};
layerId = "BE73C5E5-17BA-4B8B-9704-EF1C804AF4CB";
paths = (
{
closed = 1;
nodes = (
"395 -10 OFFCURVE",
"499 72 OFFCURVE",
"499 197 CURVE SMOOTH",
"499 282 OFFCURVE",
"458 330 OFFCURVE",
"404 357 CURVE",
"450 387 OFFCURVE",
"479 436 OFFCURVE",
"479 512 CURVE SMOOTH",
"479 656 OFFCURVE",
"353 712 OFFCURVE",
"247 712 CURVE SMOOTH",
"172 712 OFFCURVE",
"107 701 OFFCURVE",
"39 659 CURVE",
"82 541 LINE",
"132 568 OFFCURVE",
"187 578 OFFCURVE",
"238 578 CURVE SMOOTH",
"298 578 OFFCURVE",
"331 545 OFFCURVE",
"331 497 CURVE SMOOTH",
"331 450 OFFCURVE",
"305 422 OFFCURVE",
"247 422 CURVE SMOOTH",
"131 422 LINE",
"131 292 LINE",
"237 292 LINE SMOOTH",
"319 292 OFFCURVE",
"351 254 OFFCURVE",
"351 207 CURVE SMOOTH",
"351 156 OFFCURVE",
"313 127 OFFCURVE",
"244 127 CURVE SMOOTH",
"167 127 OFFCURVE",
"125 142 OFFCURVE",
"67 191 CURVE",
"20 64 LINE",
"91 7 OFFCURVE",
"162 -10 OFFCURVE",
"255 -10 CURVE SMOOTH"
);
}
);
width = 539;
},
{
anchors = (
{
name = bottom;
position = "{254, 0}";
},
{
name = top;
position = "{244, 670}";
}
);
background = {
components = (
{
name = three;
transform = "{1, 0, 0, 1, 5, 0}";
}
);
};
layerId = "6DBC133B-A4A9-4EFF-965F-6B79E3B68C3E";
paths = (
{
closed = 1;
nodes = (
"354 -6 OFFCURVE",
"468 45 OFFCURVE",
"468 197 CURVE SMOOTH",
"468 285 OFFCURVE",
"405 344 OFFCURVE",
"346 360 CURVE",
"399 375 OFFCURVE",
"451 432 OFFCURVE",
"451 516 CURVE SMOOTH",
"451 659 OFFCURVE",
"335 706 OFFCURVE",
"248 706 CURVE SMOOTH",
"175 706 OFFCURVE",
"115 688 OFFCURVE",
"53 652 CURVE",
"80 583 LINE",
"123 613 OFFCURVE",
"191 629 OFFCURVE",
"245 629 CURVE SMOOTH",
"324 629 OFFCURVE",
"370 587 OFFCURVE",
"370 516 CURVE SMOOTH",
"370 438 OFFCURVE",
"330 390 OFFCURVE",
"240 390 CURVE SMOOTH",
"128 390 LINE",
"128 314 LINE",
"240 314 LINE SMOOTH",
"340 314 OFFCURVE",
"386 272 OFFCURVE",
"386 197 CURVE SMOOTH",
"386 118 OFFCURVE",
"336 71 OFFCURVE",
"226 71 CURVE SMOOTH",
"170 71 OFFCURVE",
"102 98 OFFCURVE",
"59 136 CURVE",
"30 67 LINE",
"90 19 OFFCURVE",
"155 -6 OFFCURVE",
"237 -6 CURVE SMOOTH"
);
}
);
width = 518;
}
);
leftKerningGroup = X;
rightKerningGroup = B;
rightMetricsKey = B;
unicode = 0417;
userData = {
com.schriftgestaltung.Glyphs.ColorIndex = 4;
com.schriftgestaltung.Glyphs.rightMetricsKey = B;
com.typemytype.robofont.layerData = {
background = {
anchors = (
);
components = (
{
baseGlyph = three;
transformation = (
1,
0,
0,
1,
5,
0
);
}
);
contours = (
);
lib = {
};
name = "Ze-cy";
unicodes = (
);
width = 518;
};
};
public.markColor = "0.67,0.95,0.38,1";
};
},
{
color = 6;
glyphname = "Ii-cy";
lastChange = "2022-04-28 14:27:10 +0000";
layers = (
{
anchors = (
{
name = bottomright;
position = "{575, 0}";
},
{
name = top;
position = "{323, 700}";
}
);
background = {
paths = (
{
closed = 1;
nodes = (
"410 700 LINE",
"411 420 LINE",
"230 420 LINE",
"230 700 LINE",
"70 700 LINE",
"70 0 LINE",
"230 0 LINE",
"230 280 LINE",
"411 280 LINE",
"410 0 LINE",
"570 0 LINE",
"570 700 LINE"
);
}
);
};
layerId = "BE73C5E5-17BA-4B8B-9704-EF1C804AF4CB";
paths = (
{
closed = 1;
nodes = (
"215 0 LINE",
"418 399 LINE SMOOTH",
"423 409 OFFCURVE",
"436 403 OFFCURVE",
"434 393 CURVE SMOOTH",
"420 305 LINE",
"420 0 LINE",
"575 0 LINE",
"575 700 LINE",
"430 700 LINE",
"226 301 LINE SMOOTH",
"221 291 OFFCURVE",
"208 297 OFFCURVE",
"210 307 CURVE SMOOTH",
"225 395 LINE",
"225 700 LINE",
"70 700 LINE",
"70 0 LINE"
);
}
);
width = 645;
},
{
anchors = (
{
name = bottomright;
position = "{543, 0}";
},
{
name = top;
position = "{312, 670}";
}
);
background = {
paths = (
{
closed = 1;
nodes = (
"447 700 LINE",
"447 389 LINE",
"173 389 LINE",
"173 700 LINE",
"90 700 LINE",
"90 0 LINE",
"173 0 LINE",
"173 311 LINE",
"447 311 LINE",
"447 0 LINE",
"530 0 LINE",
"530 700 LINE"
);
}
);
};
layerId = "6DBC133B-A4A9-4EFF-965F-6B79E3B68C3E";
paths = (
{
closed = 1;
nodes = (
"163 0 LINE",
"462 534 LINE SMOOTH",
"469 546 OFFCURVE",
"478 542 OFFCURVE",
"476 531 CURVE SMOOTH",
"466 466 LINE",
"466 0 LINE",
"549 0 LINE",
"549 700 LINE",
"476 700 LINE",
"175 162 LINE SMOOTH",
"170 152 OFFCURVE",
"161 158 OFFCURVE",
"162 167 CURVE SMOOTH",
"173 234 LINE",
"173 700 LINE",
"90 700 LINE",
"90 0 LINE"
);
}
);
width = 639;
}
);
leftKerningGroup = H;
leftMetricsKey = H;
rightKerningGroup = H;
rightMetricsKey = H;
unicode = 0418;
userData = {
com.schriftgestaltung.Glyphs.ColorIndex = 6;
com.schriftgestaltung.Glyphs.leftMetricsKey = H;
com.schriftgestaltung.Glyphs.rightMetricsKey = H;
com.typemytype.robofont.layerData = {
background = {
anchors = (
);
components = (
);
contours = (
{
points = (
{
segmentType = line;
smooth = 0;
x = 447;
y = 700;
},
{
segmentType = line;
smooth = 0;
x = 447;
y = 389;
},
{
segmentType = line;
smooth = 0;
x = 173;
y = 389;
},
{
segmentType = line;
smooth = 0;
x = 173;
y = 700;
},
{
segmentType = line;
smooth = 0;
x = 90;
y = 700;
},
{
segmentType = line;
smooth = 0;
x = 90;
y = 0;
},
{
segmentType = line;
smooth = 0;
x = 173;
y = 0;
},
{
segmentType = line;
smooth = 0;
x = 173;
y = 311;
},
{
segmentType = line;
smooth = 0;
x = 447;
y = 311;
},
{
segmentType = line;
smooth = 0;
x = 447;
y = 0;
},
{
segmentType = line;
smooth = 0;
x = 530;
y = 0;
},
{
segmentType = line;
smooth = 0;
x = 530;
y = 700;
}
);
}
);
lib = {
};
name = "Ii-cy";
unicodes = (
);
width = 639;
};
};
public.markColor = "0,0.67,0.91,1";
};
},
{
color = 3;
glyphname = "Iishorttail-cy";
lastChange = "2022-04-28 14:27:10 +0000";
layers = (
{
components = (
{
name = "Iishort-cy";
}
);
layerId = "BE73C5E5-17BA-4B8B-9704-EF1C804AF4CB";
paths = (
{
closed = 1;
nodes = (
"545 -140 LINE",
"655 110 LINE",
"655 140 LINE",
"518 140 LINE",
"395 -140 LINE"
);
}
);
width = 660;
},
{
components = (
{
name = "Iishort-cy";
}
);
layerId = "6DBC133B-A4A9-4EFF-965F-6B79E3B68C3E";
paths = (
{
closed = 1;
nodes = (
"522 -140 LINE",
"619 57 LINE",
"619 76 LINE",
"549 76 LINE",
"443 -140 LINE"
);
}
);
width = 634;
}
);
leftKerningGroup = H;
leftMetricsKey = "En-cy";
rightKerningGroup = "Iishorttail-cy";
unicode = 048A;
userData = {
com.schriftgestaltung.Glyphs.ColorIndex = 4;
com.schriftgestaltung.Glyphs.leftMetricsKey = "En-cy";
public.markColor = "0.67,0.95,0.38,1";
};
},
